<?xml version="1.0" standalone="no"?>
<!DOCTYPE svg PUBLIC "-//W3C//DTD SVG 1.1//EN" "http://www.w3.org/Graphics/SVG/1.1/DTD/svg11.dtd" >
<svg xmlns="http://www.w3.org/2000/svg" xmlns:xlink="http://www.w3.org/1999/xlink" version="1.1">
<metadata>
Created by Christoph Koeberlin (http://christoph.koe.berlin)
Copyright (c) 2017 Swiss Typefaces Sarl. All rights reserved.
</metadata>
<defs>
<font id="Font" horiz-adv-x="881" >
  <font-face 
    font-family="Font"
    font-weight="500"
    font-style="italic"
    font-stretch="normal"
    units-per-em="1000"
    panose-1="2 4 6 4 8 0 0 0 0 4"
    ascent="800"
    descent="-200"
    x-height="502"
    cap-height="758"
    bbox="-233 -261 1486 926"
    underline-thickness="58"
    underline-position="-130"
    slope="-17"
    unicode-range="U+0020-2022"
  />
<missing-glyph horiz-adv-x="640" 
d="M70 758h500v-758h-500v758zM320 396l217 343h-434zM89 30l221 349l-221 349v-698zM551 30v698l-220 -349zM537 19l-217 343l-217 -343h434z" />
    <glyph glyph-name="f_f.liga" unicode="ff" horiz-adv-x="678" 
d="M465 438h-208l-52 -232q-32 -145 -75 -235.5t-88 -141.5t-88 -69.5t-76 -18.5q-34 0 -51.5 17.5t-17.5 42.5q0 22 16 39t39 19q25 -21 49 -39t46 -18q12 0 22 6.5t19.5 25.5t20 54.5t22.5 92.5l99 457h-81l9 28q28 2 47.5 6t36 15.5t32 34t35.5 62.5q25 52 53.5 86.5
t57 54t56 27.5t50.5 8q35 0 50.5 -15.5t15.5 -38.5q0 -19 -10 -38t-27 -28q-26 11 -50 15.5t-44 4.5q-31 0 -55 -9t-40 -23.5t-24.5 -33.5t-8.5 -40q0 -25 12.5 -38.5t43.5 -13.5h140q24 0 39.5 8.5t27 22t19.5 31.5t17 36q26 52 54.5 87t57 56t55.5 29.5t50 8.5
q35 0 50.5 -15.5t15.5 -38.5q0 -19 -10 -38t-27 -28q-26 11 -50 15.5t-44 4.5q-31 0 -55 -9.5t-40 -26t-24.5 -38t-8.5 -45.5t12.5 -42t43.5 -18h140l-40 -64h-144l-42 -188q-32 -145 -75 -236t-88 -142t-88 -69t-76 -18q-34 0 -52 17.5t-18 42.5q0 23 16.5 39.5t39.5 18.5
q25 -21 49 -39t46 -18q12 0 21.5 6.5t19.5 26t20.5 55t22.5 92.5z" />
    <glyph glyph-name="f_i.liga" unicode="fi" horiz-adv-x="626" 
d="M533 716q0 31 23 54.5t54 23.5q32 0 55.5 -23.5t23.5 -54.5q0 -32 -23.5 -55.5t-55.5 -23.5q-31 0 -54 23.5t-23 55.5zM-122 -259q-34 0 -51.5 17.5t-17.5 42.5q0 22 16 39t39 19q25 -21 49 -39t46 -18q12 0 22 6.5t19.5 25.5t20 54.5t22.5 92.5l99 457h-81l9 28
q28 2 48 8t36.5 21t31.5 40t35 65q26 52 53.5 87t55 56t53 29.5t48.5 8.5q35 0 50.5 -15.5t15.5 -38.5q0 -19 -10 -38t-27 -28q-26 11 -50 15.5t-44 4.5q-30 0 -52.5 -9.5t-38 -26t-23 -38t-7.5 -45.5t12.5 -42t43.5 -18h301l-153 -399q-15 -39 -15 -54t15 -15
q11 0 27.5 7.5t35.5 24.5t39.5 44t40.5 66l25 -11q-42 -83 -99.5 -130t-136.5 -47q-56 0 -65.5 29.5t10.5 79.5l132 341h-201l-52 -232q-32 -145 -75 -235.5t-88 -141.5t-88 -69.5t-76 -18.5z" />
    <glyph glyph-name="f_f_i.liga" unicode="ffi" horiz-adv-x="949" 
d="M856 716q0 15 6.5 29.5t17 25t24.5 17t29 6.5q32 0 55.5 -23.5t23.5 -54.5q0 -32 -23.5 -55.5t-55.5 -23.5q-15 0 -29 6.5t-24.5 17.5t-17 25t-6.5 30zM-122 -259q-34 0 -51.5 17.5t-17.5 42.5q0 22 16 39t39 19q25 -21 49 -39t46 -18q12 0 22 6.5t19.5 25.5t20 54.5
t22.5 92.5l99 457h-81l9 28q28 3 48 7t36 15t31.5 33.5t35.5 62.5q25 52 53.5 86.5t57 54t56 27.5t50.5 8q35 0 50.5 -15.5t15.5 -38.5q0 -19 -10 -38t-27 -28q-26 11 -50 15.5t-44 4.5q-31 0 -55 -9t-40 -23.5t-24.5 -33.5t-8.5 -40q0 -25 12.5 -38.5t43.5 -13.5h140
q24 0 39.5 8.5t27 22t19.5 31.5t17 36q26 52 53.5 87t54.5 56t52.5 29.5t48.5 8.5q35 0 50.5 -15.5t15.5 -38.5q0 -19 -9.5 -38t-27.5 -28q-25 11 -49 15.5t-45 4.5q-30 0 -52.5 -9.5t-37.5 -26t-22.5 -38t-7.5 -45.5t12.5 -42t43.5 -18h302l-154 -399q-15 -39 -15 -54
t16 -15q10 0 26.5 7.5t35.5 24.5t39.5 44t40.5 66l25 -11q-42 -83 -99.5 -130t-136.5 -47q-28 0 -43.5 7.5t-21 22t-2.5 34.5t13 45l131 341h-201l-42 -188q-32 -145 -75 -236t-88 -142t-88 -69t-76 -18q-34 0 -52 17.5t-18 42.5q0 23 16.5 39.5t39.5 18.5q25 -21 49 -39
t46 -18q12 0 21.5 6.5t19.5 26t20.5 55t22.5 92.5l89 412h-208l-52 -232q-32 -145 -75 -235.5t-88 -141.5t-88 -69.5t-76 -18.5z" />
    <glyph glyph-name="f_l.liga" unicode="fl" horiz-adv-x="645" 
d="M-122 -259q-34 0 -51.5 17.5t-17.5 42.5q0 22 16 39t39 19q25 -21 49 -39t46 -18q12 0 22 6.5t19.5 25.5t20 54.5t22.5 92.5l99 457h-81l9 28q28 2 48 8t36 21t31.5 40t35.5 65q25 52 53.5 87t57 56t56 29.5t50.5 8.5q29 0 44.5 -11.5t19.5 -28.5l208 52l-237 -690
q-14 -40 -14.5 -54.5t15.5 -14.5q10 0 26.5 7.5t35.5 24.5t39.5 44t40.5 66l25 -11q-42 -83 -99.5 -130t-136.5 -47q-28 0 -43 7.5t-20.5 21.5t-2.5 34t12 46l200 584l-49 31q-3 -16 -12 -29.5t-23 -21.5q-26 11 -50 15.5t-44 4.5q-31 0 -55 -9.5t-40 -26t-24.5 -38
t-8.5 -45.5t12.5 -42t43.5 -18h135l-40 -64h-139l-52 -232q-32 -145 -75 -235.5t-88 -141.5t-88 -69.5t-76 -18.5z" />
    <glyph glyph-name="f_f_l.liga" unicode="ffl" horiz-adv-x="968" 
d="M-122 -259q-34 0 -51.5 17.5t-17.5 42.5q0 22 16 39t39 19q25 -21 49 -39t46 -18q12 0 22 6.5t19.5 25.5t20 54.5t22.5 92.5l99 457h-81l9 28q28 3 48 7t36 15t31.5 33.5t35.5 62.5q25 52 53.5 86.5t57 54t56 27.5t50.5 8q35 0 50.5 -15.5t15.5 -38.5q0 -19 -10 -38
t-27 -28q-26 11 -50 15.5t-44 4.5q-31 0 -55 -9t-40 -23.5t-24.5 -33.5t-8.5 -40q0 -25 12.5 -38.5t43.5 -13.5h140q24 0 39.5 8.5t27 22t19.5 31.5t17 36q26 52 54.5 87t57 56t55.5 29.5t50 8.5q29 0 44.5 -11.5t19.5 -28.5l208 52l-237 -690q-14 -40 -14.5 -54.5
t15.5 -14.5q10 0 26.5 7.5t35.5 24.5t39.5 44t40.5 66l25 -11q-42 -83 -99.5 -130t-136.5 -47q-28 0 -43 7.5t-20.5 21.5t-3 34t11.5 46l201 584l-49 31q-3 -16 -12 -29.5t-23 -21.5q-26 11 -50 15.5t-44 4.5q-31 0 -55 -9.5t-40 -26t-24.5 -38t-8.5 -45.5t12.5 -42
t43.5 -18h140l-40 -64h-144l-42 -188q-32 -145 -75 -236t-88 -142t-88 -69t-76 -18q-34 0 -52 17.5t-18 42.5q0 23 16.5 39.5t39.5 18.5q25 -21 49 -39t46 -18q12 0 21.5 6.5t19.5 26t20.5 55t22.5 92.5l89 412h-208l-52 -232q-32 -145 -75 -235.5t-88 -141.5t-88 -69.5
t-76 -18.5z" />
    <glyph glyph-name=".notdef" horiz-adv-x="640" 
d="M70 758h500v-758h-500v758zM320 396l217 343h-434zM89 30l221 349l-221 349v-698zM551 30v698l-220 -349zM537 19l-217 343l-217 -343h434z" />
    <glyph glyph-name="glyph1" horiz-adv-x="0" 
 />
    <glyph glyph-name="glyph2" horiz-adv-x="274" 
 />
    <glyph glyph-name="space" unicode=" " horiz-adv-x="274" 
 />
    <glyph glyph-name="comma" unicode="," horiz-adv-x="287" 
d="M-59 -163q62 35 98 79t36 81q0 52 -69 67q8 45 35 63.5t59 18.5q34 0 58 -22t24 -62q0 -27 -14.5 -59.5t-43 -66.5t-71 -67t-99.5 -60z" />
    <glyph glyph-name="hyphen" unicode="-" horiz-adv-x="430" 
d="M83 295h294l-23 -66h-294z" />
    <glyph glyph-name="period" unicode="." horiz-adv-x="270" 
d="M87 -12q-33 0 -56 23.5t-23 58.5q0 33 23 56.5t56 23.5q35 0 58.5 -23.5t23.5 -56.5q0 -35 -23.5 -58.5t-58.5 -23.5z" />
    <glyph glyph-name="slash" unicode="/" horiz-adv-x="539" 
d="M585 800h88l-642 -852h-88z" />
    <glyph glyph-name="zero" unicode="0" horiz-adv-x="677" 
d="M278 -12q-56 0 -96.5 20t-66.5 54.5t-38 81t-12 98.5q0 60 16 123t44 122.5t67 112t85 92t97.5 62.5t105.5 23q57 0 97.5 -20.5t66.5 -55t38.5 -80.5t12.5 -98q0 -60 -16 -123t-44 -122.5t-67.5 -112t-85.5 -92t-98 -62.5t-106 -23zM287 24q43 0 81.5 29t70.5 76t58 107
t44 122.5t27.5 122.5t9.5 107q0 71 -26 112t-80 41q-43 0 -81.5 -29t-70.5 -76t-58 -107t-44 -123t-27.5 -123t-9.5 -107q0 -71 26 -111.5t80 -40.5z" />
    <glyph glyph-name="A" unicode="A" horiz-adv-x="819" 
d="M-133 30l40 3q25 2 48 11t45 29l783 712h19l-163 -709q-6 -26 3.5 -33.5t33.5 -9.5l39 -3l-9 -30h-309l9 30l41 3q25 2 41 9.5t22 33.5l45 188h-282l-209 -191q-20 -18 -22 -28t22 -12l60 -3l-9 -30h-257zM566 313l67 280l-306 -280h239z" />
    <glyph glyph-name="A" unicode="&#x104;" horiz-adv-x="819" 
d="M-133 30l40 3q25 2 48 11t45 29l783 712h19l-163 -709q-6 -26 3.5 -33.5t33.5 -9.5l39 -3l-9 -30h-309l9 30l41 3q25 2 41 9.5t22 33.5l45 188h-282l-209 -191q-20 -18 -22 -28t22 -12l60 -3l-9 -30h-257zM566 313l67 280l-306 -280h239z" />
    <glyph glyph-name="A" unicode="&#x102;" horiz-adv-x="819" 
d="M-133 30l40 3q25 2 48 11t45 29l783 712h19l-163 -709q-6 -26 3.5 -33.5t33.5 -9.5l39 -3l-9 -30h-309l9 30l41 3q25 2 41 9.5t22 33.5l45 188h-282l-209 -191q-20 -18 -22 -28t22 -12l60 -3l-9 -30h-257zM566 313l67 280l-306 -280h239z" />
    <glyph glyph-name="A" unicode="&#x100;" horiz-adv-x="819" 
d="M-133 30l40 3q25 2 48 11t45 29l783 712h19l-163 -709q-6 -26 3.5 -33.5t33.5 -9.5l39 -3l-9 -30h-309l9 30l41 3q25 2 41 9.5t22 33.5l45 188h-282l-209 -191q-20 -18 -22 -28t22 -12l60 -3l-9 -30h-257zM566 313l67 280l-306 -280h239z" />
    <glyph glyph-name="A" unicode="&#xc6;" horiz-adv-x="819" 
d="M-133 30l40 3q25 2 48 11t45 29l783 712h19l-163 -709q-6 -26 3.5 -33.5t33.5 -9.5l39 -3l-9 -30h-309l9 30l41 3q25 2 41 9.5t22 33.5l45 188h-282l-209 -191q-20 -18 -22 -28t22 -12l60 -3l-9 -30h-257zM566 313l67 280l-306 -280h239z" />
    <glyph glyph-name="A" unicode="&#xc5;" horiz-adv-x="819" 
d="M-133 30l40 3q25 2 48 11t45 29l783 712h19l-163 -709q-6 -26 3.5 -33.5t33.5 -9.5l39 -3l-9 -30h-309l9 30l41 3q25 2 41 9.5t22 33.5l45 188h-282l-209 -191q-20 -18 -22 -28t22 -12l60 -3l-9 -30h-257zM566 313l67 280l-306 -280h239z" />
    <glyph glyph-name="A" unicode="&#xc4;" horiz-adv-x="819" 
d="M-133 30l40 3q25 2 48 11t45 29l783 712h19l-163 -709q-6 -26 3.5 -33.5t33.5 -9.5l39 -3l-9 -30h-309l9 30l41 3q25 2 41 9.5t22 33.5l45 188h-282l-209 -191q-20 -18 -22 -28t22 -12l60 -3l-9 -30h-257zM566 313l67 280l-306 -280h239z" />
    <glyph glyph-name="A" unicode="&#xc3;" horiz-adv-x="819" 
d="M-133 30l40 3q25 2 48 11t45 29l783 712h19l-163 -709q-6 -26 3.5 -33.5t33.5 -9.5l39 -3l-9 -30h-309l9 30l41 3q25 2 41 9.5t22 33.5l45 188h-282l-209 -191q-20 -18 -22 -28t22 -12l60 -3l-9 -30h-257zM566 313l67 280l-306 -280h239z" />
    <glyph glyph-name="A" unicode="&#xc2;" horiz-adv-x="819" 
d="M-133 30l40 3q25 2 48 11t45 29l783 712h19l-163 -709q-6 -26 3.5 -33.5t33.5 -9.5l39 -3l-9 -30h-309l9 30l41 3q25 2 41 9.5t22 33.5l45 188h-282l-209 -191q-20 -18 -22 -28t22 -12l60 -3l-9 -30h-257zM566 313l67 280l-306 -280h239z" />
    <glyph glyph-name="A" unicode="&#xc1;" horiz-adv-x="819" 
d="M-133 30l40 3q25 2 48 11t45 29l783 712h19l-163 -709q-6 -26 3.5 -33.5t33.5 -9.5l39 -3l-9 -30h-309l9 30l41 3q25 2 41 9.5t22 33.5l45 188h-282l-209 -191q-20 -18 -22 -28t22 -12l60 -3l-9 -30h-257zM566 313l67 280l-306 -280h239z" />
    <glyph glyph-name="A" unicode="&#xc0;" horiz-adv-x="819" 
d="M-133 30l40 3q25 2 48 11t45 29l783 712h19l-163 -709q-6 -26 3.5 -33.5t33.5 -9.5l39 -3l-9 -30h-309l9 30l41 3q25 2 41 9.5t22 33.5l45 188h-282l-209 -191q-20 -18 -22 -28t22 -12l60 -3l-9 -30h-257zM566 313l67 280l-306 -280h239z" />
    <glyph glyph-name="B" unicode="B" horiz-adv-x="758" 
d="M-17 30l41 3q25 2 40 9.5t23 33.5l185 606q8 26 -2.5 33.5t-33.5 9.5l-39 3l9 30h288q136 0 205 -31t68 -102q-1 -41 -21 -77.5t-56.5 -65t-88 -48t-114.5 -26.5v-1q46 -2 87.5 -12t72.5 -29t49 -47t18 -66q0 -47 -26.5 -92.5t-78 -81t-126.5 -57.5t-171 -22h-338z
M416 420q54 0 94.5 20t67 51t39.5 67t13 68q0 50 -33 72.5t-99 22.5h-85l-91 -301h94zM307 37q72 0 122 21.5t81.5 55t46 74t14.5 79.5q0 65 -43 90.5t-119 25.5h-99l-106 -346h103z" />
    <glyph glyph-name="C" unicode="C" horiz-adv-x="804" 
d="M409 -12q-67 0 -127 19.5t-105.5 58t-72.5 97t-27 136.5q0 65 20 126t55 114t83.5 97t106.5 75t122 48.5t131 17.5q34 0 69 -4t66.5 -11.5t58.5 -18t47 -22.5l-12 -223h-21l-62 163q-11 30 -22.5 42.5t-31.5 21.5q-16 7 -38.5 10t-48.5 3q-81 0 -149.5 -36t-118.5 -99
t-78.5 -150t-28.5 -189q0 -112 47 -175t145 -63q25 0 45.5 2t40.5 10t42 28l207 199h21l-137 -241q-20 -7 -46.5 -13.5t-56.5 -11.5t-62 -8t-62 -3z" />
    <glyph glyph-name="C" unicode="&#x10c;" horiz-adv-x="804" 
d="M409 -12q-67 0 -127 19.5t-105.5 58t-72.5 97t-27 136.5q0 65 20 126t55 114t83.5 97t106.5 75t122 48.5t131 17.5q34 0 69 -4t66.5 -11.5t58.5 -18t47 -22.5l-12 -223h-21l-62 163q-11 30 -22.5 42.5t-31.5 21.5q-16 7 -38.5 10t-48.5 3q-81 0 -149.5 -36t-118.5 -99
t-78.5 -150t-28.5 -189q0 -112 47 -175t145 -63q25 0 45.5 2t40.5 10t42 28l207 199h21l-137 -241q-20 -7 -46.5 -13.5t-56.5 -11.5t-62 -8t-62 -3z" />
    <glyph glyph-name="C" unicode="&#x10a;" horiz-adv-x="804" 
d="M409 -12q-67 0 -127 19.5t-105.5 58t-72.5 97t-27 136.5q0 65 20 126t55 114t83.5 97t106.5 75t122 48.5t131 17.5q34 0 69 -4t66.5 -11.5t58.5 -18t47 -22.5l-12 -223h-21l-62 163q-11 30 -22.5 42.5t-31.5 21.5q-16 7 -38.5 10t-48.5 3q-81 0 -149.5 -36t-118.5 -99
t-78.5 -150t-28.5 -189q0 -112 47 -175t145 -63q25 0 45.5 2t40.5 10t42 28l207 199h21l-137 -241q-20 -7 -46.5 -13.5t-56.5 -11.5t-62 -8t-62 -3z" />
    <glyph glyph-name="C" unicode="&#x108;" horiz-adv-x="804" 
d="M409 -12q-67 0 -127 19.5t-105.5 58t-72.5 97t-27 136.5q0 65 20 126t55 114t83.5 97t106.5 75t122 48.5t131 17.5q34 0 69 -4t66.5 -11.5t58.5 -18t47 -22.5l-12 -223h-21l-62 163q-11 30 -22.5 42.5t-31.5 21.5q-16 7 -38.5 10t-48.5 3q-81 0 -149.5 -36t-118.5 -99
t-78.5 -150t-28.5 -189q0 -112 47 -175t145 -63q25 0 45.5 2t40.5 10t42 28l207 199h21l-137 -241q-20 -7 -46.5 -13.5t-56.5 -11.5t-62 -8t-62 -3z" />
    <glyph glyph-name="C" unicode="&#x106;" horiz-adv-x="804" 
d="M409 -12q-67 0 -127 19.5t-105.5 58t-72.5 97t-27 136.5q0 65 20 126t55 114t83.5 97t106.5 75t122 48.5t131 17.5q34 0 69 -4t66.5 -11.5t58.5 -18t47 -22.5l-12 -223h-21l-62 163q-11 30 -22.5 42.5t-31.5 21.5q-16 7 -38.5 10t-48.5 3q-81 0 -149.5 -36t-118.5 -99
t-78.5 -150t-28.5 -189q0 -112 47 -175t145 -63q25 0 45.5 2t40.5 10t42 28l207 199h21l-137 -241q-20 -7 -46.5 -13.5t-56.5 -11.5t-62 -8t-62 -3z" />
    <glyph glyph-name="C" unicode="&#xc7;" horiz-adv-x="804" 
d="M409 -12q-67 0 -127 19.5t-105.5 58t-72.5 97t-27 136.5q0 65 20 126t55 114t83.5 97t106.5 75t122 48.5t131 17.5q34 0 69 -4t66.5 -11.5t58.5 -18t47 -22.5l-12 -223h-21l-62 163q-11 30 -22.5 42.5t-31.5 21.5q-16 7 -38.5 10t-48.5 3q-81 0 -149.5 -36t-118.5 -99
t-78.5 -150t-28.5 -189q0 -112 47 -175t145 -63q25 0 45.5 2t40.5 10t42 28l207 199h21l-137 -241q-20 -7 -46.5 -13.5t-56.5 -11.5t-62 -8t-62 -3z" />
    <glyph glyph-name="D" unicode="D" horiz-adv-x="858" 
d="M-17 30l41 3q25 2 40 9.5t23 33.5l185 606q8 26 -2.5 33.5t-33.5 9.5l-39 3l9 30h255q97 0 172 -18t127 -53t79 -87t27 -120q0 -97 -43 -184t-121 -153t-185.5 -104.5t-236.5 -38.5h-306zM288 37q101 0 181.5 38.5t136.5 103t86 148t30 174.5q0 109 -65 164.5t-190 55.5
h-54l-209 -684h84z" />
    <glyph glyph-name="D" unicode="&#x110;" horiz-adv-x="858" 
d="M-17 30l41 3q25 2 40 9.5t23 33.5l185 606q8 26 -2.5 33.5t-33.5 9.5l-39 3l9 30h255q97 0 172 -18t127 -53t79 -87t27 -120q0 -97 -43 -184t-121 -153t-185.5 -104.5t-236.5 -38.5h-306zM288 37q101 0 181.5 38.5t136.5 103t86 148t30 174.5q0 109 -65 164.5t-190 55.5
h-54l-209 -684h84z" />
    <glyph glyph-name="D" unicode="&#x10e;" horiz-adv-x="858" 
d="M-17 30l41 3q25 2 40 9.5t23 33.5l185 606q8 26 -2.5 33.5t-33.5 9.5l-39 3l9 30h255q97 0 172 -18t127 -53t79 -87t27 -120q0 -97 -43 -184t-121 -153t-185.5 -104.5t-236.5 -38.5h-306zM288 37q101 0 181.5 38.5t136.5 103t86 148t30 174.5q0 109 -65 164.5t-190 55.5
h-54l-209 -684h84z" />
    <glyph glyph-name="D" unicode="&#xd0;" horiz-adv-x="858" 
d="M-17 30l41 3q25 2 40 9.5t23 33.5l185 606q8 26 -2.5 33.5t-33.5 9.5l-39 3l9 30h255q97 0 172 -18t127 -53t79 -87t27 -120q0 -97 -43 -184t-121 -153t-185.5 -104.5t-236.5 -38.5h-306zM288 37q101 0 181.5 38.5t136.5 103t86 148t30 174.5q0 109 -65 164.5t-190 55.5
h-54l-209 -684h84z" />
    <glyph glyph-name="E" unicode="E" horiz-adv-x="762" 
d="M-17 30l41 3q25 2 40 9.5t23 33.5l186 606q8 26 -3 33.5t-34 9.5l-39 3l9 30h566l-40 -246h-21l-56 190q-3 11 -8.5 14t-19.5 3h-214l-93 -303h134q10 0 14 2t9 10l81 124h21l-96 -316h-21l-6 124q0 8 -3 10t-13 2h-133l-102 -333h262q12 0 17.5 3t15.5 11l221 194h21
l-144 -247h-624z" />
    <glyph glyph-name="E" unicode="&#x11a;" horiz-adv-x="762" 
d="M-17 30l41 3q25 2 40 9.5t23 33.5l186 606q8 26 -3 33.5t-34 9.5l-39 3l9 30h566l-40 -246h-21l-56 190q-3 11 -8.5 14t-19.5 3h-214l-93 -303h134q10 0 14 2t9 10l81 124h21l-96 -316h-21l-6 124q0 8 -3 10t-13 2h-133l-102 -333h262q12 0 17.5 3t15.5 11l221 194h21
l-144 -247h-624z" />
    <glyph glyph-name="E" unicode="&#x118;" horiz-adv-x="762" 
d="M-17 30l41 3q25 2 40 9.5t23 33.5l186 606q8 26 -3 33.5t-34 9.5l-39 3l9 30h566l-40 -246h-21l-56 190q-3 11 -8.5 14t-19.5 3h-214l-93 -303h134q10 0 14 2t9 10l81 124h21l-96 -316h-21l-6 124q0 8 -3 10t-13 2h-133l-102 -333h262q12 0 17.5 3t15.5 11l221 194h21
l-144 -247h-624z" />
    <glyph glyph-name="E" unicode="&#x116;" horiz-adv-x="762" 
d="M-17 30l41 3q25 2 40 9.5t23 33.5l186 606q8 26 -3 33.5t-34 9.5l-39 3l9 30h566l-40 -246h-21l-56 190q-3 11 -8.5 14t-19.5 3h-214l-93 -303h134q10 0 14 2t9 10l81 124h21l-96 -316h-21l-6 124q0 8 -3 10t-13 2h-133l-102 -333h262q12 0 17.5 3t15.5 11l221 194h21
l-144 -247h-624z" />
    <glyph glyph-name="E" unicode="&#x114;" horiz-adv-x="762" 
d="M-17 30l41 3q25 2 40 9.5t23 33.5l186 606q8 26 -3 33.5t-34 9.5l-39 3l9 30h566l-40 -246h-21l-56 190q-3 11 -8.5 14t-19.5 3h-214l-93 -303h134q10 0 14 2t9 10l81 124h21l-96 -316h-21l-6 124q0 8 -3 10t-13 2h-133l-102 -333h262q12 0 17.5 3t15.5 11l221 194h21
l-144 -247h-624z" />
    <glyph glyph-name="E" unicode="&#x112;" horiz-adv-x="762" 
d="M-17 30l41 3q25 2 40 9.5t23 33.5l186 606q8 26 -3 33.5t-34 9.5l-39 3l9 30h566l-40 -246h-21l-56 190q-3 11 -8.5 14t-19.5 3h-214l-93 -303h134q10 0 14 2t9 10l81 124h21l-96 -316h-21l-6 124q0 8 -3 10t-13 2h-133l-102 -333h262q12 0 17.5 3t15.5 11l221 194h21
l-144 -247h-624z" />
    <glyph glyph-name="E" unicode="&#xcb;" horiz-adv-x="762" 
d="M-17 30l41 3q25 2 40 9.5t23 33.5l186 606q8 26 -3 33.5t-34 9.5l-39 3l9 30h566l-40 -246h-21l-56 190q-3 11 -8.5 14t-19.5 3h-214l-93 -303h134q10 0 14 2t9 10l81 124h21l-96 -316h-21l-6 124q0 8 -3 10t-13 2h-133l-102 -333h262q12 0 17.5 3t15.5 11l221 194h21
l-144 -247h-624z" />
    <glyph glyph-name="E" unicode="&#xca;" horiz-adv-x="762" 
d="M-17 30l41 3q25 2 40 9.5t23 33.5l186 606q8 26 -3 33.5t-34 9.5l-39 3l9 30h566l-40 -246h-21l-56 190q-3 11 -8.5 14t-19.5 3h-214l-93 -303h134q10 0 14 2t9 10l81 124h21l-96 -316h-21l-6 124q0 8 -3 10t-13 2h-133l-102 -333h262q12 0 17.5 3t15.5 11l221 194h21
l-144 -247h-624z" />
    <glyph glyph-name="E" unicode="&#xc9;" horiz-adv-x="762" 
d="M-17 30l41 3q25 2 40 9.5t23 33.5l186 606q8 26 -3 33.5t-34 9.5l-39 3l9 30h566l-40 -246h-21l-56 190q-3 11 -8.5 14t-19.5 3h-214l-93 -303h134q10 0 14 2t9 10l81 124h21l-96 -316h-21l-6 124q0 8 -3 10t-13 2h-133l-102 -333h262q12 0 17.5 3t15.5 11l221 194h21
l-144 -247h-624z" />
    <glyph glyph-name="E" unicode="&#xc8;" horiz-adv-x="762" 
d="M-17 30l41 3q25 2 40 9.5t23 33.5l186 606q8 26 -3 33.5t-34 9.5l-39 3l9 30h566l-40 -246h-21l-56 190q-3 11 -8.5 14t-19.5 3h-214l-93 -303h134q10 0 14 2t9 10l81 124h21l-96 -316h-21l-6 124q0 8 -3 10t-13 2h-133l-102 -333h262q12 0 17.5 3t15.5 11l221 194h21
l-144 -247h-624z" />
    <glyph glyph-name="F" unicode="F" horiz-adv-x="718" 
d="M-17 30l41 3q25 2 40 9.5t23 33.5l186 606q8 26 -3 33.5t-34 9.5l-39 3l9 30h608l-39 -246h-21l-57 190q-4 11 -8.5 14t-18.5 3h-257l-93 -303h145q9 0 13.5 2t9.5 10l80 124h21l-96 -316h-21l-5 124q0 8 -3 10t-13 2h-144l-91 -296q-8 -26 2.5 -33t35.5 -8l77 -3
l-10 -32h-347z" />
    <glyph glyph-name="G" unicode="G" horiz-adv-x="876" 
d="M419 -12q-67 0 -128.5 19.5t-109 58t-75.5 97t-28 136.5q0 98 43.5 185t116 152t167 103t196.5 38q34 0 68.5 -4t66 -11.5t58 -18t45.5 -22.5l-12 -223h-21l-62 163q-11 30 -22 43t-31 21q-17 8 -39.5 10.5t-47.5 2.5q-82 0 -151 -36t-119.5 -99t-79 -150t-28.5 -189
q0 -112 51.5 -174t151.5 -62q35 0 72 7.5t72 24.5l80 213q9 25 -1 32.5t-34 8.5l-115 4l12 34h386l-13 -37l-90 -1l-77 -204l-19 -71q-45 -3 -80.5 -11.5t-68 -17.5t-64.5 -15.5t-70 -6.5z" />
    <glyph glyph-name="G" unicode="&#x122;" horiz-adv-x="876" 
d="M419 -12q-67 0 -128.5 19.5t-109 58t-75.5 97t-28 136.5q0 98 43.5 185t116 152t167 103t196.5 38q34 0 68.5 -4t66 -11.5t58 -18t45.5 -22.5l-12 -223h-21l-62 163q-11 30 -22 43t-31 21q-17 8 -39.5 10.5t-47.5 2.5q-82 0 -151 -36t-119.5 -99t-79 -150t-28.5 -189
q0 -112 51.5 -174t151.5 -62q35 0 72 7.5t72 24.5l80 213q9 25 -1 32.5t-34 8.5l-115 4l12 34h386l-13 -37l-90 -1l-77 -204l-19 -71q-45 -3 -80.5 -11.5t-68 -17.5t-64.5 -15.5t-70 -6.5z" />
    <glyph glyph-name="G" unicode="&#x120;" horiz-adv-x="876" 
d="M419 -12q-67 0 -128.5 19.5t-109 58t-75.5 97t-28 136.5q0 98 43.5 185t116 152t167 103t196.5 38q34 0 68.5 -4t66 -11.5t58 -18t45.5 -22.5l-12 -223h-21l-62 163q-11 30 -22 43t-31 21q-17 8 -39.5 10.5t-47.5 2.5q-82 0 -151 -36t-119.5 -99t-79 -150t-28.5 -189
q0 -112 51.5 -174t151.5 -62q35 0 72 7.5t72 24.5l80 213q9 25 -1 32.5t-34 8.5l-115 4l12 34h386l-13 -37l-90 -1l-77 -204l-19 -71q-45 -3 -80.5 -11.5t-68 -17.5t-64.5 -15.5t-70 -6.5z" />
    <glyph glyph-name="G" unicode="&#x11e;" horiz-adv-x="876" 
d="M419 -12q-67 0 -128.5 19.5t-109 58t-75.5 97t-28 136.5q0 98 43.5 185t116 152t167 103t196.5 38q34 0 68.5 -4t66 -11.5t58 -18t45.5 -22.5l-12 -223h-21l-62 163q-11 30 -22 43t-31 21q-17 8 -39.5 10.5t-47.5 2.5q-82 0 -151 -36t-119.5 -99t-79 -150t-28.5 -189
q0 -112 51.5 -174t151.5 -62q35 0 72 7.5t72 24.5l80 213q9 25 -1 32.5t-34 8.5l-115 4l12 34h386l-13 -37l-90 -1l-77 -204l-19 -71q-45 -3 -80.5 -11.5t-68 -17.5t-64.5 -15.5t-70 -6.5z" />
    <glyph glyph-name="G" unicode="&#x11c;" horiz-adv-x="876" 
d="M419 -12q-67 0 -128.5 19.5t-109 58t-75.5 97t-28 136.5q0 98 43.5 185t116 152t167 103t196.5 38q34 0 68.5 -4t66 -11.5t58 -18t45.5 -22.5l-12 -223h-21l-62 163q-11 30 -22 43t-31 21q-17 8 -39.5 10.5t-47.5 2.5q-82 0 -151 -36t-119.5 -99t-79 -150t-28.5 -189
q0 -112 51.5 -174t151.5 -62q35 0 72 7.5t72 24.5l80 213q9 25 -1 32.5t-34 8.5l-115 4l12 34h386l-13 -37l-90 -1l-77 -204l-19 -71q-45 -3 -80.5 -11.5t-68 -17.5t-64.5 -15.5t-70 -6.5z" />
    <glyph glyph-name="H" unicode="H" horiz-adv-x="904" 
d="M-17 30l41 3q25 2 40 9.5t23 33.5l185 606q8 26 -2.5 33.5t-33.5 9.5l-39 3l9 30h309l-9 -30l-42 -3q-25 -2 -39.5 -9.5t-22.5 -33.5l-79 -260h365l80 260q8 26 -3 33.5t-34 9.5l-39 3l9 30h309l-9 -30l-41 -3q-26 -2 -40.5 -9.5t-22.5 -33.5l-186 -606q-8 -26 3 -33.5
t34 -9.5l39 -3l-9 -30h-309l9 30l41 3q25 2 40 9.5t23 33.5l91 297h-365l-92 -297q-8 -26 2.5 -33.5t34.5 -9.5l39 -3l-9 -30h-309z" />
    <glyph glyph-name="H" unicode="&#x126;" horiz-adv-x="904" 
d="M-17 30l41 3q25 2 40 9.5t23 33.5l185 606q8 26 -2.5 33.5t-33.5 9.5l-39 3l9 30h309l-9 -30l-42 -3q-25 -2 -39.5 -9.5t-22.5 -33.5l-79 -260h365l80 260q8 26 -3 33.5t-34 9.5l-39 3l9 30h309l-9 -30l-41 -3q-26 -2 -40.5 -9.5t-22.5 -33.5l-186 -606q-8 -26 3 -33.5
t34 -9.5l39 -3l-9 -30h-309l9 30l41 3q25 2 40 9.5t23 33.5l91 297h-365l-92 -297q-8 -26 2.5 -33.5t34.5 -9.5l39 -3l-9 -30h-309z" />
    <glyph glyph-name="H" unicode="&#x124;" horiz-adv-x="904" 
d="M-17 30l41 3q25 2 40 9.5t23 33.5l185 606q8 26 -2.5 33.5t-33.5 9.5l-39 3l9 30h309l-9 -30l-42 -3q-25 -2 -39.5 -9.5t-22.5 -33.5l-79 -260h365l80 260q8 26 -3 33.5t-34 9.5l-39 3l9 30h309l-9 -30l-41 -3q-26 -2 -40.5 -9.5t-22.5 -33.5l-186 -606q-8 -26 3 -33.5
t34 -9.5l39 -3l-9 -30h-309l9 30l41 3q25 2 40 9.5t23 33.5l91 297h-365l-92 -297q-8 -26 2.5 -33.5t34.5 -9.5l39 -3l-9 -30h-309z" />
    <glyph glyph-name="I" unicode="I" horiz-adv-x="409" 
d="M-17 30l41 3q25 2 40 9.5t23 33.5l185 606q8 26 -2.5 33.5t-33.5 9.5l-39 3l9 30h309l-9 -30l-42 -3q-25 -2 -39.5 -9.5t-22.5 -33.5l-186 -606q-8 -26 2.5 -33.5t34.5 -9.5l39 -3l-9 -30h-309z" />
    <glyph glyph-name="I" unicode="&#x1eca;" horiz-adv-x="409" 
d="M-17 30l41 3q25 2 40 9.5t23 33.5l185 606q8 26 -2.5 33.5t-33.5 9.5l-39 3l9 30h309l-9 -30l-42 -3q-25 -2 -39.5 -9.5t-22.5 -33.5l-186 -606q-8 -26 2.5 -33.5t34.5 -9.5l39 -3l-9 -30h-309z" />
    <glyph glyph-name="I" unicode="&#x130;" horiz-adv-x="409" 
d="M-17 30l41 3q25 2 40 9.5t23 33.5l185 606q8 26 -2.5 33.5t-33.5 9.5l-39 3l9 30h309l-9 -30l-42 -3q-25 -2 -39.5 -9.5t-22.5 -33.5l-186 -606q-8 -26 2.5 -33.5t34.5 -9.5l39 -3l-9 -30h-309z" />
    <glyph glyph-name="I" unicode="&#x12e;" horiz-adv-x="409" 
d="M-17 30l41 3q25 2 40 9.5t23 33.5l185 606q8 26 -2.5 33.5t-33.5 9.5l-39 3l9 30h309l-9 -30l-42 -3q-25 -2 -39.5 -9.5t-22.5 -33.5l-186 -606q-8 -26 2.5 -33.5t34.5 -9.5l39 -3l-9 -30h-309z" />
    <glyph glyph-name="I" unicode="&#x12c;" horiz-adv-x="409" 
d="M-17 30l41 3q25 2 40 9.5t23 33.5l185 606q8 26 -2.5 33.5t-33.5 9.5l-39 3l9 30h309l-9 -30l-42 -3q-25 -2 -39.5 -9.5t-22.5 -33.5l-186 -606q-8 -26 2.5 -33.5t34.5 -9.5l39 -3l-9 -30h-309z" />
    <glyph glyph-name="I" unicode="&#x12a;" horiz-adv-x="409" 
d="M-17 30l41 3q25 2 40 9.5t23 33.5l185 606q8 26 -2.5 33.5t-33.5 9.5l-39 3l9 30h309l-9 -30l-42 -3q-25 -2 -39.5 -9.5t-22.5 -33.5l-186 -606q-8 -26 2.5 -33.5t34.5 -9.5l39 -3l-9 -30h-309z" />
    <glyph glyph-name="I" unicode="&#x128;" horiz-adv-x="409" 
d="M-17 30l41 3q25 2 40 9.5t23 33.5l185 606q8 26 -2.5 33.5t-33.5 9.5l-39 3l9 30h309l-9 -30l-42 -3q-25 -2 -39.5 -9.5t-22.5 -33.5l-186 -606q-8 -26 2.5 -33.5t34.5 -9.5l39 -3l-9 -30h-309z" />
    <glyph glyph-name="I" unicode="&#xcf;" horiz-adv-x="409" 
d="M-17 30l41 3q25 2 40 9.5t23 33.5l185 606q8 26 -2.5 33.5t-33.5 9.5l-39 3l9 30h309l-9 -30l-42 -3q-25 -2 -39.5 -9.5t-22.5 -33.5l-186 -606q-8 -26 2.5 -33.5t34.5 -9.5l39 -3l-9 -30h-309z" />
    <glyph glyph-name="I" unicode="&#xce;" horiz-adv-x="409" 
d="M-17 30l41 3q25 2 40 9.5t23 33.5l185 606q8 26 -2.5 33.5t-33.5 9.5l-39 3l9 30h309l-9 -30l-42 -3q-25 -2 -39.5 -9.5t-22.5 -33.5l-186 -606q-8 -26 2.5 -33.5t34.5 -9.5l39 -3l-9 -30h-309z" />
    <glyph glyph-name="I" unicode="&#xcd;" horiz-adv-x="409" 
d="M-17 30l41 3q25 2 40 9.5t23 33.5l185 606q8 26 -2.5 33.5t-33.5 9.5l-39 3l9 30h309l-9 -30l-42 -3q-25 -2 -39.5 -9.5t-22.5 -33.5l-186 -606q-8 -26 2.5 -33.5t34.5 -9.5l39 -3l-9 -30h-309z" />
    <glyph glyph-name="I" unicode="&#xcc;" horiz-adv-x="409" 
d="M-17 30l41 3q25 2 40 9.5t23 33.5l185 606q8 26 -2.5 33.5t-33.5 9.5l-39 3l9 30h309l-9 -30l-42 -3q-25 -2 -39.5 -9.5t-22.5 -33.5l-186 -606q-8 -26 2.5 -33.5t34.5 -9.5l39 -3l-9 -30h-309z" />
    <glyph glyph-name="J" unicode="J" horiz-adv-x="407" 
d="M-104 -80q59 36 96.5 61t61.5 49.5t39 54.5t29 76l160 524q8 24 -2.5 30t-33.5 7l-47 2l11 34h319l-11 -34l-47 -2q-25 -1 -38 -7t-21 -30l-151 -491q-12 -41 -25 -69.5t-31 -51.5t-44 -43t-64 -43q-15 -9 -38 -21t-49 -25l-52 -26t-47 -24z" />
    <glyph glyph-name="J" unicode="&#x134;" horiz-adv-x="407" 
d="M-104 -80q59 36 96.5 61t61.5 49.5t39 54.5t29 76l160 524q8 24 -2.5 30t-33.5 7l-47 2l11 34h319l-11 -34l-47 -2q-25 -1 -38 -7t-21 -30l-151 -491q-12 -41 -25 -69.5t-31 -51.5t-44 -43t-64 -43q-15 -9 -38 -21t-49 -25l-52 -26t-47 -24z" />
    <glyph glyph-name="K" unicode="K" horiz-adv-x="843" 
d="M-17 30l41 3q25 2 40 9.5t23 33.5l185 606q8 26 -2.5 33.5t-33.5 9.5l-39 3l9 30h309l-9 -30l-42 -3q-25 -2 -39.5 -9.5t-22.5 -33.5l-93 -304l462 320q14 10 11.5 18t-25.5 9l-68 3l10 30h287l-9 -30l-52 -3q-32 -2 -51.5 -9.5t-42.5 -22.5l-396 -274l345 -419h-160
l-313 371l-91 -295q-8 -26 2.5 -33.5t34.5 -9.5l39 -3l-9 -30h-309z" />
    <glyph glyph-name="K" unicode="&#x136;" horiz-adv-x="843" 
d="M-17 30l41 3q25 2 40 9.5t23 33.5l185 606q8 26 -2.5 33.5t-33.5 9.5l-39 3l9 30h309l-9 -30l-42 -3q-25 -2 -39.5 -9.5t-22.5 -33.5l-93 -304l462 320q14 10 11.5 18t-25.5 9l-68 3l10 30h287l-9 -30l-52 -3q-32 -2 -51.5 -9.5t-42.5 -22.5l-396 -274l345 -419h-160
l-313 371l-91 -295q-8 -26 2.5 -33.5t34.5 -9.5l39 -3l-9 -30h-309z" />
    <glyph glyph-name="L" unicode="L" horiz-adv-x="714" 
d="M-17 30l41 3q25 2 40 9.5t23 33.5l186 606q8 26 -3 33.5t-34 9.5l-39 3l9 30h309l-9 -30l-41 -3q-26 -2 -40.5 -9.5t-22.5 -33.5l-197 -643h222q13 0 18.5 2.5t15.5 11.5l221 194h21l-144 -247h-585z" />
    <glyph glyph-name="L" unicode="&#x141;" horiz-adv-x="714" 
d="M-17 30l41 3q25 2 40 9.5t23 33.5l186 606q8 26 -3 33.5t-34 9.5l-39 3l9 30h309l-9 -30l-41 -3q-26 -2 -40.5 -9.5t-22.5 -33.5l-197 -643h222q13 0 18.5 2.5t15.5 11.5l221 194h21l-144 -247h-585z" />
    <glyph glyph-name="L" unicode="&#x13f;" horiz-adv-x="714" 
d="M-17 30l41 3q25 2 40 9.5t23 33.5l186 606q8 26 -3 33.5t-34 9.5l-39 3l9 30h309l-9 -30l-41 -3q-26 -2 -40.5 -9.5t-22.5 -33.5l-197 -643h222q13 0 18.5 2.5t15.5 11.5l221 194h21l-144 -247h-585z" />
    <glyph glyph-name="L" unicode="&#x13d;" horiz-adv-x="714" 
d="M-17 30l41 3q25 2 40 9.5t23 33.5l186 606q8 26 -3 33.5t-34 9.5l-39 3l9 30h309l-9 -30l-41 -3q-26 -2 -40.5 -9.5t-22.5 -33.5l-197 -643h222q13 0 18.5 2.5t15.5 11.5l221 194h21l-144 -247h-585z" />
    <glyph glyph-name="L" unicode="&#x13b;" horiz-adv-x="714" 
d="M-17 30l41 3q25 2 40 9.5t23 33.5l186 606q8 26 -3 33.5t-34 9.5l-39 3l9 30h309l-9 -30l-41 -3q-26 -2 -40.5 -9.5t-22.5 -33.5l-197 -643h222q13 0 18.5 2.5t15.5 11.5l221 194h21l-144 -247h-585z" />
    <glyph glyph-name="L" unicode="&#x139;" horiz-adv-x="714" 
d="M-17 30l41 3q25 2 40 9.5t23 33.5l186 606q8 26 -3 33.5t-34 9.5l-39 3l9 30h309l-9 -30l-41 -3q-26 -2 -40.5 -9.5t-22.5 -33.5l-197 -643h222q13 0 18.5 2.5t15.5 11.5l221 194h21l-144 -247h-585z" />
    <glyph glyph-name="M" unicode="M" horiz-adv-x="1037" 
d="M-17 30l41 3q25 2 40 9.5t23 33.5l185 606q8 26 -2.5 33.5t-33.5 9.5l-39 3l9 30h240l88 -454l361 454h248l-9 -30l-41 -3q-26 -2 -40.5 -9.5t-22.5 -33.5l-186 -606q-8 -26 2.5 -33.5t34.5 -9.5l39 -3l-9 -30h-309l9 30l41 3q25 2 40 9.5t23 33.5l192 631l-465 -588h-6
l-110 586l-192 -629q-8 -26 2.5 -33.5t33.5 -9.5l39 -3l-9 -30h-226z" />
    <glyph glyph-name="N" unicode="N" horiz-adv-x="883" 
d="M315 667l-182 -591q-8 -26 3 -33.5t34 -9.5l39 -3l-9 -30h-226l9 30l41 3q25 2 39.5 9.5t22.5 33.5l187 606q8 26 -3 33.5t-34 9.5l-39 3l9 30h208l280 -545l145 469q8 26 -3 33.5t-34 9.5l-39 3l10 30h226l-10 -30l-41 -3q-25 -2 -39.5 -9.5t-22.5 -33.5l-214 -700h-4z
" />
    <glyph glyph-name="N" unicode="&#x14a;" horiz-adv-x="883" 
d="M315 667l-182 -591q-8 -26 3 -33.5t34 -9.5l39 -3l-9 -30h-226l9 30l41 3q25 2 39.5 9.5t22.5 33.5l187 606q8 26 -3 33.5t-34 9.5l-39 3l9 30h208l280 -545l145 469q8 26 -3 33.5t-34 9.5l-39 3l10 30h226l-10 -30l-41 -3q-25 -2 -39.5 -9.5t-22.5 -33.5l-214 -700h-4z
" />
    <glyph glyph-name="N" unicode="&#x147;" horiz-adv-x="883" 
d="M315 667l-182 -591q-8 -26 3 -33.5t34 -9.5l39 -3l-9 -30h-226l9 30l41 3q25 2 39.5 9.5t22.5 33.5l187 606q8 26 -3 33.5t-34 9.5l-39 3l9 30h208l280 -545l145 469q8 26 -3 33.5t-34 9.5l-39 3l10 30h226l-10 -30l-41 -3q-25 -2 -39.5 -9.5t-22.5 -33.5l-214 -700h-4z
" />
    <glyph glyph-name="N" unicode="&#x145;" horiz-adv-x="883" 
d="M315 667l-182 -591q-8 -26 3 -33.5t34 -9.5l39 -3l-9 -30h-226l9 30l41 3q25 2 39.5 9.5t22.5 33.5l187 606q8 26 -3 33.5t-34 9.5l-39 3l9 30h208l280 -545l145 469q8 26 -3 33.5t-34 9.5l-39 3l10 30h226l-10 -30l-41 -3q-25 -2 -39.5 -9.5t-22.5 -33.5l-214 -700h-4z
" />
    <glyph glyph-name="N" unicode="&#x143;" horiz-adv-x="883" 
d="M315 667l-182 -591q-8 -26 3 -33.5t34 -9.5l39 -3l-9 -30h-226l9 30l41 3q25 2 39.5 9.5t22.5 33.5l187 606q8 26 -3 33.5t-34 9.5l-39 3l9 30h208l280 -545l145 469q8 26 -3 33.5t-34 9.5l-39 3l10 30h226l-10 -30l-41 -3q-25 -2 -39.5 -9.5t-22.5 -33.5l-214 -700h-4z
" />
    <glyph glyph-name="N" unicode="&#xd1;" horiz-adv-x="883" 
d="M315 667l-182 -591q-8 -26 3 -33.5t34 -9.5l39 -3l-9 -30h-226l9 30l41 3q25 2 39.5 9.5t22.5 33.5l187 606q8 26 -3 33.5t-34 9.5l-39 3l9 30h208l280 -545l145 469q8 26 -3 33.5t-34 9.5l-39 3l10 30h226l-10 -30l-41 -3q-25 -2 -39.5 -9.5t-22.5 -33.5l-214 -700h-4z
" />
    <glyph glyph-name="O" unicode="O" 
d="M371 -12q-63 0 -118 18.5t-96 54t-64.5 88t-23.5 120.5q0 56 17.5 115.5t50 116t79 106.5t104.5 88t127 60t146 22q63 0 118 -18.5t96 -54.5t64.5 -88.5t23.5 -120.5q0 -56 -17.5 -115.5t-50 -115.5t-79 -106.5t-104.5 -88t-127 -59.5t-146 -22zM394 23q69 0 132.5 37.5
t112 101.5t77.5 149.5t29 181.5q0 55 -10.5 100.5t-32 78.5t-54.5 51t-78 18q-69 0 -132.5 -37.5t-112 -101.5t-77.5 -149.5t-29 -181.5q0 -55 10.5 -100.5t32 -78.5t54.5 -51t78 -18z" />
    <glyph glyph-name="O" unicode="&#x1ecc;" 
d="M371 -12q-63 0 -118 18.5t-96 54t-64.5 88t-23.5 120.5q0 56 17.5 115.5t50 116t79 106.5t104.5 88t127 60t146 22q63 0 118 -18.5t96 -54.5t64.5 -88.5t23.5 -120.5q0 -56 -17.5 -115.5t-50 -115.5t-79 -106.5t-104.5 -88t-127 -59.5t-146 -22zM394 23q69 0 132.5 37.5
t112 101.5t77.5 149.5t29 181.5q0 55 -10.5 100.5t-32 78.5t-54.5 51t-78 18q-69 0 -132.5 -37.5t-112 -101.5t-77.5 -149.5t-29 -181.5q0 -55 10.5 -100.5t32 -78.5t54.5 -51t78 -18z" />
    <glyph glyph-name="O" unicode="&#x152;" 
d="M371 -12q-63 0 -118 18.5t-96 54t-64.5 88t-23.5 120.5q0 56 17.5 115.5t50 116t79 106.5t104.5 88t127 60t146 22q63 0 118 -18.5t96 -54.5t64.5 -88.5t23.5 -120.5q0 -56 -17.5 -115.5t-50 -115.5t-79 -106.5t-104.5 -88t-127 -59.5t-146 -22zM394 23q69 0 132.5 37.5
t112 101.5t77.5 149.5t29 181.5q0 55 -10.5 100.5t-32 78.5t-54.5 51t-78 18q-69 0 -132.5 -37.5t-112 -101.5t-77.5 -149.5t-29 -181.5q0 -55 10.5 -100.5t32 -78.5t54.5 -51t78 -18z" />
    <glyph glyph-name="O" unicode="&#x150;" 
d="M371 -12q-63 0 -118 18.5t-96 54t-64.5 88t-23.5 120.5q0 56 17.5 115.5t50 116t79 106.5t104.5 88t127 60t146 22q63 0 118 -18.5t96 -54.5t64.5 -88.5t23.5 -120.5q0 -56 -17.5 -115.5t-50 -115.5t-79 -106.5t-104.5 -88t-127 -59.5t-146 -22zM394 23q69 0 132.5 37.5
t112 101.5t77.5 149.5t29 181.5q0 55 -10.5 100.5t-32 78.5t-54.5 51t-78 18q-69 0 -132.5 -37.5t-112 -101.5t-77.5 -149.5t-29 -181.5q0 -55 10.5 -100.5t32 -78.5t54.5 -51t78 -18z" />
    <glyph glyph-name="O" unicode="&#x14e;" 
d="M371 -12q-63 0 -118 18.5t-96 54t-64.5 88t-23.5 120.5q0 56 17.5 115.5t50 116t79 106.5t104.5 88t127 60t146 22q63 0 118 -18.5t96 -54.5t64.5 -88.5t23.5 -120.5q0 -56 -17.5 -115.5t-50 -115.5t-79 -106.5t-104.5 -88t-127 -59.5t-146 -22zM394 23q69 0 132.5 37.5
t112 101.5t77.5 149.5t29 181.5q0 55 -10.5 100.5t-32 78.5t-54.5 51t-78 18q-69 0 -132.5 -37.5t-112 -101.5t-77.5 -149.5t-29 -181.5q0 -55 10.5 -100.5t32 -78.5t54.5 -51t78 -18z" />
    <glyph glyph-name="O" unicode="&#x14c;" 
d="M371 -12q-63 0 -118 18.5t-96 54t-64.5 88t-23.5 120.5q0 56 17.5 115.5t50 116t79 106.5t104.5 88t127 60t146 22q63 0 118 -18.5t96 -54.5t64.5 -88.5t23.5 -120.5q0 -56 -17.5 -115.5t-50 -115.5t-79 -106.5t-104.5 -88t-127 -59.5t-146 -22zM394 23q69 0 132.5 37.5
t112 101.5t77.5 149.5t29 181.5q0 55 -10.5 100.5t-32 78.5t-54.5 51t-78 18q-69 0 -132.5 -37.5t-112 -101.5t-77.5 -149.5t-29 -181.5q0 -55 10.5 -100.5t32 -78.5t54.5 -51t78 -18z" />
    <glyph glyph-name="O" unicode="&#xd8;" 
d="M371 -12q-63 0 -118 18.5t-96 54t-64.5 88t-23.5 120.5q0 56 17.5 115.5t50 116t79 106.5t104.5 88t127 60t146 22q63 0 118 -18.5t96 -54.5t64.5 -88.5t23.5 -120.5q0 -56 -17.5 -115.5t-50 -115.5t-79 -106.5t-104.5 -88t-127 -59.5t-146 -22zM394 23q69 0 132.5 37.5
t112 101.5t77.5 149.5t29 181.5q0 55 -10.5 100.5t-32 78.5t-54.5 51t-78 18q-69 0 -132.5 -37.5t-112 -101.5t-77.5 -149.5t-29 -181.5q0 -55 10.5 -100.5t32 -78.5t54.5 -51t78 -18z" />
    <glyph glyph-name="O" unicode="&#xd6;" 
d="M371 -12q-63 0 -118 18.5t-96 54t-64.5 88t-23.5 120.5q0 56 17.5 115.5t50 116t79 106.5t104.5 88t127 60t146 22q63 0 118 -18.5t96 -54.5t64.5 -88.5t23.5 -120.5q0 -56 -17.5 -115.5t-50 -115.5t-79 -106.5t-104.5 -88t-127 -59.5t-146 -22zM394 23q69 0 132.5 37.5
t112 101.5t77.5 149.5t29 181.5q0 55 -10.5 100.5t-32 78.5t-54.5 51t-78 18q-69 0 -132.5 -37.5t-112 -101.5t-77.5 -149.5t-29 -181.5q0 -55 10.5 -100.5t32 -78.5t54.5 -51t78 -18z" />
    <glyph glyph-name="O" unicode="&#xd5;" 
d="M371 -12q-63 0 -118 18.5t-96 54t-64.5 88t-23.5 120.5q0 56 17.5 115.5t50 116t79 106.5t104.5 88t127 60t146 22q63 0 118 -18.5t96 -54.5t64.5 -88.5t23.5 -120.5q0 -56 -17.5 -115.5t-50 -115.5t-79 -106.5t-104.5 -88t-127 -59.5t-146 -22zM394 23q69 0 132.5 37.5
t112 101.5t77.5 149.5t29 181.5q0 55 -10.5 100.5t-32 78.5t-54.5 51t-78 18q-69 0 -132.5 -37.5t-112 -101.5t-77.5 -149.5t-29 -181.5q0 -55 10.5 -100.5t32 -78.5t54.5 -51t78 -18z" />
    <glyph glyph-name="O" unicode="&#xd4;" 
d="M371 -12q-63 0 -118 18.5t-96 54t-64.5 88t-23.5 120.5q0 56 17.5 115.5t50 116t79 106.5t104.5 88t127 60t146 22q63 0 118 -18.5t96 -54.5t64.5 -88.5t23.5 -120.5q0 -56 -17.5 -115.5t-50 -115.5t-79 -106.5t-104.5 -88t-127 -59.5t-146 -22zM394 23q69 0 132.5 37.5
t112 101.5t77.5 149.5t29 181.5q0 55 -10.5 100.5t-32 78.5t-54.5 51t-78 18q-69 0 -132.5 -37.5t-112 -101.5t-77.5 -149.5t-29 -181.5q0 -55 10.5 -100.5t32 -78.5t54.5 -51t78 -18z" />
    <glyph glyph-name="O" unicode="&#xd3;" 
d="M371 -12q-63 0 -118 18.5t-96 54t-64.5 88t-23.5 120.5q0 56 17.5 115.5t50 116t79 106.5t104.5 88t127 60t146 22q63 0 118 -18.5t96 -54.5t64.5 -88.5t23.5 -120.5q0 -56 -17.5 -115.5t-50 -115.5t-79 -106.5t-104.5 -88t-127 -59.5t-146 -22zM394 23q69 0 132.5 37.5
t112 101.5t77.5 149.5t29 181.5q0 55 -10.5 100.5t-32 78.5t-54.5 51t-78 18q-69 0 -132.5 -37.5t-112 -101.5t-77.5 -149.5t-29 -181.5q0 -55 10.5 -100.5t32 -78.5t54.5 -51t78 -18z" />
    <glyph glyph-name="O" unicode="&#xd2;" 
d="M371 -12q-63 0 -118 18.5t-96 54t-64.5 88t-23.5 120.5q0 56 17.5 115.5t50 116t79 106.5t104.5 88t127 60t146 22q63 0 118 -18.5t96 -54.5t64.5 -88.5t23.5 -120.5q0 -56 -17.5 -115.5t-50 -115.5t-79 -106.5t-104.5 -88t-127 -59.5t-146 -22zM394 23q69 0 132.5 37.5
t112 101.5t77.5 149.5t29 181.5q0 55 -10.5 100.5t-32 78.5t-54.5 51t-78 18q-69 0 -132.5 -37.5t-112 -101.5t-77.5 -149.5t-29 -181.5q0 -55 10.5 -100.5t32 -78.5t54.5 -51t78 -18z" />
    <glyph glyph-name="P" unicode="P" horiz-adv-x="732" 
d="M-17 30l41 3q25 2 40 9.5t23 33.5l185 606q8 26 -2.5 33.5t-33.5 9.5l-39 3l9 30h313q61 0 114 -7t91 -24.5t60 -47t22 -74.5q0 -54 -25.5 -101t-76 -82.5t-126.5 -56t-176 -20.5h-78l12 38h72q66 0 114 20t79 52t46 72.5t15 81.5q0 60 -39.5 86t-112.5 26h-97l-197 -645
q-8 -26 2.5 -32.5t34.5 -8.5l78 -4l-10 -31h-347z" />
    <glyph glyph-name="P" unicode="&#xde;" horiz-adv-x="732" 
d="M-17 30l41 3q25 2 40 9.5t23 33.5l185 606q8 26 -2.5 33.5t-33.5 9.5l-39 3l9 30h313q61 0 114 -7t91 -24.5t60 -47t22 -74.5q0 -54 -25.5 -101t-76 -82.5t-126.5 -56t-176 -20.5h-78l12 38h72q66 0 114 20t79 52t46 72.5t15 81.5q0 60 -39.5 86t-112.5 26h-97l-197 -645
q-8 -26 2.5 -32.5t34.5 -8.5l78 -4l-10 -31h-347z" />
    <glyph glyph-name="Q" unicode="Q" 
d="M371 -12q-11 0 -20.5 0.5t-19.5 1.5l-202 -72q29 8 58.5 10.5t45.5 2.5q58 0 101 -11.5t78 -26t67.5 -26t69.5 -11.5q45 0 86.5 23t83.5 81l26 -16q-56 -89 -118 -141t-120 -52q-50 0 -89.5 24t-77 53t-75.5 53t-85 24q-16 0 -31 -2.5t-29 -8.5q-9 -34 -24 -47t-32 -13
q-12 0 -19.5 7.5t-7.5 18.5q0 23 32 48t115 55l98 36q-47 11 -86 33.5t-67 56.5t-44 79t-16 101t17.5 115.5t50 116t79 106.5t104.5 88t127 60t146 22q63 0 118 -18.5t96 -54.5t64.5 -88.5t23.5 -120.5q0 -56 -17.5 -115.5t-50 -115.5t-79 -106.5t-104.5 -88t-127 -59.5
t-146 -22zM394 23q69 0 132.5 37.5t112 101.5t77.5 149.5t29 181.5q0 55 -10.5 100.5t-32 78.5t-54.5 51t-78 18q-69 0 -132.5 -37.5t-112 -101.5t-77.5 -149.5t-29 -181.5q0 -55 10.5 -100.5t32 -78.5t54.5 -51t78 -18z" />
    <glyph glyph-name="R" unicode="R" horiz-adv-x="791" 
d="M-17 30l41 3q25 2 40 9.5t23 33.5l185 606q8 26 -2.5 33.5t-33.5 9.5l-39 3l9 30h292q65 0 117 -9t88.5 -27.5t56 -47t19.5 -67.5q0 -44 -20 -81t-56 -65t-86.5 -47t-111.5 -27l253 -387h-150l-238 371h-63l-91 -295q-8 -26 2.5 -33.5t34.5 -9.5l39 -3l-9 -30h-309z
M394 409q60 0 105.5 17.5t76 46.5t45.5 65.5t15 75.5q0 56 -38 81.5t-110 25.5h-75l-94 -312h75z" />
    <glyph glyph-name="R" unicode="&#x158;" horiz-adv-x="791" 
d="M-17 30l41 3q25 2 40 9.5t23 33.5l185 606q8 26 -2.5 33.5t-33.5 9.5l-39 3l9 30h292q65 0 117 -9t88.5 -27.5t56 -47t19.5 -67.5q0 -44 -20 -81t-56 -65t-86.5 -47t-111.5 -27l253 -387h-150l-238 371h-63l-91 -295q-8 -26 2.5 -33.5t34.5 -9.5l39 -3l-9 -30h-309z
M394 409q60 0 105.5 17.5t76 46.5t45.5 65.5t15 75.5q0 56 -38 81.5t-110 25.5h-75l-94 -312h75z" />
    <glyph glyph-name="R" unicode="&#x156;" horiz-adv-x="791" 
d="M-17 30l41 3q25 2 40 9.5t23 33.5l185 606q8 26 -2.5 33.5t-33.5 9.5l-39 3l9 30h292q65 0 117 -9t88.5 -27.5t56 -47t19.5 -67.5q0 -44 -20 -81t-56 -65t-86.5 -47t-111.5 -27l253 -387h-150l-238 371h-63l-91 -295q-8 -26 2.5 -33.5t34.5 -9.5l39 -3l-9 -30h-309z
M394 409q60 0 105.5 17.5t76 46.5t45.5 65.5t15 75.5q0 56 -38 81.5t-110 25.5h-75l-94 -312h75z" />
    <glyph glyph-name="R" unicode="&#x154;" horiz-adv-x="791" 
d="M-17 30l41 3q25 2 40 9.5t23 33.5l185 606q8 26 -2.5 33.5t-33.5 9.5l-39 3l9 30h292q65 0 117 -9t88.5 -27.5t56 -47t19.5 -67.5q0 -44 -20 -81t-56 -65t-86.5 -47t-111.5 -27l253 -387h-150l-238 371h-63l-91 -295q-8 -26 2.5 -33.5t34.5 -9.5l39 -3l-9 -30h-309z
M394 409q60 0 105.5 17.5t76 46.5t45.5 65.5t15 75.5q0 56 -38 81.5t-110 25.5h-75l-94 -312h75z" />
    <glyph glyph-name="S" unicode="S" horiz-adv-x="617" 
d="M209 -12q-49 0 -107 12.5t-105 40.5l59 222h21l25 -177q3 -20 9.5 -29t15.5 -14q16 -8 41 -13t55 -5q36 0 71.5 9t64 27t46.5 44.5t18 61.5q0 39 -20.5 76t-65.5 87l-60 66q-32 35 -53 75t-21 86t23.5 86t63 70t92 47t110.5 17q54 0 102 -12t82 -35l-40 -206h-21l-43 161
q-5 18 -10.5 27t-14.5 14q-11 6 -27 9t-32 3q-33 0 -64 -7.5t-55 -22.5t-38.5 -37t-14.5 -51q0 -36 17.5 -66t44.5 -59l62 -68q26 -29 45 -52.5t31.5 -45.5t18.5 -44.5t6 -47.5q0 -52 -25.5 -97.5t-70.5 -79t-105.5 -53t-130.5 -19.5z" />
    <glyph glyph-name="S" unicode="&#x218;" horiz-adv-x="617" 
d="M209 -12q-49 0 -107 12.5t-105 40.5l59 222h21l25 -177q3 -20 9.5 -29t15.5 -14q16 -8 41 -13t55 -5q36 0 71.5 9t64 27t46.5 44.5t18 61.5q0 39 -20.5 76t-65.5 87l-60 66q-32 35 -53 75t-21 86t23.5 86t63 70t92 47t110.5 17q54 0 102 -12t82 -35l-40 -206h-21l-43 161
q-5 18 -10.5 27t-14.5 14q-11 6 -27 9t-32 3q-33 0 -64 -7.5t-55 -22.5t-38.5 -37t-14.5 -51q0 -36 17.5 -66t44.5 -59l62 -68q26 -29 45 -52.5t31.5 -45.5t18.5 -44.5t6 -47.5q0 -52 -25.5 -97.5t-70.5 -79t-105.5 -53t-130.5 -19.5z" />
    <glyph glyph-name="S" unicode="&#x160;" horiz-adv-x="617" 
d="M209 -12q-49 0 -107 12.5t-105 40.5l59 222h21l25 -177q3 -20 9.5 -29t15.5 -14q16 -8 41 -13t55 -5q36 0 71.5 9t64 27t46.5 44.5t18 61.5q0 39 -20.5 76t-65.5 87l-60 66q-32 35 -53 75t-21 86t23.5 86t63 70t92 47t110.5 17q54 0 102 -12t82 -35l-40 -206h-21l-43 161
q-5 18 -10.5 27t-14.5 14q-11 6 -27 9t-32 3q-33 0 -64 -7.5t-55 -22.5t-38.5 -37t-14.5 -51q0 -36 17.5 -66t44.5 -59l62 -68q26 -29 45 -52.5t31.5 -45.5t18.5 -44.5t6 -47.5q0 -52 -25.5 -97.5t-70.5 -79t-105.5 -53t-130.5 -19.5z" />
    <glyph glyph-name="S" unicode="&#x15e;" horiz-adv-x="617" 
d="M209 -12q-49 0 -107 12.5t-105 40.5l59 222h21l25 -177q3 -20 9.5 -29t15.5 -14q16 -8 41 -13t55 -5q36 0 71.5 9t64 27t46.5 44.5t18 61.5q0 39 -20.5 76t-65.5 87l-60 66q-32 35 -53 75t-21 86t23.5 86t63 70t92 47t110.5 17q54 0 102 -12t82 -35l-40 -206h-21l-43 161
q-5 18 -10.5 27t-14.5 14q-11 6 -27 9t-32 3q-33 0 -64 -7.5t-55 -22.5t-38.5 -37t-14.5 -51q0 -36 17.5 -66t44.5 -59l62 -68q26 -29 45 -52.5t31.5 -45.5t18.5 -44.5t6 -47.5q0 -52 -25.5 -97.5t-70.5 -79t-105.5 -53t-130.5 -19.5z" />
    <glyph glyph-name="S" unicode="&#x15c;" horiz-adv-x="617" 
d="M209 -12q-49 0 -107 12.5t-105 40.5l59 222h21l25 -177q3 -20 9.5 -29t15.5 -14q16 -8 41 -13t55 -5q36 0 71.5 9t64 27t46.5 44.5t18 61.5q0 39 -20.5 76t-65.5 87l-60 66q-32 35 -53 75t-21 86t23.5 86t63 70t92 47t110.5 17q54 0 102 -12t82 -35l-40 -206h-21l-43 161
q-5 18 -10.5 27t-14.5 14q-11 6 -27 9t-32 3q-33 0 -64 -7.5t-55 -22.5t-38.5 -37t-14.5 -51q0 -36 17.5 -66t44.5 -59l62 -68q26 -29 45 -52.5t31.5 -45.5t18.5 -44.5t6 -47.5q0 -52 -25.5 -97.5t-70.5 -79t-105.5 -53t-130.5 -19.5z" />
    <glyph glyph-name="S" unicode="&#x15a;" horiz-adv-x="617" 
d="M209 -12q-49 0 -107 12.5t-105 40.5l59 222h21l25 -177q3 -20 9.5 -29t15.5 -14q16 -8 41 -13t55 -5q36 0 71.5 9t64 27t46.5 44.5t18 61.5q0 39 -20.5 76t-65.5 87l-60 66q-32 35 -53 75t-21 86t23.5 86t63 70t92 47t110.5 17q54 0 102 -12t82 -35l-40 -206h-21l-43 161
q-5 18 -10.5 27t-14.5 14q-11 6 -27 9t-32 3q-33 0 -64 -7.5t-55 -22.5t-38.5 -37t-14.5 -51q0 -36 17.5 -66t44.5 -59l62 -68q26 -29 45 -52.5t31.5 -45.5t18.5 -44.5t6 -47.5q0 -52 -25.5 -97.5t-70.5 -79t-105.5 -53t-130.5 -19.5z" />
    <glyph glyph-name="T" unicode="T" horiz-adv-x="771" 
d="M145 31l61 4q24 2 39 8.5t23 32.5l198 647h-136q-14 0 -21 -2.5t-17 -14.5l-173 -200h-21l100 252h687l-54 -252h-21l-39 200q-2 11 -8 14t-20 3h-148l-197 -647q-8 -26 2.5 -32.5t34.5 -8.5l59 -4l-10 -31h-349z" />
    <glyph glyph-name="T" unicode="&#x21a;" horiz-adv-x="771" 
d="M145 31l61 4q24 2 39 8.5t23 32.5l198 647h-136q-14 0 -21 -2.5t-17 -14.5l-173 -200h-21l100 252h687l-54 -252h-21l-39 200q-2 11 -8 14t-20 3h-148l-197 -647q-8 -26 2.5 -32.5t34.5 -8.5l59 -4l-10 -31h-349z" />
    <glyph glyph-name="T" unicode="&#x166;" horiz-adv-x="771" 
d="M145 31l61 4q24 2 39 8.5t23 32.5l198 647h-136q-14 0 -21 -2.5t-17 -14.5l-173 -200h-21l100 252h687l-54 -252h-21l-39 200q-2 11 -8 14t-20 3h-148l-197 -647q-8 -26 2.5 -32.5t34.5 -8.5l59 -4l-10 -31h-349z" />
    <glyph glyph-name="T" unicode="&#x164;" horiz-adv-x="771" 
d="M145 31l61 4q24 2 39 8.5t23 32.5l198 647h-136q-14 0 -21 -2.5t-17 -14.5l-173 -200h-21l100 252h687l-54 -252h-21l-39 200q-2 11 -8 14t-20 3h-148l-197 -647q-8 -26 2.5 -32.5t34.5 -8.5l59 -4l-10 -31h-349z" />
    <glyph glyph-name="T" unicode="&#x162;" horiz-adv-x="771" 
d="M145 31l61 4q24 2 39 8.5t23 32.5l198 647h-136q-14 0 -21 -2.5t-17 -14.5l-173 -200h-21l100 252h687l-54 -252h-21l-39 200q-2 11 -8 14t-20 3h-148l-197 -647q-8 -26 2.5 -32.5t34.5 -8.5l59 -4l-10 -31h-349z" />
    <glyph glyph-name="U" unicode="U" horiz-adv-x="864" 
d="M386 -12q-76 0 -134 18t-91.5 57t-40.5 99.5t19 144.5l114 375q8 26 -3 33.5t-34 9.5l-38 3l9 30h309l-9 -30l-41 -3q-26 -2 -40.5 -9.5t-22.5 -33.5l-119 -389q-39 -128 1.5 -184t150.5 -56q114 0 187.5 61.5t112.5 189.5l116 378q8 26 -3 33.5t-34 9.5l-47 3l9 30h234
l-9 -30l-41 -3q-26 -2 -40 -9.5t-22 -33.5l-119 -385q-23 -76 -56.5 -133.5t-79 -96.5t-104.5 -59t-134 -20z" />
    <glyph glyph-name="U" unicode="&#x1ee4;" horiz-adv-x="864" 
d="M386 -12q-76 0 -134 18t-91.5 57t-40.5 99.5t19 144.5l114 375q8 26 -3 33.5t-34 9.5l-38 3l9 30h309l-9 -30l-41 -3q-26 -2 -40.5 -9.5t-22.5 -33.5l-119 -389q-39 -128 1.5 -184t150.5 -56q114 0 187.5 61.5t112.5 189.5l116 378q8 26 -3 33.5t-34 9.5l-47 3l9 30h234
l-9 -30l-41 -3q-26 -2 -40 -9.5t-22 -33.5l-119 -385q-23 -76 -56.5 -133.5t-79 -96.5t-104.5 -59t-134 -20z" />
    <glyph glyph-name="U" unicode="&#x172;" horiz-adv-x="864" 
d="M386 -12q-76 0 -134 18t-91.5 57t-40.5 99.5t19 144.5l114 375q8 26 -3 33.5t-34 9.5l-38 3l9 30h309l-9 -30l-41 -3q-26 -2 -40.5 -9.5t-22.5 -33.5l-119 -389q-39 -128 1.5 -184t150.5 -56q114 0 187.5 61.5t112.5 189.5l116 378q8 26 -3 33.5t-34 9.5l-47 3l9 30h234
l-9 -30l-41 -3q-26 -2 -40 -9.5t-22 -33.5l-119 -385q-23 -76 -56.5 -133.5t-79 -96.5t-104.5 -59t-134 -20z" />
    <glyph glyph-name="U" unicode="&#x170;" horiz-adv-x="864" 
d="M386 -12q-76 0 -134 18t-91.5 57t-40.5 99.5t19 144.5l114 375q8 26 -3 33.5t-34 9.5l-38 3l9 30h309l-9 -30l-41 -3q-26 -2 -40.5 -9.5t-22.5 -33.5l-119 -389q-39 -128 1.5 -184t150.5 -56q114 0 187.5 61.5t112.5 189.5l116 378q8 26 -3 33.5t-34 9.5l-47 3l9 30h234
l-9 -30l-41 -3q-26 -2 -40 -9.5t-22 -33.5l-119 -385q-23 -76 -56.5 -133.5t-79 -96.5t-104.5 -59t-134 -20z" />
    <glyph glyph-name="U" unicode="&#x16e;" horiz-adv-x="864" 
d="M386 -12q-76 0 -134 18t-91.5 57t-40.5 99.5t19 144.5l114 375q8 26 -3 33.5t-34 9.5l-38 3l9 30h309l-9 -30l-41 -3q-26 -2 -40.5 -9.5t-22.5 -33.5l-119 -389q-39 -128 1.5 -184t150.5 -56q114 0 187.5 61.5t112.5 189.5l116 378q8 26 -3 33.5t-34 9.5l-47 3l9 30h234
l-9 -30l-41 -3q-26 -2 -40 -9.5t-22 -33.5l-119 -385q-23 -76 -56.5 -133.5t-79 -96.5t-104.5 -59t-134 -20z" />
    <glyph glyph-name="U" unicode="&#x16c;" horiz-adv-x="864" 
d="M386 -12q-76 0 -134 18t-91.5 57t-40.5 99.5t19 144.5l114 375q8 26 -3 33.5t-34 9.5l-38 3l9 30h309l-9 -30l-41 -3q-26 -2 -40.5 -9.5t-22.5 -33.5l-119 -389q-39 -128 1.5 -184t150.5 -56q114 0 187.5 61.5t112.5 189.5l116 378q8 26 -3 33.5t-34 9.5l-47 3l9 30h234
l-9 -30l-41 -3q-26 -2 -40 -9.5t-22 -33.5l-119 -385q-23 -76 -56.5 -133.5t-79 -96.5t-104.5 -59t-134 -20z" />
    <glyph glyph-name="U" unicode="&#x16a;" horiz-adv-x="864" 
d="M386 -12q-76 0 -134 18t-91.5 57t-40.5 99.5t19 144.5l114 375q8 26 -3 33.5t-34 9.5l-38 3l9 30h309l-9 -30l-41 -3q-26 -2 -40.5 -9.5t-22.5 -33.5l-119 -389q-39 -128 1.5 -184t150.5 -56q114 0 187.5 61.5t112.5 189.5l116 378q8 26 -3 33.5t-34 9.5l-47 3l9 30h234
l-9 -30l-41 -3q-26 -2 -40 -9.5t-22 -33.5l-119 -385q-23 -76 -56.5 -133.5t-79 -96.5t-104.5 -59t-134 -20z" />
    <glyph glyph-name="U" unicode="&#x168;" horiz-adv-x="864" 
d="M386 -12q-76 0 -134 18t-91.5 57t-40.5 99.5t19 144.5l114 375q8 26 -3 33.5t-34 9.5l-38 3l9 30h309l-9 -30l-41 -3q-26 -2 -40.5 -9.5t-22.5 -33.5l-119 -389q-39 -128 1.5 -184t150.5 -56q114 0 187.5 61.5t112.5 189.5l116 378q8 26 -3 33.5t-34 9.5l-47 3l9 30h234
l-9 -30l-41 -3q-26 -2 -40 -9.5t-22 -33.5l-119 -385q-23 -76 -56.5 -133.5t-79 -96.5t-104.5 -59t-134 -20z" />
    <glyph glyph-name="U" unicode="&#xdc;" horiz-adv-x="864" 
d="M386 -12q-76 0 -134 18t-91.5 57t-40.5 99.5t19 144.5l114 375q8 26 -3 33.5t-34 9.5l-38 3l9 30h309l-9 -30l-41 -3q-26 -2 -40.5 -9.5t-22.5 -33.5l-119 -389q-39 -128 1.5 -184t150.5 -56q114 0 187.5 61.5t112.5 189.5l116 378q8 26 -3 33.5t-34 9.5l-47 3l9 30h234
l-9 -30l-41 -3q-26 -2 -40 -9.5t-22 -33.5l-119 -385q-23 -76 -56.5 -133.5t-79 -96.5t-104.5 -59t-134 -20z" />
    <glyph glyph-name="U" unicode="&#xdb;" horiz-adv-x="864" 
d="M386 -12q-76 0 -134 18t-91.5 57t-40.5 99.5t19 144.5l114 375q8 26 -3 33.5t-34 9.5l-38 3l9 30h309l-9 -30l-41 -3q-26 -2 -40.5 -9.5t-22.5 -33.5l-119 -389q-39 -128 1.5 -184t150.5 -56q114 0 187.5 61.5t112.5 189.5l116 378q8 26 -3 33.5t-34 9.5l-47 3l9 30h234
l-9 -30l-41 -3q-26 -2 -40 -9.5t-22 -33.5l-119 -385q-23 -76 -56.5 -133.5t-79 -96.5t-104.5 -59t-134 -20z" />
    <glyph glyph-name="U" unicode="&#xda;" horiz-adv-x="864" 
d="M386 -12q-76 0 -134 18t-91.5 57t-40.5 99.5t19 144.5l114 375q8 26 -3 33.5t-34 9.5l-38 3l9 30h309l-9 -30l-41 -3q-26 -2 -40.5 -9.5t-22.5 -33.5l-119 -389q-39 -128 1.5 -184t150.5 -56q114 0 187.5 61.5t112.5 189.5l116 378q8 26 -3 33.5t-34 9.5l-47 3l9 30h234
l-9 -30l-41 -3q-26 -2 -40 -9.5t-22 -33.5l-119 -385q-23 -76 -56.5 -133.5t-79 -96.5t-104.5 -59t-134 -20z" />
    <glyph glyph-name="U" unicode="&#xd9;" horiz-adv-x="864" 
d="M386 -12q-76 0 -134 18t-91.5 57t-40.5 99.5t19 144.5l114 375q8 26 -3 33.5t-34 9.5l-38 3l9 30h309l-9 -30l-41 -3q-26 -2 -40.5 -9.5t-22.5 -33.5l-119 -389q-39 -128 1.5 -184t150.5 -56q114 0 187.5 61.5t112.5 189.5l116 378q8 26 -3 33.5t-34 9.5l-47 3l9 30h234
l-9 -30l-41 -3q-26 -2 -40 -9.5t-22 -33.5l-119 -385q-23 -76 -56.5 -133.5t-79 -96.5t-104.5 -59t-134 -20z" />
    <glyph glyph-name="V" unicode="V" horiz-adv-x="815" 
d="M259 682q6 26 -3.5 33.5t-32.5 9.5l-40 3l9 30h309l-9 -30l-41 -3q-25 -2 -40.5 -9.5t-21.5 -33.5l-122 -514l564 517q20 18 22.5 28t-21.5 12l-62 3l9 30h259l-9 -30l-39 -3q-26 -2 -48.5 -11t-44.5 -29l-781 -712h-19z" />
    <glyph glyph-name="W" unicode="W" horiz-adv-x="1263" 
d="M259 682q6 26 -3.5 33.5t-32.5 9.5l-40 3l9 30h309l-9 -30l-41 -3q-25 -2 -40.5 -9.5t-21.5 -33.5l-123 -515l408 373l49 218h248l-9 -30l-63 -3q-25 -2 -40.5 -9.5t-21.5 -33.5l-122 -514l564 517q20 18 22.5 28t-21.5 12l-62 3l9 30h259l-9 -30l-39 -3q-26 -2 -49 -11
t-45 -29l-780 -712h-19l112 493l-541 -493h-19z" />
    <glyph glyph-name="W" unicode="&#x1e84;" horiz-adv-x="1263" 
d="M259 682q6 26 -3.5 33.5t-32.5 9.5l-40 3l9 30h309l-9 -30l-41 -3q-25 -2 -40.5 -9.5t-21.5 -33.5l-123 -515l408 373l49 218h248l-9 -30l-63 -3q-25 -2 -40.5 -9.5t-21.5 -33.5l-122 -514l564 517q20 18 22.5 28t-21.5 12l-62 3l9 30h259l-9 -30l-39 -3q-26 -2 -49 -11
t-45 -29l-780 -712h-19l112 493l-541 -493h-19z" />
    <glyph glyph-name="W" unicode="&#x1e82;" horiz-adv-x="1263" 
d="M259 682q6 26 -3.5 33.5t-32.5 9.5l-40 3l9 30h309l-9 -30l-41 -3q-25 -2 -40.5 -9.5t-21.5 -33.5l-123 -515l408 373l49 218h248l-9 -30l-63 -3q-25 -2 -40.5 -9.5t-21.5 -33.5l-122 -514l564 517q20 18 22.5 28t-21.5 12l-62 3l9 30h259l-9 -30l-39 -3q-26 -2 -49 -11
t-45 -29l-780 -712h-19l112 493l-541 -493h-19z" />
    <glyph glyph-name="W" unicode="&#x1e80;" horiz-adv-x="1263" 
d="M259 682q6 26 -3.5 33.5t-32.5 9.5l-40 3l9 30h309l-9 -30l-41 -3q-25 -2 -40.5 -9.5t-21.5 -33.5l-123 -515l408 373l49 218h248l-9 -30l-63 -3q-25 -2 -40.5 -9.5t-21.5 -33.5l-122 -514l564 517q20 18 22.5 28t-21.5 12l-62 3l9 30h259l-9 -30l-39 -3q-26 -2 -49 -11
t-45 -29l-780 -712h-19l112 493l-541 -493h-19z" />
    <glyph glyph-name="W" unicode="&#x174;" horiz-adv-x="1263" 
d="M259 682q6 26 -3.5 33.5t-32.5 9.5l-40 3l9 30h309l-9 -30l-41 -3q-25 -2 -40.5 -9.5t-21.5 -33.5l-123 -515l408 373l49 218h248l-9 -30l-63 -3q-25 -2 -40.5 -9.5t-21.5 -33.5l-122 -514l564 517q20 18 22.5 28t-21.5 12l-62 3l9 30h259l-9 -30l-39 -3q-26 -2 -49 -11
t-45 -29l-780 -712h-19l112 493l-541 -493h-19z" />
    <glyph glyph-name="X" unicode="X" horiz-adv-x="845" 
d="M-94 30l39 3q26 2 49 11.5t46 28.5l378 302l-86 310q-5 20 -16 29t-33 11l-37 3l13 30h308l-13 -30l-48 -4q-26 -2 -36.5 -10.5t-5.5 -28.5l62 -223l279 223q24 20 25.5 28.5t-22.5 10.5l-45 4l13 30h245l-13 -30l-39 -3q-26 -2 -48.5 -11.5t-45.5 -28.5l-336 -269
l95 -343q6 -20 16.5 -29t33.5 -11l36 -3l-13 -30h-308l13 30l48 4q26 2 36.5 10.5t5.5 28.5l-71 257l-321 -257q-24 -20 -25.5 -28.5t21.5 -10.5l46 -4l-13 -30h-246z" />
    <glyph glyph-name="Y" unicode="Y" horiz-adv-x="781" 
d="M151 31l60 4q24 2 39 8.5t23 32.5l82 266l-130 343q-8 22 -15.5 30t-31.5 10l-37 3l9 30h310l-10 -30l-47 -3q-26 -2 -39 -10.5t-5 -29.5l108 -295l293 295q21 21 17 29.5t-28 10.5l-62 3l9 30h256l-9 -30l-39 -3q-26 -2 -43 -10.5t-37 -29.5l-340 -343l-82 -266
q-8 -26 3 -32.5t35 -8.5l59 -4l-10 -31h-348z" />
    <glyph glyph-name="Y" unicode="&#x1ef2;" horiz-adv-x="781" 
d="M151 31l60 4q24 2 39 8.5t23 32.5l82 266l-130 343q-8 22 -15.5 30t-31.5 10l-37 3l9 30h310l-10 -30l-47 -3q-26 -2 -39 -10.5t-5 -29.5l108 -295l293 295q21 21 17 29.5t-28 10.5l-62 3l9 30h256l-9 -30l-39 -3q-26 -2 -43 -10.5t-37 -29.5l-340 -343l-82 -266
q-8 -26 3 -32.5t35 -8.5l59 -4l-10 -31h-348z" />
    <glyph glyph-name="Y" unicode="&#x232;" horiz-adv-x="781" 
d="M151 31l60 4q24 2 39 8.5t23 32.5l82 266l-130 343q-8 22 -15.5 30t-31.5 10l-37 3l9 30h310l-10 -30l-47 -3q-26 -2 -39 -10.5t-5 -29.5l108 -295l293 295q21 21 17 29.5t-28 10.5l-62 3l9 30h256l-9 -30l-39 -3q-26 -2 -43 -10.5t-37 -29.5l-340 -343l-82 -266
q-8 -26 3 -32.5t35 -8.5l59 -4l-10 -31h-348z" />
    <glyph glyph-name="Y" unicode="&#x178;" horiz-adv-x="781" 
d="M151 31l60 4q24 2 39 8.5t23 32.5l82 266l-130 343q-8 22 -15.5 30t-31.5 10l-37 3l9 30h310l-10 -30l-47 -3q-26 -2 -39 -10.5t-5 -29.5l108 -295l293 295q21 21 17 29.5t-28 10.5l-62 3l9 30h256l-9 -30l-39 -3q-26 -2 -43 -10.5t-37 -29.5l-340 -343l-82 -266
q-8 -26 3 -32.5t35 -8.5l59 -4l-10 -31h-348z" />
    <glyph glyph-name="Y" unicode="&#x176;" horiz-adv-x="781" 
d="M151 31l60 4q24 2 39 8.5t23 32.5l82 266l-130 343q-8 22 -15.5 30t-31.5 10l-37 3l9 30h310l-10 -30l-47 -3q-26 -2 -39 -10.5t-5 -29.5l108 -295l293 295q21 21 17 29.5t-28 10.5l-62 3l9 30h256l-9 -30l-39 -3q-26 -2 -43 -10.5t-37 -29.5l-340 -343l-82 -266
q-8 -26 3 -32.5t35 -8.5l59 -4l-10 -31h-348z" />
    <glyph glyph-name="Y" unicode="&#xdd;" horiz-adv-x="781" 
d="M151 31l60 4q24 2 39 8.5t23 32.5l82 266l-130 343q-8 22 -15.5 30t-31.5 10l-37 3l9 30h310l-10 -30l-47 -3q-26 -2 -39 -10.5t-5 -29.5l108 -295l293 295q21 21 17 29.5t-28 10.5l-62 3l9 30h256l-9 -30l-39 -3q-26 -2 -43 -10.5t-37 -29.5l-340 -343l-82 -266
q-8 -26 3 -32.5t35 -8.5l59 -4l-10 -31h-348z" />
    <glyph glyph-name="Z" unicode="Z" horiz-adv-x="747" 
d="M-48 11l718 710h-261q-14 0 -21 -3t-18 -14l-214 -193h-21l148 247h572l-4 -11l-715 -710h306q15 0 21.5 3t18.5 14l214 193h21l-149 -247h-619z" />
    <glyph glyph-name="Z" unicode="&#x17d;" horiz-adv-x="747" 
d="M-48 11l718 710h-261q-14 0 -21 -3t-18 -14l-214 -193h-21l148 247h572l-4 -11l-715 -710h306q15 0 21.5 3t18.5 14l214 193h21l-149 -247h-619z" />
    <glyph glyph-name="Z" unicode="&#x17b;" horiz-adv-x="747" 
d="M-48 11l718 710h-261q-14 0 -21 -3t-18 -14l-214 -193h-21l148 247h572l-4 -11l-715 -710h306q15 0 21.5 3t18.5 14l214 193h21l-149 -247h-619z" />
    <glyph glyph-name="Z" unicode="&#x179;" horiz-adv-x="747" 
d="M-48 11l718 710h-261q-14 0 -21 -3t-18 -14l-214 -193h-21l148 247h572l-4 -11l-715 -710h306q15 0 21.5 3t18.5 14l214 193h21l-149 -247h-619z" />
    <glyph glyph-name="a" unicode="a" horiz-adv-x="576" 
d="M97 -12q-45 0 -68 29t-23 76q0 45 16 94t42.5 96.5t62 90t74.5 75t79 51.5t77 19q31 0 47 -18t18 -41h1l21 56h113l-152 -413q-14 -39 -13.5 -54t14.5 -15q22 0 61 32.5t79 109.5l24 -11q-42 -83 -97.5 -130t-134.5 -47q-28 0 -41.5 8t-17.5 23t1 35.5t15 46.5l31 80h-2
q-59 -98 -111.5 -145.5t-115.5 -47.5zM166 52q21 0 49 25t57 64t55.5 87t43.5 94q34 91 27.5 131t-41.5 40q-26 0 -53 -19t-51.5 -50.5t-46 -72t-37 -83.5t-24.5 -84.5t-9 -75.5q0 -56 30 -56z" />
    <glyph glyph-name="a" unicode="&#x105;" horiz-adv-x="576" 
d="M97 -12q-45 0 -68 29t-23 76q0 45 16 94t42.5 96.5t62 90t74.5 75t79 51.5t77 19q31 0 47 -18t18 -41h1l21 56h113l-152 -413q-14 -39 -13.5 -54t14.5 -15q22 0 61 32.5t79 109.5l24 -11q-42 -83 -97.5 -130t-134.5 -47q-28 0 -41.5 8t-17.5 23t1 35.5t15 46.5l31 80h-2
q-59 -98 -111.5 -145.5t-115.5 -47.5zM166 52q21 0 49 25t57 64t55.5 87t43.5 94q34 91 27.5 131t-41.5 40q-26 0 -53 -19t-51.5 -50.5t-46 -72t-37 -83.5t-24.5 -84.5t-9 -75.5q0 -56 30 -56z" />
    <glyph glyph-name="a" unicode="&#x103;" horiz-adv-x="576" 
d="M97 -12q-45 0 -68 29t-23 76q0 45 16 94t42.5 96.5t62 90t74.5 75t79 51.5t77 19q31 0 47 -18t18 -41h1l21 56h113l-152 -413q-14 -39 -13.5 -54t14.5 -15q22 0 61 32.5t79 109.5l24 -11q-42 -83 -97.5 -130t-134.5 -47q-28 0 -41.5 8t-17.5 23t1 35.5t15 46.5l31 80h-2
q-59 -98 -111.5 -145.5t-115.5 -47.5zM166 52q21 0 49 25t57 64t55.5 87t43.5 94q34 91 27.5 131t-41.5 40q-26 0 -53 -19t-51.5 -50.5t-46 -72t-37 -83.5t-24.5 -84.5t-9 -75.5q0 -56 30 -56z" />
    <glyph glyph-name="a" unicode="&#x101;" horiz-adv-x="576" 
d="M97 -12q-45 0 -68 29t-23 76q0 45 16 94t42.5 96.5t62 90t74.5 75t79 51.5t77 19q31 0 47 -18t18 -41h1l21 56h113l-152 -413q-14 -39 -13.5 -54t14.5 -15q22 0 61 32.5t79 109.5l24 -11q-42 -83 -97.5 -130t-134.5 -47q-28 0 -41.5 8t-17.5 23t1 35.5t15 46.5l31 80h-2
q-59 -98 -111.5 -145.5t-115.5 -47.5zM166 52q21 0 49 25t57 64t55.5 87t43.5 94q34 91 27.5 131t-41.5 40q-26 0 -53 -19t-51.5 -50.5t-46 -72t-37 -83.5t-24.5 -84.5t-9 -75.5q0 -56 30 -56z" />
    <glyph glyph-name="a" unicode="&#xe6;" horiz-adv-x="576" 
d="M97 -12q-45 0 -68 29t-23 76q0 45 16 94t42.5 96.5t62 90t74.5 75t79 51.5t77 19q31 0 47 -18t18 -41h1l21 56h113l-152 -413q-14 -39 -13.5 -54t14.5 -15q22 0 61 32.5t79 109.5l24 -11q-42 -83 -97.5 -130t-134.5 -47q-28 0 -41.5 8t-17.5 23t1 35.5t15 46.5l31 80h-2
q-59 -98 -111.5 -145.5t-115.5 -47.5zM166 52q21 0 49 25t57 64t55.5 87t43.5 94q34 91 27.5 131t-41.5 40q-26 0 -53 -19t-51.5 -50.5t-46 -72t-37 -83.5t-24.5 -84.5t-9 -75.5q0 -56 30 -56z" />
    <glyph glyph-name="a" unicode="&#xe5;" horiz-adv-x="576" 
d="M97 -12q-45 0 -68 29t-23 76q0 45 16 94t42.5 96.5t62 90t74.5 75t79 51.5t77 19q31 0 47 -18t18 -41h1l21 56h113l-152 -413q-14 -39 -13.5 -54t14.5 -15q22 0 61 32.5t79 109.5l24 -11q-42 -83 -97.5 -130t-134.5 -47q-28 0 -41.5 8t-17.5 23t1 35.5t15 46.5l31 80h-2
q-59 -98 -111.5 -145.5t-115.5 -47.5zM166 52q21 0 49 25t57 64t55.5 87t43.5 94q34 91 27.5 131t-41.5 40q-26 0 -53 -19t-51.5 -50.5t-46 -72t-37 -83.5t-24.5 -84.5t-9 -75.5q0 -56 30 -56z" />
    <glyph glyph-name="a" unicode="&#xe4;" horiz-adv-x="576" 
d="M97 -12q-45 0 -68 29t-23 76q0 45 16 94t42.5 96.5t62 90t74.5 75t79 51.5t77 19q31 0 47 -18t18 -41h1l21 56h113l-152 -413q-14 -39 -13.5 -54t14.5 -15q22 0 61 32.5t79 109.5l24 -11q-42 -83 -97.5 -130t-134.5 -47q-28 0 -41.5 8t-17.5 23t1 35.5t15 46.5l31 80h-2
q-59 -98 -111.5 -145.5t-115.5 -47.5zM166 52q21 0 49 25t57 64t55.5 87t43.5 94q34 91 27.5 131t-41.5 40q-26 0 -53 -19t-51.5 -50.5t-46 -72t-37 -83.5t-24.5 -84.5t-9 -75.5q0 -56 30 -56z" />
    <glyph glyph-name="a" unicode="&#xe3;" horiz-adv-x="576" 
d="M97 -12q-45 0 -68 29t-23 76q0 45 16 94t42.5 96.5t62 90t74.5 75t79 51.5t77 19q31 0 47 -18t18 -41h1l21 56h113l-152 -413q-14 -39 -13.5 -54t14.5 -15q22 0 61 32.5t79 109.5l24 -11q-42 -83 -97.5 -130t-134.5 -47q-28 0 -41.5 8t-17.5 23t1 35.5t15 46.5l31 80h-2
q-59 -98 -111.5 -145.5t-115.5 -47.5zM166 52q21 0 49 25t57 64t55.5 87t43.5 94q34 91 27.5 131t-41.5 40q-26 0 -53 -19t-51.5 -50.5t-46 -72t-37 -83.5t-24.5 -84.5t-9 -75.5q0 -56 30 -56z" />
    <glyph glyph-name="a" unicode="&#xe2;" horiz-adv-x="576" 
d="M97 -12q-45 0 -68 29t-23 76q0 45 16 94t42.5 96.5t62 90t74.5 75t79 51.5t77 19q31 0 47 -18t18 -41h1l21 56h113l-152 -413q-14 -39 -13.5 -54t14.5 -15q22 0 61 32.5t79 109.5l24 -11q-42 -83 -97.5 -130t-134.5 -47q-28 0 -41.5 8t-17.5 23t1 35.5t15 46.5l31 80h-2
q-59 -98 -111.5 -145.5t-115.5 -47.5zM166 52q21 0 49 25t57 64t55.5 87t43.5 94q34 91 27.5 131t-41.5 40q-26 0 -53 -19t-51.5 -50.5t-46 -72t-37 -83.5t-24.5 -84.5t-9 -75.5q0 -56 30 -56z" />
    <glyph glyph-name="a" unicode="&#xe1;" horiz-adv-x="576" 
d="M97 -12q-45 0 -68 29t-23 76q0 45 16 94t42.5 96.5t62 90t74.5 75t79 51.5t77 19q31 0 47 -18t18 -41h1l21 56h113l-152 -413q-14 -39 -13.5 -54t14.5 -15q22 0 61 32.5t79 109.5l24 -11q-42 -83 -97.5 -130t-134.5 -47q-28 0 -41.5 8t-17.5 23t1 35.5t15 46.5l31 80h-2
q-59 -98 -111.5 -145.5t-115.5 -47.5zM166 52q21 0 49 25t57 64t55.5 87t43.5 94q34 91 27.5 131t-41.5 40q-26 0 -53 -19t-51.5 -50.5t-46 -72t-37 -83.5t-24.5 -84.5t-9 -75.5q0 -56 30 -56z" />
    <glyph glyph-name="a" unicode="&#xe0;" horiz-adv-x="576" 
d="M97 -12q-45 0 -68 29t-23 76q0 45 16 94t42.5 96.5t62 90t74.5 75t79 51.5t77 19q31 0 47 -18t18 -41h1l21 56h113l-152 -413q-14 -39 -13.5 -54t14.5 -15q22 0 61 32.5t79 109.5l24 -11q-42 -83 -97.5 -130t-134.5 -47q-28 0 -41.5 8t-17.5 23t1 35.5t15 46.5l31 80h-2
q-59 -98 -111.5 -145.5t-115.5 -47.5zM166 52q21 0 49 25t57 64t55.5 87t43.5 94q34 91 27.5 131t-41.5 40q-26 0 -53 -19t-51.5 -50.5t-46 -72t-37 -83.5t-24.5 -84.5t-9 -75.5q0 -56 30 -56z" />
    <glyph glyph-name="b" unicode="b" horiz-adv-x="555" 
d="M153 -12q-32 0 -60 6t-45.5 23t-21 47.5t13.5 79.5l184 537l-73 48l2 6l231 58l-125 -362l-55 -126h2q65 111 126 162.5t123 51.5q54 0 77 -31.5t23 -78.5q0 -46 -18 -95.5t-48 -96t-70 -88.5t-85 -73t-91.5 -49.5t-89.5 -18.5zM174 14q27 0 56.5 18.5t57 49t52 70
t43 82.5t29 85.5t10.5 78.5q0 57 -36 57q-23 0 -53.5 -25.5t-61 -65.5t-58.5 -89t-44 -95q-17 -47 -25.5 -78.5t-8.5 -51t9.5 -28t29.5 -8.5z" />
    <glyph glyph-name="c" unicode="c" horiz-adv-x="458" 
d="M162 -12q-67 0 -104 38.5t-37 110.5q0 69 29.5 137t77.5 122.5t108.5 88.5t123.5 34q49 0 78.5 -22t29.5 -62q0 -38 -31.5 -61.5t-85.5 -15.5q17 66 15.5 100t-28.5 34q-30 0 -62.5 -28t-59.5 -74.5t-45 -105.5t-18 -120q0 -63 21.5 -91t56.5 -28q37 0 74.5 32t73.5 111
l24 -9q-44 -104 -104.5 -147.5t-136.5 -43.5z" />
    <glyph glyph-name="c" unicode="&#x10d;" horiz-adv-x="458" 
d="M162 -12q-67 0 -104 38.5t-37 110.5q0 69 29.5 137t77.5 122.5t108.5 88.5t123.5 34q49 0 78.5 -22t29.5 -62q0 -38 -31.5 -61.5t-85.5 -15.5q17 66 15.5 100t-28.5 34q-30 0 -62.5 -28t-59.5 -74.5t-45 -105.5t-18 -120q0 -63 21.5 -91t56.5 -28q37 0 74.5 32t73.5 111
l24 -9q-44 -104 -104.5 -147.5t-136.5 -43.5z" />
    <glyph glyph-name="c" unicode="&#x10b;" horiz-adv-x="458" 
d="M162 -12q-67 0 -104 38.5t-37 110.5q0 69 29.5 137t77.5 122.5t108.5 88.5t123.5 34q49 0 78.5 -22t29.5 -62q0 -38 -31.5 -61.5t-85.5 -15.5q17 66 15.5 100t-28.5 34q-30 0 -62.5 -28t-59.5 -74.5t-45 -105.5t-18 -120q0 -63 21.5 -91t56.5 -28q37 0 74.5 32t73.5 111
l24 -9q-44 -104 -104.5 -147.5t-136.5 -43.5z" />
    <glyph glyph-name="c" unicode="&#x109;" horiz-adv-x="458" 
d="M162 -12q-67 0 -104 38.5t-37 110.5q0 69 29.5 137t77.5 122.5t108.5 88.5t123.5 34q49 0 78.5 -22t29.5 -62q0 -38 -31.5 -61.5t-85.5 -15.5q17 66 15.5 100t-28.5 34q-30 0 -62.5 -28t-59.5 -74.5t-45 -105.5t-18 -120q0 -63 21.5 -91t56.5 -28q37 0 74.5 32t73.5 111
l24 -9q-44 -104 -104.5 -147.5t-136.5 -43.5z" />
    <glyph glyph-name="c" unicode="&#x107;" horiz-adv-x="458" 
d="M162 -12q-67 0 -104 38.5t-37 110.5q0 69 29.5 137t77.5 122.5t108.5 88.5t123.5 34q49 0 78.5 -22t29.5 -62q0 -38 -31.5 -61.5t-85.5 -15.5q17 66 15.5 100t-28.5 34q-30 0 -62.5 -28t-59.5 -74.5t-45 -105.5t-18 -120q0 -63 21.5 -91t56.5 -28q37 0 74.5 32t73.5 111
l24 -9q-44 -104 -104.5 -147.5t-136.5 -43.5z" />
    <glyph glyph-name="c" unicode="&#xe7;" horiz-adv-x="458" 
d="M162 -12q-67 0 -104 38.5t-37 110.5q0 69 29.5 137t77.5 122.5t108.5 88.5t123.5 34q49 0 78.5 -22t29.5 -62q0 -38 -31.5 -61.5t-85.5 -15.5q17 66 15.5 100t-28.5 34q-30 0 -62.5 -28t-59.5 -74.5t-45 -105.5t-18 -120q0 -63 21.5 -91t56.5 -28q37 0 74.5 32t73.5 111
l24 -9q-44 -104 -104.5 -147.5t-136.5 -43.5z" />
    <glyph glyph-name="d" unicode="d" horiz-adv-x="595" 
d="M102 -12q-44 0 -69.5 29.5t-25.5 81.5q0 45 16 93.5t42.5 95t61.5 88.5t74 74t79 50.5t76 18.5q31 0 48 -15.5t22 -43.5h1l74 221l-76 48l2 6l231 58l-232 -690q-14 -40 -14.5 -54.5t15.5 -14.5q22 0 61 32.5t78 109.5l25 -11q-42 -83 -97.5 -130t-135.5 -47
q-28 0 -41.5 8t-17 23t1.5 35.5t14 46.5l31 87h-2q-60 -103 -117 -151.5t-125 -48.5zM179 52q21 0 49 24.5t56.5 63t54 84.5t41.5 89q34 90 25 135t-46 45q-28 0 -54.5 -18t-51 -48t-45 -69.5t-36 -81t-24 -83t-8.5 -76.5q0 -65 39 -65z" />
    <glyph glyph-name="d" unicode="&#x111;" horiz-adv-x="595" 
d="M102 -12q-44 0 -69.5 29.5t-25.5 81.5q0 45 16 93.5t42.5 95t61.5 88.5t74 74t79 50.5t76 18.5q31 0 48 -15.5t22 -43.5h1l74 221l-76 48l2 6l231 58l-232 -690q-14 -40 -14.5 -54.5t15.5 -14.5q22 0 61 32.5t78 109.5l25 -11q-42 -83 -97.5 -130t-135.5 -47
q-28 0 -41.5 8t-17 23t1.5 35.5t14 46.5l31 87h-2q-60 -103 -117 -151.5t-125 -48.5zM179 52q21 0 49 24.5t56.5 63t54 84.5t41.5 89q34 90 25 135t-46 45q-28 0 -54.5 -18t-51 -48t-45 -69.5t-36 -81t-24 -83t-8.5 -76.5q0 -65 39 -65z" />
    <glyph glyph-name="d" unicode="&#x10f;" horiz-adv-x="595" 
d="M102 -12q-44 0 -69.5 29.5t-25.5 81.5q0 45 16 93.5t42.5 95t61.5 88.5t74 74t79 50.5t76 18.5q31 0 48 -15.5t22 -43.5h1l74 221l-76 48l2 6l231 58l-232 -690q-14 -40 -14.5 -54.5t15.5 -14.5q22 0 61 32.5t78 109.5l25 -11q-42 -83 -97.5 -130t-135.5 -47
q-28 0 -41.5 8t-17 23t1.5 35.5t14 46.5l31 87h-2q-60 -103 -117 -151.5t-125 -48.5zM179 52q21 0 49 24.5t56.5 63t54 84.5t41.5 89q34 90 25 135t-46 45q-28 0 -54.5 -18t-51 -48t-45 -69.5t-36 -81t-24 -83t-8.5 -76.5q0 -65 39 -65z" />
    <glyph glyph-name="d" unicode="&#xf0;" horiz-adv-x="595" 
d="M102 -12q-44 0 -69.5 29.5t-25.5 81.5q0 45 16 93.5t42.5 95t61.5 88.5t74 74t79 50.5t76 18.5q31 0 48 -15.5t22 -43.5h1l74 221l-76 48l2 6l231 58l-232 -690q-14 -40 -14.5 -54.5t15.5 -14.5q22 0 61 32.5t78 109.5l25 -11q-42 -83 -97.5 -130t-135.5 -47
q-28 0 -41.5 8t-17 23t1.5 35.5t14 46.5l31 87h-2q-60 -103 -117 -151.5t-125 -48.5zM179 52q21 0 49 24.5t56.5 63t54 84.5t41.5 89q34 90 25 135t-46 45q-28 0 -54.5 -18t-51 -48t-45 -69.5t-36 -81t-24 -83t-8.5 -76.5q0 -65 39 -65z" />
    <glyph glyph-name="e" unicode="e" horiz-adv-x="473" 
d="M165 -12q-68 0 -106.5 38.5t-38.5 110.5q0 48 15.5 95t41.5 89.5t61 78.5t74 62.5t79 41.5t78 15q58 0 85 -27t27 -67q0 -29 -16.5 -60.5t-48.5 -53.5l-237 -2q-28 -68 -28 -145q0 -63 22 -91t57 -28q83 0 159 148l25 -9q-47 -99 -106 -147.5t-143 -48.5zM369 493
q-24 0 -49 -12t-49 -33t-45 -50.5t-37 -64.5h39q42 0 76.5 11t59 28t38 38.5t13.5 42.5q0 40 -46 40z" />
    <glyph glyph-name="e" unicode="&#x11b;" horiz-adv-x="473" 
d="M165 -12q-68 0 -106.5 38.5t-38.5 110.5q0 48 15.5 95t41.5 89.5t61 78.5t74 62.5t79 41.5t78 15q58 0 85 -27t27 -67q0 -29 -16.5 -60.5t-48.5 -53.5l-237 -2q-28 -68 -28 -145q0 -63 22 -91t57 -28q83 0 159 148l25 -9q-47 -99 -106 -147.5t-143 -48.5zM369 493
q-24 0 -49 -12t-49 -33t-45 -50.5t-37 -64.5h39q42 0 76.5 11t59 28t38 38.5t13.5 42.5q0 40 -46 40z" />
    <glyph glyph-name="e" unicode="&#x119;" horiz-adv-x="473" 
d="M165 -12q-68 0 -106.5 38.5t-38.5 110.5q0 48 15.5 95t41.5 89.5t61 78.5t74 62.5t79 41.5t78 15q58 0 85 -27t27 -67q0 -29 -16.5 -60.5t-48.5 -53.5l-237 -2q-28 -68 -28 -145q0 -63 22 -91t57 -28q83 0 159 148l25 -9q-47 -99 -106 -147.5t-143 -48.5zM369 493
q-24 0 -49 -12t-49 -33t-45 -50.5t-37 -64.5h39q42 0 76.5 11t59 28t38 38.5t13.5 42.5q0 40 -46 40z" />
    <glyph glyph-name="e" unicode="&#x117;" horiz-adv-x="473" 
d="M165 -12q-68 0 -106.5 38.5t-38.5 110.5q0 48 15.5 95t41.5 89.5t61 78.5t74 62.5t79 41.5t78 15q58 0 85 -27t27 -67q0 -29 -16.5 -60.5t-48.5 -53.5l-237 -2q-28 -68 -28 -145q0 -63 22 -91t57 -28q83 0 159 148l25 -9q-47 -99 -106 -147.5t-143 -48.5zM369 493
q-24 0 -49 -12t-49 -33t-45 -50.5t-37 -64.5h39q42 0 76.5 11t59 28t38 38.5t13.5 42.5q0 40 -46 40z" />
    <glyph glyph-name="e" unicode="&#x115;" horiz-adv-x="473" 
d="M165 -12q-68 0 -106.5 38.5t-38.5 110.5q0 48 15.5 95t41.5 89.5t61 78.5t74 62.5t79 41.5t78 15q58 0 85 -27t27 -67q0 -29 -16.5 -60.5t-48.5 -53.5l-237 -2q-28 -68 -28 -145q0 -63 22 -91t57 -28q83 0 159 148l25 -9q-47 -99 -106 -147.5t-143 -48.5zM369 493
q-24 0 -49 -12t-49 -33t-45 -50.5t-37 -64.5h39q42 0 76.5 11t59 28t38 38.5t13.5 42.5q0 40 -46 40z" />
    <glyph glyph-name="e" unicode="&#x113;" horiz-adv-x="473" 
d="M165 -12q-68 0 -106.5 38.5t-38.5 110.5q0 48 15.5 95t41.5 89.5t61 78.5t74 62.5t79 41.5t78 15q58 0 85 -27t27 -67q0 -29 -16.5 -60.5t-48.5 -53.5l-237 -2q-28 -68 -28 -145q0 -63 22 -91t57 -28q83 0 159 148l25 -9q-47 -99 -106 -147.5t-143 -48.5zM369 493
q-24 0 -49 -12t-49 -33t-45 -50.5t-37 -64.5h39q42 0 76.5 11t59 28t38 38.5t13.5 42.5q0 40 -46 40z" />
    <glyph glyph-name="e" unicode="&#xeb;" horiz-adv-x="473" 
d="M165 -12q-68 0 -106.5 38.5t-38.5 110.5q0 48 15.5 95t41.5 89.5t61 78.5t74 62.5t79 41.5t78 15q58 0 85 -27t27 -67q0 -29 -16.5 -60.5t-48.5 -53.5l-237 -2q-28 -68 -28 -145q0 -63 22 -91t57 -28q83 0 159 148l25 -9q-47 -99 -106 -147.5t-143 -48.5zM369 493
q-24 0 -49 -12t-49 -33t-45 -50.5t-37 -64.5h39q42 0 76.5 11t59 28t38 38.5t13.5 42.5q0 40 -46 40z" />
    <glyph glyph-name="e" unicode="&#xea;" horiz-adv-x="473" 
d="M165 -12q-68 0 -106.5 38.5t-38.5 110.5q0 48 15.5 95t41.5 89.5t61 78.5t74 62.5t79 41.5t78 15q58 0 85 -27t27 -67q0 -29 -16.5 -60.5t-48.5 -53.5l-237 -2q-28 -68 -28 -145q0 -63 22 -91t57 -28q83 0 159 148l25 -9q-47 -99 -106 -147.5t-143 -48.5zM369 493
q-24 0 -49 -12t-49 -33t-45 -50.5t-37 -64.5h39q42 0 76.5 11t59 28t38 38.5t13.5 42.5q0 40 -46 40z" />
    <glyph glyph-name="e" unicode="&#xe9;" horiz-adv-x="473" 
d="M165 -12q-68 0 -106.5 38.5t-38.5 110.5q0 48 15.5 95t41.5 89.5t61 78.5t74 62.5t79 41.5t78 15q58 0 85 -27t27 -67q0 -29 -16.5 -60.5t-48.5 -53.5l-237 -2q-28 -68 -28 -145q0 -63 22 -91t57 -28q83 0 159 148l25 -9q-47 -99 -106 -147.5t-143 -48.5zM369 493
q-24 0 -49 -12t-49 -33t-45 -50.5t-37 -64.5h39q42 0 76.5 11t59 28t38 38.5t13.5 42.5q0 40 -46 40z" />
    <glyph glyph-name="e" unicode="&#xe8;" horiz-adv-x="473" 
d="M165 -12q-68 0 -106.5 38.5t-38.5 110.5q0 48 15.5 95t41.5 89.5t61 78.5t74 62.5t79 41.5t78 15q58 0 85 -27t27 -67q0 -29 -16.5 -60.5t-48.5 -53.5l-237 -2q-28 -68 -28 -145q0 -63 22 -91t57 -28q83 0 159 148l25 -9q-47 -99 -106 -147.5t-143 -48.5zM369 493
q-24 0 -49 -12t-49 -33t-45 -50.5t-37 -64.5h39q42 0 76.5 11t59 28t38 38.5t13.5 42.5q0 40 -46 40z" />
    <glyph glyph-name="f" unicode="f" horiz-adv-x="355" 
d="M-122 -259q-34 0 -51.5 17.5t-17.5 42.5q0 22 16 39t39 19q25 -21 49 -39t46 -18q12 0 22 6.5t19.5 25.5t20 54.5t22.5 92.5l99 457h-81l9 28q28 2 48 8t36.5 21t31.5 40t35 65q26 52 54.5 87t57 56t55.5 29.5t50 8.5q35 0 50.5 -15.5t15.5 -38.5q0 -19 -10 -38t-27 -28
q-26 11 -50 15.5t-44 4.5q-31 0 -55 -9.5t-40 -26t-24.5 -38t-8.5 -45.5t12.5 -42t43.5 -18h140l-40 -64h-144l-52 -232q-32 -145 -75 -235.5t-88 -141.5t-88 -69.5t-76 -18.5z" />
    <glyph glyph-name="g" unicode="g" horiz-adv-x="516" 
d="M221 166q-11 0 -22 1t-21 3l-67 -59l150 -89q62 -37 95 -67.5t33 -71.5q0 -37 -23 -64t-60 -45t-82.5 -26.5t-90.5 -8.5q-59 0 -108 9t-83.5 25t-53.5 38.5t-19 49.5q0 23 15.5 43.5t43 38t66 32.5t83.5 29l-37 81l107 93q-39 15 -61.5 44.5t-22.5 68.5q0 45 21.5 86
t57.5 72.5t82.5 50.5t97.5 19q40 0 72.5 -12t53.5 -33l41 76h114l-47 -85h-100q25 -31 25 -71q0 -45 -21.5 -86t-57.5 -72.5t-83 -50.5t-98 -19zM246 195q23 0 44 13t36.5 37.5t25 59.5t9.5 78q0 51 -16 79.5t-49 28.5q-24 0 -44.5 -13.5t-36.5 -38t-25 -59t-9 -77.5
q0 -51 16 -79.5t49 -28.5zM-41 -119q0 -26 15 -47t41 -36.5t62.5 -24t80.5 -8.5q59 0 98 16.5t39 47.5q0 10 -4 19.5t-14.5 20.5t-28.5 24t-47 30l-109 64q-63 -24 -98 -47t-35 -59z" />
    <glyph glyph-name="g" unicode="&#x123;" horiz-adv-x="516" 
d="M221 166q-11 0 -22 1t-21 3l-67 -59l150 -89q62 -37 95 -67.5t33 -71.5q0 -37 -23 -64t-60 -45t-82.5 -26.5t-90.5 -8.5q-59 0 -108 9t-83.5 25t-53.5 38.5t-19 49.5q0 23 15.5 43.5t43 38t66 32.5t83.5 29l-37 81l107 93q-39 15 -61.5 44.5t-22.5 68.5q0 45 21.5 86
t57.5 72.5t82.5 50.5t97.5 19q40 0 72.5 -12t53.5 -33l41 76h114l-47 -85h-100q25 -31 25 -71q0 -45 -21.5 -86t-57.5 -72.5t-83 -50.5t-98 -19zM246 195q23 0 44 13t36.5 37.5t25 59.5t9.5 78q0 51 -16 79.5t-49 28.5q-24 0 -44.5 -13.5t-36.5 -38t-25 -59t-9 -77.5
q0 -51 16 -79.5t49 -28.5zM-41 -119q0 -26 15 -47t41 -36.5t62.5 -24t80.5 -8.5q59 0 98 16.5t39 47.5q0 10 -4 19.5t-14.5 20.5t-28.5 24t-47 30l-109 64q-63 -24 -98 -47t-35 -59z" />
    <glyph glyph-name="g" unicode="&#x121;" horiz-adv-x="516" 
d="M221 166q-11 0 -22 1t-21 3l-67 -59l150 -89q62 -37 95 -67.5t33 -71.5q0 -37 -23 -64t-60 -45t-82.5 -26.5t-90.5 -8.5q-59 0 -108 9t-83.5 25t-53.5 38.5t-19 49.5q0 23 15.5 43.5t43 38t66 32.5t83.5 29l-37 81l107 93q-39 15 -61.5 44.5t-22.5 68.5q0 45 21.5 86
t57.5 72.5t82.5 50.5t97.5 19q40 0 72.5 -12t53.5 -33l41 76h114l-47 -85h-100q25 -31 25 -71q0 -45 -21.5 -86t-57.5 -72.5t-83 -50.5t-98 -19zM246 195q23 0 44 13t36.5 37.5t25 59.5t9.5 78q0 51 -16 79.5t-49 28.5q-24 0 -44.5 -13.5t-36.5 -38t-25 -59t-9 -77.5
q0 -51 16 -79.5t49 -28.5zM-41 -119q0 -26 15 -47t41 -36.5t62.5 -24t80.5 -8.5q59 0 98 16.5t39 47.5q0 10 -4 19.5t-14.5 20.5t-28.5 24t-47 30l-109 64q-63 -24 -98 -47t-35 -59z" />
    <glyph glyph-name="g" unicode="&#x11f;" horiz-adv-x="516" 
d="M221 166q-11 0 -22 1t-21 3l-67 -59l150 -89q62 -37 95 -67.5t33 -71.5q0 -37 -23 -64t-60 -45t-82.5 -26.5t-90.5 -8.5q-59 0 -108 9t-83.5 25t-53.5 38.5t-19 49.5q0 23 15.5 43.5t43 38t66 32.5t83.5 29l-37 81l107 93q-39 15 -61.5 44.5t-22.5 68.5q0 45 21.5 86
t57.5 72.5t82.5 50.5t97.5 19q40 0 72.5 -12t53.5 -33l41 76h114l-47 -85h-100q25 -31 25 -71q0 -45 -21.5 -86t-57.5 -72.5t-83 -50.5t-98 -19zM246 195q23 0 44 13t36.5 37.5t25 59.5t9.5 78q0 51 -16 79.5t-49 28.5q-24 0 -44.5 -13.5t-36.5 -38t-25 -59t-9 -77.5
q0 -51 16 -79.5t49 -28.5zM-41 -119q0 -26 15 -47t41 -36.5t62.5 -24t80.5 -8.5q59 0 98 16.5t39 47.5q0 10 -4 19.5t-14.5 20.5t-28.5 24t-47 30l-109 64q-63 -24 -98 -47t-35 -59z" />
    <glyph glyph-name="g" unicode="&#x11d;" horiz-adv-x="516" 
d="M221 166q-11 0 -22 1t-21 3l-67 -59l150 -89q62 -37 95 -67.5t33 -71.5q0 -37 -23 -64t-60 -45t-82.5 -26.5t-90.5 -8.5q-59 0 -108 9t-83.5 25t-53.5 38.5t-19 49.5q0 23 15.5 43.5t43 38t66 32.5t83.5 29l-37 81l107 93q-39 15 -61.5 44.5t-22.5 68.5q0 45 21.5 86
t57.5 72.5t82.5 50.5t97.5 19q40 0 72.5 -12t53.5 -33l41 76h114l-47 -85h-100q25 -31 25 -71q0 -45 -21.5 -86t-57.5 -72.5t-83 -50.5t-98 -19zM246 195q23 0 44 13t36.5 37.5t25 59.5t9.5 78q0 51 -16 79.5t-49 28.5q-24 0 -44.5 -13.5t-36.5 -38t-25 -59t-9 -77.5
q0 -51 16 -79.5t49 -28.5zM-41 -119q0 -26 15 -47t41 -36.5t62.5 -24t80.5 -8.5q59 0 98 16.5t39 47.5q0 10 -4 19.5t-14.5 20.5t-28.5 24t-47 30l-109 64q-63 -24 -98 -47t-35 -59z" />
    <glyph glyph-name="h" unicode="h" horiz-adv-x="577" 
d="M274 -12q-37 0 -64 18t-27 52q0 15 7 27t18 20.5t24.5 12.5t27.5 3q11 -37 18.5 -57.5t13 -30.5t9 -12t7.5 -2q21 0 43 33t40 83.5t29.5 111.5t11.5 117q0 48 -10.5 69.5t-33.5 21.5q-24 0 -53.5 -27.5t-59 -69.5t-56.5 -93t-45 -97q-8 -19 -16.5 -40.5t-17 -42.5
t-16 -41t-12.5 -35l-121 -19l239 690l-72 49l2 6l229 58l-125 -362l-55 -136h2q33 59 63.5 101.5t59.5 69.5t59.5 40t63.5 13q54 0 79.5 -34t25.5 -96q0 -43 -13 -89t-35 -91t-51 -85t-61 -70t-65 -48t-63 -18z" />
    <glyph glyph-name="h" unicode="&#x127;" horiz-adv-x="577" 
d="M274 -12q-37 0 -64 18t-27 52q0 15 7 27t18 20.5t24.5 12.5t27.5 3q11 -37 18.5 -57.5t13 -30.5t9 -12t7.5 -2q21 0 43 33t40 83.5t29.5 111.5t11.5 117q0 48 -10.5 69.5t-33.5 21.5q-24 0 -53.5 -27.5t-59 -69.5t-56.5 -93t-45 -97q-8 -19 -16.5 -40.5t-17 -42.5
t-16 -41t-12.5 -35l-121 -19l239 690l-72 49l2 6l229 58l-125 -362l-55 -136h2q33 59 63.5 101.5t59.5 69.5t59.5 40t63.5 13q54 0 79.5 -34t25.5 -96q0 -43 -13 -89t-35 -91t-51 -85t-61 -70t-65 -48t-63 -18z" />
    <glyph glyph-name="h" unicode="&#x125;" horiz-adv-x="577" 
d="M274 -12q-37 0 -64 18t-27 52q0 15 7 27t18 20.5t24.5 12.5t27.5 3q11 -37 18.5 -57.5t13 -30.5t9 -12t7.5 -2q21 0 43 33t40 83.5t29.5 111.5t11.5 117q0 48 -10.5 69.5t-33.5 21.5q-24 0 -53.5 -27.5t-59 -69.5t-56.5 -93t-45 -97q-8 -19 -16.5 -40.5t-17 -42.5
t-16 -41t-12.5 -35l-121 -19l239 690l-72 49l2 6l229 58l-125 -362l-55 -136h2q33 59 63.5 101.5t59.5 69.5t59.5 40t63.5 13q54 0 79.5 -34t25.5 -96q0 -43 -13 -89t-35 -91t-51 -85t-61 -70t-65 -48t-63 -18z" />
    <glyph glyph-name="i" unicode="i" horiz-adv-x="342" 
d="M249 716q0 31 23.5 54.5t54.5 23.5q32 0 55 -23.5t23 -54.5q0 -32 -23 -55.5t-55 -23.5q-31 0 -54.5 23.5t-23.5 55.5zM97 -12q-28 0 -43.5 7.5t-21 22t-2.5 34.5t13 45l137 356l-92 2l9 26l230 42l-162 -420q-15 -39 -15 -54t16 -15q22 0 61 32.5t78 109.5l25 -11
q-42 -83 -97.5 -130t-135.5 -47z" />
    <glyph glyph-name="i" unicode="&#x1ecb;" horiz-adv-x="342" 
d="M249 716q0 31 23.5 54.5t54.5 23.5q32 0 55 -23.5t23 -54.5q0 -32 -23 -55.5t-55 -23.5q-31 0 -54.5 23.5t-23.5 55.5zM97 -12q-28 0 -43.5 7.5t-21 22t-2.5 34.5t13 45l137 356l-92 2l9 26l230 42l-162 -420q-15 -39 -15 -54t16 -15q22 0 61 32.5t78 109.5l25 -11
q-42 -83 -97.5 -130t-135.5 -47z" />
    <glyph glyph-name="i" unicode="&#x131;" horiz-adv-x="342" 
d="M249 716q0 31 23.5 54.5t54.5 23.5q32 0 55 -23.5t23 -54.5q0 -32 -23 -55.5t-55 -23.5q-31 0 -54.5 23.5t-23.5 55.5zM97 -12q-28 0 -43.5 7.5t-21 22t-2.5 34.5t13 45l137 356l-92 2l9 26l230 42l-162 -420q-15 -39 -15 -54t16 -15q22 0 61 32.5t78 109.5l25 -11
q-42 -83 -97.5 -130t-135.5 -47z" />
    <glyph glyph-name="i" unicode="&#x12f;" horiz-adv-x="342" 
d="M249 716q0 31 23.5 54.5t54.5 23.5q32 0 55 -23.5t23 -54.5q0 -32 -23 -55.5t-55 -23.5q-31 0 -54.5 23.5t-23.5 55.5zM97 -12q-28 0 -43.5 7.5t-21 22t-2.5 34.5t13 45l137 356l-92 2l9 26l230 42l-162 -420q-15 -39 -15 -54t16 -15q22 0 61 32.5t78 109.5l25 -11
q-42 -83 -97.5 -130t-135.5 -47z" />
    <glyph glyph-name="i" unicode="&#x12d;" horiz-adv-x="342" 
d="M249 716q0 31 23.5 54.5t54.5 23.5q32 0 55 -23.5t23 -54.5q0 -32 -23 -55.5t-55 -23.5q-31 0 -54.5 23.5t-23.5 55.5zM97 -12q-28 0 -43.5 7.5t-21 22t-2.5 34.5t13 45l137 356l-92 2l9 26l230 42l-162 -420q-15 -39 -15 -54t16 -15q22 0 61 32.5t78 109.5l25 -11
q-42 -83 -97.5 -130t-135.5 -47z" />
    <glyph glyph-name="i" unicode="&#x12b;" horiz-adv-x="342" 
d="M249 716q0 31 23.5 54.5t54.5 23.5q32 0 55 -23.5t23 -54.5q0 -32 -23 -55.5t-55 -23.5q-31 0 -54.5 23.5t-23.5 55.5zM97 -12q-28 0 -43.5 7.5t-21 22t-2.5 34.5t13 45l137 356l-92 2l9 26l230 42l-162 -420q-15 -39 -15 -54t16 -15q22 0 61 32.5t78 109.5l25 -11
q-42 -83 -97.5 -130t-135.5 -47z" />
    <glyph glyph-name="i" unicode="&#x129;" horiz-adv-x="342" 
d="M249 716q0 31 23.5 54.5t54.5 23.5q32 0 55 -23.5t23 -54.5q0 -32 -23 -55.5t-55 -23.5q-31 0 -54.5 23.5t-23.5 55.5zM97 -12q-28 0 -43.5 7.5t-21 22t-2.5 34.5t13 45l137 356l-92 2l9 26l230 42l-162 -420q-15 -39 -15 -54t16 -15q22 0 61 32.5t78 109.5l25 -11
q-42 -83 -97.5 -130t-135.5 -47z" />
    <glyph glyph-name="i" unicode="&#xef;" horiz-adv-x="342" 
d="M249 716q0 31 23.5 54.5t54.5 23.5q32 0 55 -23.5t23 -54.5q0 -32 -23 -55.5t-55 -23.5q-31 0 -54.5 23.5t-23.5 55.5zM97 -12q-28 0 -43.5 7.5t-21 22t-2.5 34.5t13 45l137 356l-92 2l9 26l230 42l-162 -420q-15 -39 -15 -54t16 -15q22 0 61 32.5t78 109.5l25 -11
q-42 -83 -97.5 -130t-135.5 -47z" />
    <glyph glyph-name="i" unicode="&#xee;" horiz-adv-x="342" 
d="M249 716q0 31 23.5 54.5t54.5 23.5q32 0 55 -23.5t23 -54.5q0 -32 -23 -55.5t-55 -23.5q-31 0 -54.5 23.5t-23.5 55.5zM97 -12q-28 0 -43.5 7.5t-21 22t-2.5 34.5t13 45l137 356l-92 2l9 26l230 42l-162 -420q-15 -39 -15 -54t16 -15q22 0 61 32.5t78 109.5l25 -11
q-42 -83 -97.5 -130t-135.5 -47z" />
    <glyph glyph-name="i" unicode="&#xed;" horiz-adv-x="342" 
d="M249 716q0 31 23.5 54.5t54.5 23.5q32 0 55 -23.5t23 -54.5q0 -32 -23 -55.5t-55 -23.5q-31 0 -54.5 23.5t-23.5 55.5zM97 -12q-28 0 -43.5 7.5t-21 22t-2.5 34.5t13 45l137 356l-92 2l9 26l230 42l-162 -420q-15 -39 -15 -54t16 -15q22 0 61 32.5t78 109.5l25 -11
q-42 -83 -97.5 -130t-135.5 -47z" />
    <glyph glyph-name="i" unicode="&#xec;" horiz-adv-x="342" 
d="M249 716q0 31 23.5 54.5t54.5 23.5q32 0 55 -23.5t23 -54.5q0 -32 -23 -55.5t-55 -23.5q-31 0 -54.5 23.5t-23.5 55.5zM97 -12q-28 0 -43.5 7.5t-21 22t-2.5 34.5t13 45l137 356l-92 2l9 26l230 42l-162 -420q-15 -39 -15 -54t16 -15q22 0 61 32.5t78 109.5l25 -11
q-42 -83 -97.5 -130t-135.5 -47z" />
    <glyph glyph-name="j" unicode="j" horiz-adv-x="302" 
d="M-233 -239q48 31 83.5 55.5t64 54t52 68t47.5 97.5l169 417l-92 2l9 26l231 42l-205 -506q-15 -36 -27 -62t-28 -46t-39 -36.5t-58 -34.5l-197 -99zM260 716q0 31 23.5 54.5t54.5 23.5q32 0 55 -23.5t23 -54.5q0 -32 -23 -55.5t-55 -23.5q-31 0 -54.5 23.5t-23.5 55.5z
" />
    <glyph glyph-name="j" unicode="&#x237;" horiz-adv-x="302" 
d="M-233 -239q48 31 83.5 55.5t64 54t52 68t47.5 97.5l169 417l-92 2l9 26l231 42l-205 -506q-15 -36 -27 -62t-28 -46t-39 -36.5t-58 -34.5l-197 -99zM260 716q0 31 23.5 54.5t54.5 23.5q32 0 55 -23.5t23 -54.5q0 -32 -23 -55.5t-55 -23.5q-31 0 -54.5 23.5t-23.5 55.5z
" />
    <glyph glyph-name="j" unicode="&#x135;" horiz-adv-x="302" 
d="M-233 -239q48 31 83.5 55.5t64 54t52 68t47.5 97.5l169 417l-92 2l9 26l231 42l-205 -506q-15 -36 -27 -62t-28 -46t-39 -36.5t-58 -34.5l-197 -99zM260 716q0 31 23.5 54.5t54.5 23.5q32 0 55 -23.5t23 -54.5q0 -32 -23 -55.5t-55 -23.5q-31 0 -54.5 23.5t-23.5 55.5z
" />
    <glyph glyph-name="k" unicode="k" horiz-adv-x="595" 
d="M415 -33q-48 0 -80.5 31.5t-62.5 100.5l-68 155q-8 -16 -12 -30l-32 -93l-39 -120l-130 -21l238 691l-74 48l2 6l231 58l-106 -306l-50 -129h3q48 78 100 121.5t118 43.5q52 0 72.5 -23.5t20.5 -54.5q0 -29 -16.5 -56t-45 -50t-67.5 -41.5t-83 -31.5l82 -200
q8 -20 14.5 -31.5t12 -17.5t10.5 -8t11 -2q7 0 16 4t19 15.5t21.5 32.5t22.5 55l25 -7q-14 -43 -29.5 -70t-34.5 -42.5t-41 -21.5t-48 -6zM409 482q-26 0 -55 -20.5t-56.5 -53t-52 -73t-41.5 -80.5q51 0 95.5 14t77.5 38.5t52 57t19 69.5q0 23 -8.5 35.5t-30.5 12.5z" />
    <glyph glyph-name="k" unicode="&#x137;" horiz-adv-x="595" 
d="M415 -33q-48 0 -80.5 31.5t-62.5 100.5l-68 155q-8 -16 -12 -30l-32 -93l-39 -120l-130 -21l238 691l-74 48l2 6l231 58l-106 -306l-50 -129h3q48 78 100 121.5t118 43.5q52 0 72.5 -23.5t20.5 -54.5q0 -29 -16.5 -56t-45 -50t-67.5 -41.5t-83 -31.5l82 -200
q8 -20 14.5 -31.5t12 -17.5t10.5 -8t11 -2q7 0 16 4t19 15.5t21.5 32.5t22.5 55l25 -7q-14 -43 -29.5 -70t-34.5 -42.5t-41 -21.5t-48 -6zM409 482q-26 0 -55 -20.5t-56.5 -53t-52 -73t-41.5 -80.5q51 0 95.5 14t77.5 38.5t52 57t19 69.5q0 23 -8.5 35.5t-30.5 12.5z" />
    <glyph glyph-name="l" unicode="l" horiz-adv-x="325" 
d="M85 -12q-28 0 -43 7.5t-20.5 21.5t-2.5 34t12 46l200 584l-74 48l2 6l231 58l-237 -690q-14 -40 -14.5 -54.5t15.5 -14.5q10 0 26 7.5t34.5 24.5t38.5 44t40 66l24 -11q-42 -83 -97.5 -130t-134.5 -47z" />
    <glyph glyph-name="l" unicode="&#x142;" horiz-adv-x="325" 
d="M85 -12q-28 0 -43 7.5t-20.5 21.5t-2.5 34t12 46l200 584l-74 48l2 6l231 58l-237 -690q-14 -40 -14.5 -54.5t15.5 -14.5q10 0 26 7.5t34.5 24.5t38.5 44t40 66l24 -11q-42 -83 -97.5 -130t-134.5 -47z" />
    <glyph glyph-name="l" unicode="&#x140;" horiz-adv-x="325" 
d="M85 -12q-28 0 -43 7.5t-20.5 21.5t-2.5 34t12 46l200 584l-74 48l2 6l231 58l-237 -690q-14 -40 -14.5 -54.5t15.5 -14.5q10 0 26 7.5t34.5 24.5t38.5 44t40 66l24 -11q-42 -83 -97.5 -130t-134.5 -47z" />
    <glyph glyph-name="l" unicode="&#x13e;" horiz-adv-x="325" 
d="M85 -12q-28 0 -43 7.5t-20.5 21.5t-2.5 34t12 46l200 584l-74 48l2 6l231 58l-237 -690q-14 -40 -14.5 -54.5t15.5 -14.5q10 0 26 7.5t34.5 24.5t38.5 44t40 66l24 -11q-42 -83 -97.5 -130t-134.5 -47z" />
    <glyph glyph-name="l" unicode="&#x13c;" horiz-adv-x="325" 
d="M85 -12q-28 0 -43 7.5t-20.5 21.5t-2.5 34t12 46l200 584l-74 48l2 6l231 58l-237 -690q-14 -40 -14.5 -54.5t15.5 -14.5q10 0 26 7.5t34.5 24.5t38.5 44t40 66l24 -11q-42 -83 -97.5 -130t-134.5 -47z" />
    <glyph glyph-name="l" unicode="&#x13a;" horiz-adv-x="325" 
d="M85 -12q-28 0 -43 7.5t-20.5 21.5t-2.5 34t12 46l200 584l-74 48l2 6l231 58l-237 -690q-14 -40 -14.5 -54.5t15.5 -14.5q10 0 26 7.5t34.5 24.5t38.5 44t40 66l24 -11q-42 -83 -97.5 -130t-134.5 -47z" />
    <glyph glyph-name="m" unicode="m" horiz-adv-x="902" 
d="M650 -12q-57 0 -69 30t11 79l108 227q35 74 40 104.5t-18 30.5q-24 0 -57.5 -36t-73.5 -93q-24 -34 -50 -74.5t-50 -83t-44.5 -84t-34.5 -77.5l-125 -21l131 334q29 75 37 105t-15 30q-24 0 -57 -35.5t-73 -92.5q-25 -35 -51 -75.5t-50 -83t-44.5 -84t-33.5 -77.5
l-129 -21l178 463l-92 2l10 26l229 42l-140 -347h1q31 59 62 108.5t57 86.5q55 79 100.5 113.5t96.5 34.5q61 0 64.5 -51.5t-35.5 -142.5l-64 -149h1q31 59 62 108.5t57 86.5q55 79 100.5 113.5t96.5 34.5q61 0 70 -51.5t-34 -142.5l-105 -222q-18 -38 -16 -53.5t17 -15.5
q22 0 61 32.5t79 109.5l24 -11q-42 -83 -97.5 -130t-134.5 -47z" />
    <glyph glyph-name="n" unicode="n" horiz-adv-x="620" 
d="M368 -12q-57 0 -69 30t11 79l108 227q35 74 40 104.5t-18 30.5q-24 0 -57 -35.5t-73 -92.5q-25 -35 -51 -75.5t-50 -83t-44.5 -84t-33.5 -77.5l-129 -21l178 463l-92 2l10 26l229 42l-140 -347h1q31 59 62 108.5t57 86.5q55 79 100.5 113.5t96.5 34.5q61 0 71 -51.5
t-34 -142.5l-106 -222q-18 -38 -16 -53.5t17 -15.5q22 0 61 32.5t79 109.5l24 -11q-42 -83 -97.5 -130t-134.5 -47z" />
    <glyph glyph-name="n" unicode="&#x14b;" horiz-adv-x="620" 
d="M368 -12q-57 0 -69 30t11 79l108 227q35 74 40 104.5t-18 30.5q-24 0 -57 -35.5t-73 -92.5q-25 -35 -51 -75.5t-50 -83t-44.5 -84t-33.5 -77.5l-129 -21l178 463l-92 2l10 26l229 42l-140 -347h1q31 59 62 108.5t57 86.5q55 79 100.5 113.5t96.5 34.5q61 0 71 -51.5
t-34 -142.5l-106 -222q-18 -38 -16 -53.5t17 -15.5q22 0 61 32.5t79 109.5l24 -11q-42 -83 -97.5 -130t-134.5 -47z" />
    <glyph glyph-name="n" unicode="&#x148;" horiz-adv-x="620" 
d="M368 -12q-57 0 -69 30t11 79l108 227q35 74 40 104.5t-18 30.5q-24 0 -57 -35.5t-73 -92.5q-25 -35 -51 -75.5t-50 -83t-44.5 -84t-33.5 -77.5l-129 -21l178 463l-92 2l10 26l229 42l-140 -347h1q31 59 62 108.5t57 86.5q55 79 100.5 113.5t96.5 34.5q61 0 71 -51.5
t-34 -142.5l-106 -222q-18 -38 -16 -53.5t17 -15.5q22 0 61 32.5t79 109.5l24 -11q-42 -83 -97.5 -130t-134.5 -47z" />
    <glyph glyph-name="n" unicode="&#x146;" horiz-adv-x="620" 
d="M368 -12q-57 0 -69 30t11 79l108 227q35 74 40 104.5t-18 30.5q-24 0 -57 -35.5t-73 -92.5q-25 -35 -51 -75.5t-50 -83t-44.5 -84t-33.5 -77.5l-129 -21l178 463l-92 2l10 26l229 42l-140 -347h1q31 59 62 108.5t57 86.5q55 79 100.5 113.5t96.5 34.5q61 0 71 -51.5
t-34 -142.5l-106 -222q-18 -38 -16 -53.5t17 -15.5q22 0 61 32.5t79 109.5l24 -11q-42 -83 -97.5 -130t-134.5 -47z" />
    <glyph glyph-name="n" unicode="&#x144;" horiz-adv-x="620" 
d="M368 -12q-57 0 -69 30t11 79l108 227q35 74 40 104.5t-18 30.5q-24 0 -57 -35.5t-73 -92.5q-25 -35 -51 -75.5t-50 -83t-44.5 -84t-33.5 -77.5l-129 -21l178 463l-92 2l10 26l229 42l-140 -347h1q31 59 62 108.5t57 86.5q55 79 100.5 113.5t96.5 34.5q61 0 71 -51.5
t-34 -142.5l-106 -222q-18 -38 -16 -53.5t17 -15.5q22 0 61 32.5t79 109.5l24 -11q-42 -83 -97.5 -130t-134.5 -47z" />
    <glyph glyph-name="n" unicode="&#xf1;" horiz-adv-x="620" 
d="M368 -12q-57 0 -69 30t11 79l108 227q35 74 40 104.5t-18 30.5q-24 0 -57 -35.5t-73 -92.5q-25 -35 -51 -75.5t-50 -83t-44.5 -84t-33.5 -77.5l-129 -21l178 463l-92 2l10 26l229 42l-140 -347h1q31 59 62 108.5t57 86.5q55 79 100.5 113.5t96.5 34.5q61 0 71 -51.5
t-34 -142.5l-106 -222q-18 -38 -16 -53.5t17 -15.5q22 0 61 32.5t79 109.5l24 -11q-42 -83 -97.5 -130t-134.5 -47z" />
    <glyph glyph-name="o" unicode="o" horiz-adv-x="534" 
d="M173 -12q-36 0 -64 11.5t-47.5 31.5t-29.5 47.5t-10 59.5q0 68 28.5 136t75.5 122.5t109 88.5t128 34q36 0 64 -11.5t47.5 -32t29.5 -48t10 -58.5q0 -69 -28.5 -137t-75.5 -122t-108.5 -88t-128.5 -34zM217 22q27 0 56 25.5t53 72.5t39.5 112t15.5 145q0 107 -60 107
q-28 0 -57.5 -25.5t-53.5 -72t-39 -112t-15 -144.5q0 -108 61 -108z" />
    <glyph glyph-name="o" unicode="&#x1ecd;" horiz-adv-x="534" 
d="M173 -12q-36 0 -64 11.5t-47.5 31.5t-29.5 47.5t-10 59.5q0 68 28.5 136t75.5 122.5t109 88.5t128 34q36 0 64 -11.5t47.5 -32t29.5 -48t10 -58.5q0 -69 -28.5 -137t-75.5 -122t-108.5 -88t-128.5 -34zM217 22q27 0 56 25.5t53 72.5t39.5 112t15.5 145q0 107 -60 107
q-28 0 -57.5 -25.5t-53.5 -72t-39 -112t-15 -144.5q0 -108 61 -108z" />
    <glyph glyph-name="o" unicode="&#x153;" horiz-adv-x="534" 
d="M173 -12q-36 0 -64 11.5t-47.5 31.5t-29.5 47.5t-10 59.5q0 68 28.5 136t75.5 122.5t109 88.5t128 34q36 0 64 -11.5t47.5 -32t29.5 -48t10 -58.5q0 -69 -28.5 -137t-75.5 -122t-108.5 -88t-128.5 -34zM217 22q27 0 56 25.5t53 72.5t39.5 112t15.5 145q0 107 -60 107
q-28 0 -57.5 -25.5t-53.5 -72t-39 -112t-15 -144.5q0 -108 61 -108z" />
    <glyph glyph-name="o" unicode="&#x151;" horiz-adv-x="534" 
d="M173 -12q-36 0 -64 11.5t-47.5 31.5t-29.5 47.5t-10 59.5q0 68 28.5 136t75.5 122.5t109 88.5t128 34q36 0 64 -11.5t47.5 -32t29.5 -48t10 -58.5q0 -69 -28.5 -137t-75.5 -122t-108.5 -88t-128.5 -34zM217 22q27 0 56 25.5t53 72.5t39.5 112t15.5 145q0 107 -60 107
q-28 0 -57.5 -25.5t-53.5 -72t-39 -112t-15 -144.5q0 -108 61 -108z" />
    <glyph glyph-name="o" unicode="&#x14f;" horiz-adv-x="534" 
d="M173 -12q-36 0 -64 11.5t-47.5 31.5t-29.5 47.5t-10 59.5q0 68 28.5 136t75.5 122.5t109 88.5t128 34q36 0 64 -11.5t47.5 -32t29.5 -48t10 -58.5q0 -69 -28.5 -137t-75.5 -122t-108.5 -88t-128.5 -34zM217 22q27 0 56 25.5t53 72.5t39.5 112t15.5 145q0 107 -60 107
q-28 0 -57.5 -25.5t-53.5 -72t-39 -112t-15 -144.5q0 -108 61 -108z" />
    <glyph glyph-name="o" unicode="&#x14d;" horiz-adv-x="534" 
d="M173 -12q-36 0 -64 11.5t-47.5 31.5t-29.5 47.5t-10 59.5q0 68 28.5 136t75.5 122.5t109 88.5t128 34q36 0 64 -11.5t47.5 -32t29.5 -48t10 -58.5q0 -69 -28.5 -137t-75.5 -122t-108.5 -88t-128.5 -34zM217 22q27 0 56 25.5t53 72.5t39.5 112t15.5 145q0 107 -60 107
q-28 0 -57.5 -25.5t-53.5 -72t-39 -112t-15 -144.5q0 -108 61 -108z" />
    <glyph glyph-name="o" unicode="&#xf8;" horiz-adv-x="534" 
d="M173 -12q-36 0 -64 11.5t-47.5 31.5t-29.5 47.5t-10 59.5q0 68 28.5 136t75.5 122.5t109 88.5t128 34q36 0 64 -11.5t47.5 -32t29.5 -48t10 -58.5q0 -69 -28.5 -137t-75.5 -122t-108.5 -88t-128.5 -34zM217 22q27 0 56 25.5t53 72.5t39.5 112t15.5 145q0 107 -60 107
q-28 0 -57.5 -25.5t-53.5 -72t-39 -112t-15 -144.5q0 -108 61 -108z" />
    <glyph glyph-name="o" unicode="&#xf6;" horiz-adv-x="534" 
d="M173 -12q-36 0 -64 11.5t-47.5 31.5t-29.5 47.5t-10 59.5q0 68 28.5 136t75.5 122.5t109 88.5t128 34q36 0 64 -11.5t47.5 -32t29.5 -48t10 -58.5q0 -69 -28.5 -137t-75.5 -122t-108.5 -88t-128.5 -34zM217 22q27 0 56 25.5t53 72.5t39.5 112t15.5 145q0 107 -60 107
q-28 0 -57.5 -25.5t-53.5 -72t-39 -112t-15 -144.5q0 -108 61 -108z" />
    <glyph glyph-name="o" unicode="&#xf5;" horiz-adv-x="534" 
d="M173 -12q-36 0 -64 11.5t-47.5 31.5t-29.5 47.5t-10 59.5q0 68 28.5 136t75.5 122.5t109 88.5t128 34q36 0 64 -11.5t47.5 -32t29.5 -48t10 -58.5q0 -69 -28.5 -137t-75.5 -122t-108.5 -88t-128.5 -34zM217 22q27 0 56 25.5t53 72.5t39.5 112t15.5 145q0 107 -60 107
q-28 0 -57.5 -25.5t-53.5 -72t-39 -112t-15 -144.5q0 -108 61 -108z" />
    <glyph glyph-name="o" unicode="&#xf4;" horiz-adv-x="534" 
d="M173 -12q-36 0 -64 11.5t-47.5 31.5t-29.5 47.5t-10 59.5q0 68 28.5 136t75.5 122.5t109 88.5t128 34q36 0 64 -11.5t47.5 -32t29.5 -48t10 -58.5q0 -69 -28.5 -137t-75.5 -122t-108.5 -88t-128.5 -34zM217 22q27 0 56 25.5t53 72.5t39.5 112t15.5 145q0 107 -60 107
q-28 0 -57.5 -25.5t-53.5 -72t-39 -112t-15 -144.5q0 -108 61 -108z" />
    <glyph glyph-name="o" unicode="&#xf3;" horiz-adv-x="534" 
d="M173 -12q-36 0 -64 11.5t-47.5 31.5t-29.5 47.5t-10 59.5q0 68 28.5 136t75.5 122.5t109 88.5t128 34q36 0 64 -11.5t47.5 -32t29.5 -48t10 -58.5q0 -69 -28.5 -137t-75.5 -122t-108.5 -88t-128.5 -34zM217 22q27 0 56 25.5t53 72.5t39.5 112t15.5 145q0 107 -60 107
q-28 0 -57.5 -25.5t-53.5 -72t-39 -112t-15 -144.5q0 -108 61 -108z" />
    <glyph glyph-name="o" unicode="&#xf2;" horiz-adv-x="534" 
d="M173 -12q-36 0 -64 11.5t-47.5 31.5t-29.5 47.5t-10 59.5q0 68 28.5 136t75.5 122.5t109 88.5t128 34q36 0 64 -11.5t47.5 -32t29.5 -48t10 -58.5q0 -69 -28.5 -137t-75.5 -122t-108.5 -88t-128.5 -34zM217 22q27 0 56 25.5t53 72.5t39.5 112t15.5 145q0 107 -60 107
q-28 0 -57.5 -25.5t-53.5 -72t-39 -112t-15 -144.5q0 -108 61 -108z" />
    <glyph glyph-name="p" unicode="p" horiz-adv-x="578" 
d="M174 453l-92 2l9 26l228 42l-28 -81q30 34 71 55.5t83 21.5q58 0 91 -34t33 -92q0 -48 -16 -97.5t-45 -95t-69.5 -85.5t-88.5 -68.5t-102.5 -44t-112.5 -12.5l-82 -238h-120zM363 450q-44 0 -81 -34l-138 -400q40 -2 76.5 13.5t69 42.5t59.5 62t46.5 73.5t30 77.5
t10.5 72q0 51 -20.5 72t-52.5 21z" />
    <glyph glyph-name="p" unicode="&#xfe;" horiz-adv-x="578" 
d="M174 453l-92 2l9 26l228 42l-28 -81q30 34 71 55.5t83 21.5q58 0 91 -34t33 -92q0 -48 -16 -97.5t-45 -95t-69.5 -85.5t-88.5 -68.5t-102.5 -44t-112.5 -12.5l-82 -238h-120zM363 450q-44 0 -81 -34l-138 -400q40 -2 76.5 13.5t69 42.5t59.5 62t46.5 73.5t30 77.5
t10.5 72q0 51 -20.5 72t-52.5 21z" />
    <glyph glyph-name="q" unicode="q" horiz-adv-x="553" 
d="M284 55l43 100h-2q-56 -87 -108 -127t-115 -40q-44 0 -69.5 29.5t-25.5 81.5q0 45 16 93.5t42.5 95t61.5 88.5t74 74t79 50.5t76 18.5q30 0 49.5 -15.5t24.5 -43.5h2l20 56h112l-263 -764h-120zM140 117q0 -65 39 -65q21 0 49 24.5t56.5 63t54 84.5t41.5 89q34 90 25 135
t-46 45q-28 0 -54.5 -18t-51 -48t-45 -69.5t-36 -81t-24 -83t-8.5 -76.5z" />
    <glyph glyph-name="r" unicode="r" horiz-adv-x="467" 
d="M180 453l-92 2l9 26l229 42l-131 -335h1q42 78 68.5 126t43.5 75q21 33 39 57.5t35.5 40.5t36 23.5t40.5 7.5q29 0 45.5 -18.5t16.5 -46.5q0 -32 -21 -55.5t-63 -28.5q-3 6 -9.5 18t-13.5 25t-13.5 25t-10.5 17q-25 -27 -54 -70.5t-59.5 -96t-62.5 -110.5t-63 -114
l-20 -52l-128 -21z" />
    <glyph glyph-name="r" unicode="&#x159;" horiz-adv-x="467" 
d="M180 453l-92 2l9 26l229 42l-131 -335h1q42 78 68.5 126t43.5 75q21 33 39 57.5t35.5 40.5t36 23.5t40.5 7.5q29 0 45.5 -18.5t16.5 -46.5q0 -32 -21 -55.5t-63 -28.5q-3 6 -9.5 18t-13.5 25t-13.5 25t-10.5 17q-25 -27 -54 -70.5t-59.5 -96t-62.5 -110.5t-63 -114
l-20 -52l-128 -21z" />
    <glyph glyph-name="r" unicode="&#x157;" horiz-adv-x="467" 
d="M180 453l-92 2l9 26l229 42l-131 -335h1q42 78 68.5 126t43.5 75q21 33 39 57.5t35.5 40.5t36 23.5t40.5 7.5q29 0 45.5 -18.5t16.5 -46.5q0 -32 -21 -55.5t-63 -28.5q-3 6 -9.5 18t-13.5 25t-13.5 25t-10.5 17q-25 -27 -54 -70.5t-59.5 -96t-62.5 -110.5t-63 -114
l-20 -52l-128 -21z" />
    <glyph glyph-name="r" unicode="&#x155;" horiz-adv-x="467" 
d="M180 453l-92 2l9 26l229 42l-131 -335h1q42 78 68.5 126t43.5 75q21 33 39 57.5t35.5 40.5t36 23.5t40.5 7.5q29 0 45.5 -18.5t16.5 -46.5q0 -32 -21 -55.5t-63 -28.5q-3 6 -9.5 18t-13.5 25t-13.5 25t-10.5 17q-25 -27 -54 -70.5t-59.5 -96t-62.5 -110.5t-63 -114
l-20 -52l-128 -21z" />
    <glyph glyph-name="s" unicode="s" horiz-adv-x="401" 
d="M113 -12q-57 0 -90 26.5t-33 62.5q0 34 27 51.5t62 15.5q12 -44 19.5 -69t13.5 -37.5t11 -16t12 -3.5q13 0 29.5 5t30 15t23 24t9.5 32q0 22 -13 44t-35 51l-38 50q-46 61 -46 113q0 36 18.5 66.5t48.5 53t67.5 35t75.5 12.5q48 0 76.5 -20.5t28.5 -54.5q0 -14 -5.5 -27
t-16 -23t-26.5 -15t-37 -3q-11 38 -17 60.5t-11 34t-9.5 15t-11.5 3.5q-14 0 -30 -4.5t-29.5 -13t-22.5 -20.5t-9 -27q0 -17 10.5 -40t34.5 -54l40 -52q23 -29 34.5 -55.5t11.5 -58.5q0 -41 -19 -73.5t-48 -55.5t-65.5 -35t-70.5 -12z" />
    <glyph glyph-name="s" unicode="&#x219;" horiz-adv-x="401" 
d="M113 -12q-57 0 -90 26.5t-33 62.5q0 34 27 51.5t62 15.5q12 -44 19.5 -69t13.5 -37.5t11 -16t12 -3.5q13 0 29.5 5t30 15t23 24t9.5 32q0 22 -13 44t-35 51l-38 50q-46 61 -46 113q0 36 18.5 66.5t48.5 53t67.5 35t75.5 12.5q48 0 76.5 -20.5t28.5 -54.5q0 -14 -5.5 -27
t-16 -23t-26.5 -15t-37 -3q-11 38 -17 60.5t-11 34t-9.5 15t-11.5 3.5q-14 0 -30 -4.5t-29.5 -13t-22.5 -20.5t-9 -27q0 -17 10.5 -40t34.5 -54l40 -52q23 -29 34.5 -55.5t11.5 -58.5q0 -41 -19 -73.5t-48 -55.5t-65.5 -35t-70.5 -12z" />
    <glyph glyph-name="s" unicode="&#x161;" horiz-adv-x="401" 
d="M113 -12q-57 0 -90 26.5t-33 62.5q0 34 27 51.5t62 15.5q12 -44 19.5 -69t13.5 -37.5t11 -16t12 -3.5q13 0 29.5 5t30 15t23 24t9.5 32q0 22 -13 44t-35 51l-38 50q-46 61 -46 113q0 36 18.5 66.5t48.5 53t67.5 35t75.5 12.5q48 0 76.5 -20.5t28.5 -54.5q0 -14 -5.5 -27
t-16 -23t-26.5 -15t-37 -3q-11 38 -17 60.5t-11 34t-9.5 15t-11.5 3.5q-14 0 -30 -4.5t-29.5 -13t-22.5 -20.5t-9 -27q0 -17 10.5 -40t34.5 -54l40 -52q23 -29 34.5 -55.5t11.5 -58.5q0 -41 -19 -73.5t-48 -55.5t-65.5 -35t-70.5 -12z" />
    <glyph glyph-name="s" unicode="&#x15f;" horiz-adv-x="401" 
d="M113 -12q-57 0 -90 26.5t-33 62.5q0 34 27 51.5t62 15.5q12 -44 19.5 -69t13.5 -37.5t11 -16t12 -3.5q13 0 29.5 5t30 15t23 24t9.5 32q0 22 -13 44t-35 51l-38 50q-46 61 -46 113q0 36 18.5 66.5t48.5 53t67.5 35t75.5 12.5q48 0 76.5 -20.5t28.5 -54.5q0 -14 -5.5 -27
t-16 -23t-26.5 -15t-37 -3q-11 38 -17 60.5t-11 34t-9.5 15t-11.5 3.5q-14 0 -30 -4.5t-29.5 -13t-22.5 -20.5t-9 -27q0 -17 10.5 -40t34.5 -54l40 -52q23 -29 34.5 -55.5t11.5 -58.5q0 -41 -19 -73.5t-48 -55.5t-65.5 -35t-70.5 -12z" />
    <glyph glyph-name="s" unicode="&#x15d;" horiz-adv-x="401" 
d="M113 -12q-57 0 -90 26.5t-33 62.5q0 34 27 51.5t62 15.5q12 -44 19.5 -69t13.5 -37.5t11 -16t12 -3.5q13 0 29.5 5t30 15t23 24t9.5 32q0 22 -13 44t-35 51l-38 50q-46 61 -46 113q0 36 18.5 66.5t48.5 53t67.5 35t75.5 12.5q48 0 76.5 -20.5t28.5 -54.5q0 -14 -5.5 -27
t-16 -23t-26.5 -15t-37 -3q-11 38 -17 60.5t-11 34t-9.5 15t-11.5 3.5q-14 0 -30 -4.5t-29.5 -13t-22.5 -20.5t-9 -27q0 -17 10.5 -40t34.5 -54l40 -52q23 -29 34.5 -55.5t11.5 -58.5q0 -41 -19 -73.5t-48 -55.5t-65.5 -35t-70.5 -12z" />
    <glyph glyph-name="s" unicode="&#x15b;" horiz-adv-x="401" 
d="M113 -12q-57 0 -90 26.5t-33 62.5q0 34 27 51.5t62 15.5q12 -44 19.5 -69t13.5 -37.5t11 -16t12 -3.5q13 0 29.5 5t30 15t23 24t9.5 32q0 22 -13 44t-35 51l-38 50q-46 61 -46 113q0 36 18.5 66.5t48.5 53t67.5 35t75.5 12.5q48 0 76.5 -20.5t28.5 -54.5q0 -14 -5.5 -27
t-16 -23t-26.5 -15t-37 -3q-11 38 -17 60.5t-11 34t-9.5 15t-11.5 3.5q-14 0 -30 -4.5t-29.5 -13t-22.5 -20.5t-9 -27q0 -17 10.5 -40t34.5 -54l40 -52q23 -29 34.5 -55.5t11.5 -58.5q0 -41 -19 -73.5t-48 -55.5t-65.5 -35t-70.5 -12z" />
    <glyph glyph-name="s" unicode="&#xdf;" horiz-adv-x="401" 
d="M113 -12q-57 0 -90 26.5t-33 62.5q0 34 27 51.5t62 15.5q12 -44 19.5 -69t13.5 -37.5t11 -16t12 -3.5q13 0 29.5 5t30 15t23 24t9.5 32q0 22 -13 44t-35 51l-38 50q-46 61 -46 113q0 36 18.5 66.5t48.5 53t67.5 35t75.5 12.5q48 0 76.5 -20.5t28.5 -54.5q0 -14 -5.5 -27
t-16 -23t-26.5 -15t-37 -3q-11 38 -17 60.5t-11 34t-9.5 15t-11.5 3.5q-14 0 -30 -4.5t-29.5 -13t-22.5 -20.5t-9 -27q0 -17 10.5 -40t34.5 -54l40 -52q23 -29 34.5 -55.5t11.5 -58.5q0 -41 -19 -73.5t-48 -55.5t-65.5 -35t-70.5 -12z" />
    <glyph glyph-name="t" unicode="t" horiz-adv-x="395" 
d="M100 -12q-56 0 -65.5 29.5t10.5 79.5l138 341h-114l25 64h115l46 114h119l-45 -114h136l-25 -64h-137l-134 -335q-16 -39 -16 -54t15 -15q22 0 62 32.5t80 109.5l24 -11q-42 -83 -98.5 -130t-135.5 -47z" />
    <glyph glyph-name="t" unicode="&#x21b;" horiz-adv-x="395" 
d="M100 -12q-56 0 -65.5 29.5t10.5 79.5l138 341h-114l25 64h115l46 114h119l-45 -114h136l-25 -64h-137l-134 -335q-16 -39 -16 -54t15 -15q22 0 62 32.5t80 109.5l24 -11q-42 -83 -98.5 -130t-135.5 -47z" />
    <glyph glyph-name="t" unicode="&#x167;" horiz-adv-x="395" 
d="M100 -12q-56 0 -65.5 29.5t10.5 79.5l138 341h-114l25 64h115l46 114h119l-45 -114h136l-25 -64h-137l-134 -335q-16 -39 -16 -54t15 -15q22 0 62 32.5t80 109.5l24 -11q-42 -83 -98.5 -130t-135.5 -47z" />
    <glyph glyph-name="t" unicode="&#x165;" horiz-adv-x="395" 
d="M100 -12q-56 0 -65.5 29.5t10.5 79.5l138 341h-114l25 64h115l46 114h119l-45 -114h136l-25 -64h-137l-134 -335q-16 -39 -16 -54t15 -15q22 0 62 32.5t80 109.5l24 -11q-42 -83 -98.5 -130t-135.5 -47z" />
    <glyph glyph-name="t" unicode="&#x163;" horiz-adv-x="395" 
d="M100 -12q-56 0 -65.5 29.5t10.5 79.5l138 341h-114l25 64h115l46 114h119l-45 -114h136l-25 -64h-137l-134 -335q-16 -39 -16 -54t15 -15q22 0 62 32.5t80 109.5l24 -11q-42 -83 -98.5 -130t-135.5 -47z" />
    <glyph glyph-name="u" unicode="u" horiz-adv-x="618" 
d="M187 183q-33 -75 -38.5 -105t16.5 -30q24 0 57 36t74 93q24 34 49 74t48.5 82t44.5 83.5t37 78.5l126 20l-159 -412q-15 -39 -15 -54t16 -15q10 0 26 7.5t34.5 24.5t38.5 44t40 66l25 -11q-42 -83 -98 -130t-135 -47q-28 0 -43.5 7.5t-21.5 22t-2.5 34.5t13.5 45l88 219
h-1q-26 -51 -56 -97.5t-54 -81.5q-54 -79 -99 -114t-97 -35q-60 0 -69.5 49t32.5 145l118 271l-93 2l10 26l237 42z" />
    <glyph glyph-name="u" unicode="&#x1ee5;" horiz-adv-x="618" 
d="M187 183q-33 -75 -38.5 -105t16.5 -30q24 0 57 36t74 93q24 34 49 74t48.5 82t44.5 83.5t37 78.5l126 20l-159 -412q-15 -39 -15 -54t16 -15q10 0 26 7.5t34.5 24.5t38.5 44t40 66l25 -11q-42 -83 -98 -130t-135 -47q-28 0 -43.5 7.5t-21.5 22t-2.5 34.5t13.5 45l88 219
h-1q-26 -51 -56 -97.5t-54 -81.5q-54 -79 -99 -114t-97 -35q-60 0 -69.5 49t32.5 145l118 271l-93 2l10 26l237 42z" />
    <glyph glyph-name="u" unicode="&#x173;" horiz-adv-x="618" 
d="M187 183q-33 -75 -38.5 -105t16.5 -30q24 0 57 36t74 93q24 34 49 74t48.5 82t44.5 83.5t37 78.5l126 20l-159 -412q-15 -39 -15 -54t16 -15q10 0 26 7.5t34.5 24.5t38.5 44t40 66l25 -11q-42 -83 -98 -130t-135 -47q-28 0 -43.5 7.5t-21.5 22t-2.5 34.5t13.5 45l88 219
h-1q-26 -51 -56 -97.5t-54 -81.5q-54 -79 -99 -114t-97 -35q-60 0 -69.5 49t32.5 145l118 271l-93 2l10 26l237 42z" />
    <glyph glyph-name="u" unicode="&#x171;" horiz-adv-x="618" 
d="M187 183q-33 -75 -38.5 -105t16.5 -30q24 0 57 36t74 93q24 34 49 74t48.5 82t44.5 83.5t37 78.5l126 20l-159 -412q-15 -39 -15 -54t16 -15q10 0 26 7.5t34.5 24.5t38.5 44t40 66l25 -11q-42 -83 -98 -130t-135 -47q-28 0 -43.5 7.5t-21.5 22t-2.5 34.5t13.5 45l88 219
h-1q-26 -51 -56 -97.5t-54 -81.5q-54 -79 -99 -114t-97 -35q-60 0 -69.5 49t32.5 145l118 271l-93 2l10 26l237 42z" />
    <glyph glyph-name="u" unicode="&#x16f;" horiz-adv-x="618" 
d="M187 183q-33 -75 -38.5 -105t16.5 -30q24 0 57 36t74 93q24 34 49 74t48.5 82t44.5 83.5t37 78.5l126 20l-159 -412q-15 -39 -15 -54t16 -15q10 0 26 7.5t34.5 24.5t38.5 44t40 66l25 -11q-42 -83 -98 -130t-135 -47q-28 0 -43.5 7.5t-21.5 22t-2.5 34.5t13.5 45l88 219
h-1q-26 -51 -56 -97.5t-54 -81.5q-54 -79 -99 -114t-97 -35q-60 0 -69.5 49t32.5 145l118 271l-93 2l10 26l237 42z" />
    <glyph glyph-name="u" unicode="&#x16d;" horiz-adv-x="618" 
d="M187 183q-33 -75 -38.5 -105t16.5 -30q24 0 57 36t74 93q24 34 49 74t48.5 82t44.5 83.5t37 78.5l126 20l-159 -412q-15 -39 -15 -54t16 -15q10 0 26 7.5t34.5 24.5t38.5 44t40 66l25 -11q-42 -83 -98 -130t-135 -47q-28 0 -43.5 7.5t-21.5 22t-2.5 34.5t13.5 45l88 219
h-1q-26 -51 -56 -97.5t-54 -81.5q-54 -79 -99 -114t-97 -35q-60 0 -69.5 49t32.5 145l118 271l-93 2l10 26l237 42z" />
    <glyph glyph-name="u" unicode="&#x16b;" horiz-adv-x="618" 
d="M187 183q-33 -75 -38.5 -105t16.5 -30q24 0 57 36t74 93q24 34 49 74t48.5 82t44.5 83.5t37 78.5l126 20l-159 -412q-15 -39 -15 -54t16 -15q10 0 26 7.5t34.5 24.5t38.5 44t40 66l25 -11q-42 -83 -98 -130t-135 -47q-28 0 -43.5 7.5t-21.5 22t-2.5 34.5t13.5 45l88 219
h-1q-26 -51 -56 -97.5t-54 -81.5q-54 -79 -99 -114t-97 -35q-60 0 -69.5 49t32.5 145l118 271l-93 2l10 26l237 42z" />
    <glyph glyph-name="u" unicode="&#x169;" horiz-adv-x="618" 
d="M187 183q-33 -75 -38.5 -105t16.5 -30q24 0 57 36t74 93q24 34 49 74t48.5 82t44.5 83.5t37 78.5l126 20l-159 -412q-15 -39 -15 -54t16 -15q10 0 26 7.5t34.5 24.5t38.5 44t40 66l25 -11q-42 -83 -98 -130t-135 -47q-28 0 -43.5 7.5t-21.5 22t-2.5 34.5t13.5 45l88 219
h-1q-26 -51 -56 -97.5t-54 -81.5q-54 -79 -99 -114t-97 -35q-60 0 -69.5 49t32.5 145l118 271l-93 2l10 26l237 42z" />
    <glyph glyph-name="u" unicode="&#xfc;" horiz-adv-x="618" 
d="M187 183q-33 -75 -38.5 -105t16.5 -30q24 0 57 36t74 93q24 34 49 74t48.5 82t44.5 83.5t37 78.5l126 20l-159 -412q-15 -39 -15 -54t16 -15q10 0 26 7.5t34.5 24.5t38.5 44t40 66l25 -11q-42 -83 -98 -130t-135 -47q-28 0 -43.5 7.5t-21.5 22t-2.5 34.5t13.5 45l88 219
h-1q-26 -51 -56 -97.5t-54 -81.5q-54 -79 -99 -114t-97 -35q-60 0 -69.5 49t32.5 145l118 271l-93 2l10 26l237 42z" />
    <glyph glyph-name="u" unicode="&#xfb;" horiz-adv-x="618" 
d="M187 183q-33 -75 -38.5 -105t16.5 -30q24 0 57 36t74 93q24 34 49 74t48.5 82t44.5 83.5t37 78.5l126 20l-159 -412q-15 -39 -15 -54t16 -15q10 0 26 7.5t34.5 24.5t38.5 44t40 66l25 -11q-42 -83 -98 -130t-135 -47q-28 0 -43.5 7.5t-21.5 22t-2.5 34.5t13.5 45l88 219
h-1q-26 -51 -56 -97.5t-54 -81.5q-54 -79 -99 -114t-97 -35q-60 0 -69.5 49t32.5 145l118 271l-93 2l10 26l237 42z" />
    <glyph glyph-name="u" unicode="&#xfa;" horiz-adv-x="618" 
d="M187 183q-33 -75 -38.5 -105t16.5 -30q24 0 57 36t74 93q24 34 49 74t48.5 82t44.5 83.5t37 78.5l126 20l-159 -412q-15 -39 -15 -54t16 -15q10 0 26 7.5t34.5 24.5t38.5 44t40 66l25 -11q-42 -83 -98 -130t-135 -47q-28 0 -43.5 7.5t-21.5 22t-2.5 34.5t13.5 45l88 219
h-1q-26 -51 -56 -97.5t-54 -81.5q-54 -79 -99 -114t-97 -35q-60 0 -69.5 49t32.5 145l118 271l-93 2l10 26l237 42z" />
    <glyph glyph-name="u" unicode="&#xf9;" horiz-adv-x="618" 
d="M187 183q-33 -75 -38.5 -105t16.5 -30q24 0 57 36t74 93q24 34 49 74t48.5 82t44.5 83.5t37 78.5l126 20l-159 -412q-15 -39 -15 -54t16 -15q10 0 26 7.5t34.5 24.5t38.5 44t40 66l25 -11q-42 -83 -98 -130t-135 -47q-28 0 -43.5 7.5t-21.5 22t-2.5 34.5t13.5 45l88 219
h-1q-26 -51 -56 -97.5t-54 -81.5q-54 -79 -99 -114t-97 -35q-60 0 -69.5 49t32.5 145l118 271l-93 2l10 26l237 42z" />
    <glyph glyph-name="v" unicode="v" horiz-adv-x="561" 
d="M547 422q0 -82 -29 -160t-78 -139t-114.5 -98t-137.5 -37q-60 0 -89 31.5t-29 79.5q0 74 57 151t151 151h-191l-45 -81h-27l82 182h301q-41 -38 -80.5 -77t-71 -78.5t-51 -79t-19.5 -79.5q0 -49 25 -69t67 -20q35 0 72 14.5t70 43t60 70.5t43 96l-91 114q-7 38 12 60
t48 22q13 0 25 -4.5t21 -15.5t14 -30t5 -47z" />
    <glyph glyph-name="w" unicode="w" horiz-adv-x="806" 
d="M164 -12q-49 0 -72.5 27.5t-23.5 76.5q0 73 56.5 151t156.5 158h-194l-45 -81h-27l82 182h304q-41 -39 -81 -77.5t-72.5 -78t-52.5 -80t-20 -81.5q0 -42 20.5 -64t60.5 -22q48 0 94 25q-8 37 -8 74q0 55 17 112t44.5 103.5t62 76t69.5 29.5q55 0 55 -64q0 -20 -5.5 -48
t-18 -60.5t-33.5 -69t-52 -73.5q-13 -16 -27 -31.5t-28 -30.5q43 -43 110 -43q34 0 67 14t61.5 42.5t50 70t31.5 97.5l-91 114q-7 38 12 60t48 22q26 0 45 -20t19 -77q0 -45 -8.5 -95t-25 -98.5t-41 -92t-56.5 -76.5t-71 -52.5t-84 -19.5q-48 0 -80.5 26t-49.5 69
q-49 -42 -100 -68.5t-99 -26.5zM380 267q0 -60 27 -101q23 20 47 47q49 54 65.5 92t16.5 64q0 25 -13.5 38.5t-35.5 13.5q-19 0 -38 -10.5t-34.5 -30.5t-25 -48.5t-9.5 -64.5z" />
    <glyph glyph-name="w" unicode="&#x1e85;" horiz-adv-x="806" 
d="M164 -12q-49 0 -72.5 27.5t-23.5 76.5q0 73 56.5 151t156.5 158h-194l-45 -81h-27l82 182h304q-41 -39 -81 -77.5t-72.5 -78t-52.5 -80t-20 -81.5q0 -42 20.5 -64t60.5 -22q48 0 94 25q-8 37 -8 74q0 55 17 112t44.5 103.5t62 76t69.5 29.5q55 0 55 -64q0 -20 -5.5 -48
t-18 -60.5t-33.5 -69t-52 -73.5q-13 -16 -27 -31.5t-28 -30.5q43 -43 110 -43q34 0 67 14t61.5 42.5t50 70t31.5 97.5l-91 114q-7 38 12 60t48 22q26 0 45 -20t19 -77q0 -45 -8.5 -95t-25 -98.5t-41 -92t-56.5 -76.5t-71 -52.5t-84 -19.5q-48 0 -80.5 26t-49.5 69
q-49 -42 -100 -68.5t-99 -26.5zM380 267q0 -60 27 -101q23 20 47 47q49 54 65.5 92t16.5 64q0 25 -13.5 38.5t-35.5 13.5q-19 0 -38 -10.5t-34.5 -30.5t-25 -48.5t-9.5 -64.5z" />
    <glyph glyph-name="w" unicode="&#x1e83;" horiz-adv-x="806" 
d="M164 -12q-49 0 -72.5 27.5t-23.5 76.5q0 73 56.5 151t156.5 158h-194l-45 -81h-27l82 182h304q-41 -39 -81 -77.5t-72.5 -78t-52.5 -80t-20 -81.5q0 -42 20.5 -64t60.5 -22q48 0 94 25q-8 37 -8 74q0 55 17 112t44.5 103.5t62 76t69.5 29.5q55 0 55 -64q0 -20 -5.5 -48
t-18 -60.5t-33.5 -69t-52 -73.5q-13 -16 -27 -31.5t-28 -30.5q43 -43 110 -43q34 0 67 14t61.5 42.5t50 70t31.5 97.5l-91 114q-7 38 12 60t48 22q26 0 45 -20t19 -77q0 -45 -8.5 -95t-25 -98.5t-41 -92t-56.5 -76.5t-71 -52.5t-84 -19.5q-48 0 -80.5 26t-49.5 69
q-49 -42 -100 -68.5t-99 -26.5zM380 267q0 -60 27 -101q23 20 47 47q49 54 65.5 92t16.5 64q0 25 -13.5 38.5t-35.5 13.5q-19 0 -38 -10.5t-34.5 -30.5t-25 -48.5t-9.5 -64.5z" />
    <glyph glyph-name="w" unicode="&#x1e81;" horiz-adv-x="806" 
d="M164 -12q-49 0 -72.5 27.5t-23.5 76.5q0 73 56.5 151t156.5 158h-194l-45 -81h-27l82 182h304q-41 -39 -81 -77.5t-72.5 -78t-52.5 -80t-20 -81.5q0 -42 20.5 -64t60.5 -22q48 0 94 25q-8 37 -8 74q0 55 17 112t44.5 103.5t62 76t69.5 29.5q55 0 55 -64q0 -20 -5.5 -48
t-18 -60.5t-33.5 -69t-52 -73.5q-13 -16 -27 -31.5t-28 -30.5q43 -43 110 -43q34 0 67 14t61.5 42.5t50 70t31.5 97.5l-91 114q-7 38 12 60t48 22q26 0 45 -20t19 -77q0 -45 -8.5 -95t-25 -98.5t-41 -92t-56.5 -76.5t-71 -52.5t-84 -19.5q-48 0 -80.5 26t-49.5 69
q-49 -42 -100 -68.5t-99 -26.5zM380 267q0 -60 27 -101q23 20 47 47q49 54 65.5 92t16.5 64q0 25 -13.5 38.5t-35.5 13.5q-19 0 -38 -10.5t-34.5 -30.5t-25 -48.5t-9.5 -64.5z" />
    <glyph glyph-name="w" unicode="&#x175;" horiz-adv-x="806" 
d="M164 -12q-49 0 -72.5 27.5t-23.5 76.5q0 73 56.5 151t156.5 158h-194l-45 -81h-27l82 182h304q-41 -39 -81 -77.5t-72.5 -78t-52.5 -80t-20 -81.5q0 -42 20.5 -64t60.5 -22q48 0 94 25q-8 37 -8 74q0 55 17 112t44.5 103.5t62 76t69.5 29.5q55 0 55 -64q0 -20 -5.5 -48
t-18 -60.5t-33.5 -69t-52 -73.5q-13 -16 -27 -31.5t-28 -30.5q43 -43 110 -43q34 0 67 14t61.5 42.5t50 70t31.5 97.5l-91 114q-7 38 12 60t48 22q26 0 45 -20t19 -77q0 -45 -8.5 -95t-25 -98.5t-41 -92t-56.5 -76.5t-71 -52.5t-84 -19.5q-48 0 -80.5 26t-49.5 69
q-49 -42 -100 -68.5t-99 -26.5zM380 267q0 -60 27 -101q23 20 47 47q49 54 65.5 92t16.5 64q0 25 -13.5 38.5t-35.5 13.5q-19 0 -38 -10.5t-34.5 -30.5t-25 -48.5t-9.5 -64.5z" />
    <glyph glyph-name="x" unicode="x" horiz-adv-x="608" 
d="M35 -12q-32 0 -49 19t-17 44q0 35 24 62t66 29q9 -52 16 -73.5t20 -21.5q12 0 29 12.5t37 34.5t43 52t46 65l-22 180q-4 33 -10.5 55t-23.5 22q-23 0 -56 -32.5t-65 -83.5l-21 16q22 33 43.5 60.5t45 48t50 31.5t56.5 11q17 0 32.5 -3.5t29 -16.5t23.5 -37t15 -65l9 -68
q37 57 68.5 93.5t59 58t51.5 30t45 8.5q31 0 48 -19.5t17 -44.5q0 -35 -24 -62t-66 -29q-9 52 -16 74t-19 22t-29.5 -13.5t-38.5 -36.5t-44 -54.5t-47 -67.5l21 -172q4 -33 10.5 -55t23.5 -22q23 0 55.5 32t65.5 83l20 -15q-21 -33 -43 -60.5t-45.5 -48t-49.5 -31.5t-56 -11
q-17 0 -33 3.5t-29.5 16.5t-23.5 37t-15 65l-7 61q-36 -55 -67.5 -90.5t-58.5 -56t-50 -28.5t-44 -8z" />
    <glyph glyph-name="y" unicode="y" horiz-adv-x="572" 
d="M-91 -260q-35 0 -54 15.5t-19 43.5q0 16 8.5 32.5t25.5 25.5q22 -15 42.5 -23t46.5 -8q18 0 37 5.5t42.5 20.5t51 42t62.5 71l-2 482l-85 -2v26l205 52l-2 -400l151 207q37 51 63.5 86.5t47.5 58.5t38 33.5t36 10.5q24 0 37 -14t13 -35q0 -19 -7 -31.5t-16 -19.5
q-33 -9 -58.5 -17.5t-47.5 -20t-40.5 -28.5t-37.5 -42l-234 -318q-34 -46 -73 -91.5t-79 -81.5t-79 -58t-73 -22z" />
    <glyph glyph-name="y" unicode="&#x1ef3;" horiz-adv-x="572" 
d="M-91 -260q-35 0 -54 15.5t-19 43.5q0 16 8.5 32.5t25.5 25.5q22 -15 42.5 -23t46.5 -8q18 0 37 5.5t42.5 20.5t51 42t62.5 71l-2 482l-85 -2v26l205 52l-2 -400l151 207q37 51 63.5 86.5t47.5 58.5t38 33.5t36 10.5q24 0 37 -14t13 -35q0 -19 -7 -31.5t-16 -19.5
q-33 -9 -58.5 -17.5t-47.5 -20t-40.5 -28.5t-37.5 -42l-234 -318q-34 -46 -73 -91.5t-79 -81.5t-79 -58t-73 -22z" />
    <glyph glyph-name="y" unicode="&#x233;" horiz-adv-x="572" 
d="M-91 -260q-35 0 -54 15.5t-19 43.5q0 16 8.5 32.5t25.5 25.5q22 -15 42.5 -23t46.5 -8q18 0 37 5.5t42.5 20.5t51 42t62.5 71l-2 482l-85 -2v26l205 52l-2 -400l151 207q37 51 63.5 86.5t47.5 58.5t38 33.5t36 10.5q24 0 37 -14t13 -35q0 -19 -7 -31.5t-16 -19.5
q-33 -9 -58.5 -17.5t-47.5 -20t-40.5 -28.5t-37.5 -42l-234 -318q-34 -46 -73 -91.5t-79 -81.5t-79 -58t-73 -22z" />
    <glyph glyph-name="y" unicode="&#x177;" horiz-adv-x="572" 
d="M-91 -260q-35 0 -54 15.5t-19 43.5q0 16 8.5 32.5t25.5 25.5q22 -15 42.5 -23t46.5 -8q18 0 37 5.5t42.5 20.5t51 42t62.5 71l-2 482l-85 -2v26l205 52l-2 -400l151 207q37 51 63.5 86.5t47.5 58.5t38 33.5t36 10.5q24 0 37 -14t13 -35q0 -19 -7 -31.5t-16 -19.5
q-33 -9 -58.5 -17.5t-47.5 -20t-40.5 -28.5t-37.5 -42l-234 -318q-34 -46 -73 -91.5t-79 -81.5t-79 -58t-73 -22z" />
    <glyph glyph-name="y" unicode="&#xff;" horiz-adv-x="572" 
d="M-91 -260q-35 0 -54 15.5t-19 43.5q0 16 8.5 32.5t25.5 25.5q22 -15 42.5 -23t46.5 -8q18 0 37 5.5t42.5 20.5t51 42t62.5 71l-2 482l-85 -2v26l205 52l-2 -400l151 207q37 51 63.5 86.5t47.5 58.5t38 33.5t36 10.5q24 0 37 -14t13 -35q0 -19 -7 -31.5t-16 -19.5
q-33 -9 -58.5 -17.5t-47.5 -20t-40.5 -28.5t-37.5 -42l-234 -318q-34 -46 -73 -91.5t-79 -81.5t-79 -58t-73 -22z" />
    <glyph glyph-name="y" unicode="&#xfd;" horiz-adv-x="572" 
d="M-91 -260q-35 0 -54 15.5t-19 43.5q0 16 8.5 32.5t25.5 25.5q22 -15 42.5 -23t46.5 -8q18 0 37 5.5t42.5 20.5t51 42t62.5 71l-2 482l-85 -2v26l205 52l-2 -400l151 207q37 51 63.5 86.5t47.5 58.5t38 33.5t36 10.5q24 0 37 -14t13 -35q0 -19 -7 -31.5t-16 -19.5
q-33 -9 -58.5 -17.5t-47.5 -20t-40.5 -28.5t-37.5 -42l-234 -318q-34 -46 -73 -91.5t-79 -81.5t-79 -58t-73 -22z" />
    <glyph glyph-name="z" unicode="z" horiz-adv-x="521" 
d="M155 502h427l-325 -262l55 -132q12 -30 22 -49.5t19 -30.5t18 -15.5t20 -4.5q14 0 26 8.5t17.5 27.5t3 49t-17.5 73l25 10q35 -101 10.5 -153t-97.5 -52q-28 0 -52 6.5t-46.5 23t-43.5 44.5t-43 70l-21 40l-69 -55q-13 -10 -19.5 -19t-8 -19.5t0.5 -25t7 -35.5
q-18 -9 -35 -11t-30.5 1.5t-21.5 12.5t-8 23q0 13 11 27t45 42l379 305h-257l-44 -85h-26z" />
    <glyph glyph-name="z" unicode="&#x17e;" horiz-adv-x="521" 
d="M155 502h427l-325 -262l55 -132q12 -30 22 -49.5t19 -30.5t18 -15.5t20 -4.5q14 0 26 8.5t17.5 27.5t3 49t-17.5 73l25 10q35 -101 10.5 -153t-97.5 -52q-28 0 -52 6.5t-46.5 23t-43.5 44.5t-43 70l-21 40l-69 -55q-13 -10 -19.5 -19t-8 -19.5t0.5 -25t7 -35.5
q-18 -9 -35 -11t-30.5 1.5t-21.5 12.5t-8 23q0 13 11 27t45 42l379 305h-257l-44 -85h-26z" />
    <glyph glyph-name="z" unicode="&#x17c;" horiz-adv-x="521" 
d="M155 502h427l-325 -262l55 -132q12 -30 22 -49.5t19 -30.5t18 -15.5t20 -4.5q14 0 26 8.5t17.5 27.5t3 49t-17.5 73l25 10q35 -101 10.5 -153t-97.5 -52q-28 0 -52 6.5t-46.5 23t-43.5 44.5t-43 70l-21 40l-69 -55q-13 -10 -19.5 -19t-8 -19.5t0.5 -25t7 -35.5
q-18 -9 -35 -11t-30.5 1.5t-21.5 12.5t-8 23q0 13 11 27t45 42l379 305h-257l-44 -85h-26z" />
    <glyph glyph-name="z" unicode="&#x17a;" horiz-adv-x="521" 
d="M155 502h427l-325 -262l55 -132q12 -30 22 -49.5t19 -30.5t18 -15.5t20 -4.5q14 0 26 8.5t17.5 27.5t3 49t-17.5 73l25 10q35 -101 10.5 -153t-97.5 -52q-28 0 -52 6.5t-46.5 23t-43.5 44.5t-43 70l-21 40l-69 -55q-13 -10 -19.5 -19t-8 -19.5t0.5 -25t7 -35.5
q-18 -9 -35 -11t-30.5 1.5t-21.5 12.5t-8 23q0 13 11 27t45 42l379 305h-257l-44 -85h-26z" />
    <glyph glyph-name="uni00A0" unicode="&#xa0;" horiz-adv-x="274" 
 />
    <glyph glyph-name="uni00AD" unicode="&#xad;" horiz-adv-x="430" 
d="M83 295h294l-23 -66h-294z" />
    <glyph glyph-name="paragraph" unicode="&#xb6;" horiz-adv-x="586" 
d="M294 286h-10q-84 0 -134 41.5t-50 115.5q0 64 30.5 121t87 100t137.5 68.5t182 25.5h163l-9 -30l-41 -4q-25 -2 -41 -9.5t-24 -32.5l-232 -762l-105 -64l135 448q-24 -9 -48 -13l-142 -470l-50 -31z" />
    <glyph glyph-name="periodcentered" unicode="&#xb7;" horiz-adv-x="290" 
d="M147 181q-33 0 -56 23.5t-23 58.5q0 33 23 56.5t56 23.5q35 0 58.5 -23.5t23.5 -56.5q0 -35 -23.5 -58.5t-58.5 -23.5z" />
    <glyph glyph-name="glyph65" horiz-adv-x="818" 
d="M362 -12q-76 0 -132.5 23t-92 64t-49.5 98t-5 125h591q18 61 18 131q0 67 -19 117t-53 83t-79.5 49t-99.5 16q-55 0 -102.5 -17t-87 -48.5t-70 -75.5t-52.5 -99h-28q23 83 65 144t95.5 101t115.5 59t126 19q69 0 127.5 -20.5t101 -59t66.5 -94.5t24 -127
q0 -87 -34.5 -174.5t-95.5 -157t-145.5 -113t-184.5 -43.5zM376 24q45 0 86.5 16.5t78 45.5t66 70t49.5 90h-444q-24 -222 164 -222z" />
    <glyph glyph-name="glyph66" horiz-adv-x="342" 
d="M97 -12q-28 0 -43.5 7.5t-21 22t-2.5 34.5t13 45l137 356l-92 2l9 26l230 42l-162 -420q-15 -39 -15 -54t16 -15q22 0 61 32.5t78 109.5l25 -11q-42 -83 -97.5 -130t-135.5 -47z" />
    <glyph glyph-name="glyph67" horiz-adv-x="302" 
d="M-233 -239q48 31 83.5 55.5t64 54t52 68t47.5 97.5l169 417l-92 2l9 26l231 42l-205 -506q-15 -36 -27 -62t-28 -46t-39 -36.5t-58 -34.5l-197 -99z" />
    <glyph glyph-name="uni0410" unicode="&#x410;" horiz-adv-x="819" 
d="M-133 30l40 3q25 2 48 11t45 29l783 712h19l-163 -709q-6 -26 3.5 -33.5t33.5 -9.5l39 -3l-9 -30h-309l9 30l41 3q25 2 41 9.5t22 33.5l45 188h-282l-209 -191q-20 -18 -22 -28t22 -12l60 -3l-9 -30h-257zM566 313l67 280l-306 -280h239z" />
    <glyph glyph-name="uni0411" unicode="&#x411;" horiz-adv-x="758" 
d="M272 682q8 26 0 33.5t-31 9.5l-44 3l9 30h562l-39 -238h-20l-65 182q-5 11 -9 14t-18 3h-204l-86 -281h78q152 0 229 -43.5t77 -134.5q0 -60 -33.5 -108t-91 -81.5t-135.5 -52t-166 -18.5h-311l9 30l46 3q12 1 21.5 3t16 6.5t11.5 12.5t9 21zM268 38q69 0 124.5 15
t94.5 43.5t59.5 69.5t20.5 94q0 75 -47 107.5t-140 32.5h-64l-112 -362h64z" />
    <glyph glyph-name="uni0412" unicode="&#x412;" horiz-adv-x="758" 
d="M-17 30l41 3q25 2 40 9.5t23 33.5l185 606q8 26 -2.5 33.5t-33.5 9.5l-39 3l9 30h288q136 0 205 -31t68 -102q-1 -41 -21 -77.5t-56.5 -65t-88 -48t-114.5 -26.5v-1q46 -2 87.5 -12t72.5 -29t49 -47t18 -66q0 -47 -26.5 -92.5t-78 -81t-126.5 -57.5t-171 -22h-338z
M416 420q54 0 94.5 20t67 51t39.5 67t13 68q0 50 -33 72.5t-99 22.5h-85l-91 -301h94zM307 37q72 0 122 21.5t81.5 55t46 74t14.5 79.5q0 65 -43 90.5t-119 25.5h-99l-106 -346h103z" />
    <glyph glyph-name="uni0403" unicode="&#x403;" horiz-adv-x="692" 
d="M-17 30l41 3q25 2 40 9.5t23 33.5l185 606q8 26 -2.5 33.5t-33.5 9.5l-39 3l9 30h583l-40 -246h-20l-59 190q-4 11 -8.5 14t-18.5 3h-230l-197 -643q-8 -26 2.5 -33t35.5 -8l77 -3l-10 -32h-347z" />
    <glyph glyph-name="uni0403" unicode="&#x492;" horiz-adv-x="692" 
d="M-17 30l41 3q25 2 40 9.5t23 33.5l185 606q8 26 -2.5 33.5t-33.5 9.5l-39 3l9 30h583l-40 -246h-20l-59 190q-4 11 -8.5 14t-18.5 3h-230l-197 -643q-8 -26 2.5 -33t35.5 -8l77 -3l-10 -32h-347z" />
    <glyph glyph-name="uni0403" unicode="&#x413;" horiz-adv-x="692" 
d="M-17 30l41 3q25 2 40 9.5t23 33.5l185 606q8 26 -2.5 33.5t-33.5 9.5l-39 3l9 30h583l-40 -246h-20l-59 190q-4 11 -8.5 14t-18.5 3h-230l-197 -643q-8 -26 2.5 -33t35.5 -8l77 -3l-10 -32h-347z" />
    <glyph glyph-name="uni0414" unicode="&#x414;" horiz-adv-x="800" 
d="M-68 -169h-20l72 207h82q39 54 78 123.5t76.5 152t72.5 175t66 193.5q8 26 0 33.5t-31 9.5l-44 3l8 30h614l-9 -30l-46 -3q-25 -2 -37.5 -9.5t-20.5 -33.5l-196 -644h104l-56 -207h-19l-44 157q-2 7 -6.5 9.5t-15.5 2.5h-453q-12 0 -18 -2.5t-12 -9.5zM675 720h-257
q-69 -225 -146 -397.5t-154 -284.5h349z" />
    <glyph glyph-name="uni0401" unicode="&#x401;" horiz-adv-x="762" 
d="M-17 30l41 3q25 2 40 9.5t23 33.5l186 606q8 26 -3 33.5t-34 9.5l-39 3l9 30h566l-40 -246h-21l-56 190q-3 11 -8.5 14t-19.5 3h-214l-93 -303h134q10 0 14 2t9 10l81 124h21l-96 -316h-21l-6 124q0 8 -3 10t-13 2h-133l-102 -333h262q12 0 17.5 3t15.5 11l221 194h21
l-144 -247h-624z" />
    <glyph glyph-name="uni0401" unicode="&#x415;" horiz-adv-x="762" 
d="M-17 30l41 3q25 2 40 9.5t23 33.5l186 606q8 26 -3 33.5t-34 9.5l-39 3l9 30h566l-40 -246h-21l-56 190q-3 11 -8.5 14t-19.5 3h-214l-93 -303h134q10 0 14 2t9 10l81 124h21l-96 -316h-21l-6 124q0 8 -3 10t-13 2h-133l-102 -333h262q12 0 17.5 3t15.5 11l221 194h21
l-144 -247h-624z" />
    <glyph glyph-name="uni0416" unicode="&#x416;" horiz-adv-x="1175" 
d="M-60 0l533 441l-168 252q-6 9 -12 14.5t-14 9.5t-19.5 5.5t-28.5 2.5l-50 3l9 30h276l-10 -30l-64 -3q-24 -2 -31.5 -9t-0.5 -18l213 -319l93 303q8 26 0 33.5t-31 9.5l-44 3l9 30h309l-9 -30l-46 -3q-25 -2 -38 -10t-20 -33l-93 -304l408 320q13 11 10.5 18t-25.5 9
l-63 3l10 30h275l-9 -30l-53 -3q-32 -2 -50.5 -8.5t-39.5 -23.5l-339 -265l256 -428h-158l-224 372l-91 -296q-8 -26 0.5 -33.5t31.5 -9.5l44 -3l-9 -30h-309l9 30l46 3q25 2 37.5 9.5t19.5 33.5l91 295l-451 -371h-180zM703 376h-1v-1z" />
    <glyph glyph-name="uni0416" unicode="&#x496;" horiz-adv-x="1175" 
d="M-60 0l533 441l-168 252q-6 9 -12 14.5t-14 9.5t-19.5 5.5t-28.5 2.5l-50 3l9 30h276l-10 -30l-64 -3q-24 -2 -31.5 -9t-0.5 -18l213 -319l93 303q8 26 0 33.5t-31 9.5l-44 3l9 30h309l-9 -30l-46 -3q-25 -2 -38 -10t-20 -33l-93 -304l408 320q13 11 10.5 18t-25.5 9
l-63 3l10 30h275l-9 -30l-53 -3q-32 -2 -50.5 -8.5t-39.5 -23.5l-339 -265l256 -428h-158l-224 372l-91 -296q-8 -26 0.5 -33.5t31.5 -9.5l44 -3l-9 -30h-309l9 30l46 3q25 2 37.5 9.5t19.5 33.5l91 295l-451 -371h-180zM703 376h-1v-1z" />
    <glyph glyph-name="uni0417" unicode="&#x417;" horiz-adv-x="706" 
d="M275 26q58 0 103 18.5t75 49t45.5 69t15.5 78.5q0 30 -9.5 55.5t-29 45t-49 30.5t-68.5 11h-80l12 37h75q52 0 92 18t67 46.5t41 64.5t14 71q0 50 -26 83.5t-80 33.5q-35 0 -55 -6.5t-43 -27.5l-181 -172h-20l109 211q41 14 91.5 24.5t108.5 10.5q59 0 102.5 -12.5
t72.5 -33.5t43 -49.5t14 -61.5q0 -36 -17.5 -72t-53 -65.5t-89 -50.5t-124.5 -28l-1 -2q116 -1 172 -44.5t56 -114.5q0 -51 -26.5 -97.5t-76 -81.5t-120.5 -55.5t-159 -20.5q-67 0 -117.5 9.5t-86.5 21.5l28 241h20l59 -190q10 -31 34 -37.5t62 -6.5z" />
    <glyph glyph-name="uni0418" unicode="&#x418;" horiz-adv-x="909" 
d="M-17 30l46 3q12 1 21.5 3t16 6.5t11.5 12.5t9 21l185 606q8 26 0 33.5t-31 9.5l-44 3l9 30h309l-9 -30l-46 -3q-25 -2 -38 -10t-20 -33l-151 -491l514 467l7 24q8 26 0 33.5t-31 9.5l-44 3l9 30h309l-10 -30l-46 -3q-24 -2 -37 -10t-20 -33l-186 -606q-8 -26 0.5 -33.5
t31.5 -9.5l44 -3l-9 -30h-309l9 30l46 3q12 1 21 3t16 6.5t11.5 12.5t8.5 21l155 503l-513 -467l-12 -36q-8 -26 0.5 -33.5t31.5 -9.5l44 -3l-9 -30h-309z" />
    <glyph glyph-name="uni0418" unicode="&#x4e2;" horiz-adv-x="909" 
d="M-17 30l46 3q12 1 21.5 3t16 6.5t11.5 12.5t9 21l185 606q8 26 0 33.5t-31 9.5l-44 3l9 30h309l-9 -30l-46 -3q-25 -2 -38 -10t-20 -33l-151 -491l514 467l7 24q8 26 0 33.5t-31 9.5l-44 3l9 30h309l-10 -30l-46 -3q-24 -2 -37 -10t-20 -33l-186 -606q-8 -26 0.5 -33.5
t31.5 -9.5l44 -3l-9 -30h-309l9 30l46 3q12 1 21 3t16 6.5t11.5 12.5t8.5 21l155 503l-513 -467l-12 -36q-8 -26 0.5 -33.5t31.5 -9.5l44 -3l-9 -30h-309z" />
    <glyph glyph-name="uni0418" unicode="&#x419;" horiz-adv-x="909" 
d="M-17 30l46 3q12 1 21.5 3t16 6.5t11.5 12.5t9 21l185 606q8 26 0 33.5t-31 9.5l-44 3l9 30h309l-9 -30l-46 -3q-25 -2 -38 -10t-20 -33l-151 -491l514 467l7 24q8 26 0 33.5t-31 9.5l-44 3l9 30h309l-10 -30l-46 -3q-24 -2 -37 -10t-20 -33l-186 -606q-8 -26 0.5 -33.5
t31.5 -9.5l44 -3l-9 -30h-309l9 30l46 3q12 1 21 3t16 6.5t11.5 12.5t8.5 21l155 503l-513 -467l-12 -36q-8 -26 0.5 -33.5t31.5 -9.5l44 -3l-9 -30h-309z" />
    <glyph glyph-name="uni040C" unicode="&#x40c;" horiz-adv-x="843" 
d="M-17 30l41 3q25 2 40 9.5t23 33.5l185 606q8 26 -2.5 33.5t-33.5 9.5l-39 3l9 30h309l-9 -30l-42 -3q-25 -2 -39.5 -9.5t-22.5 -33.5l-93 -304l462 320q14 10 11.5 18t-25.5 9l-68 3l10 30h287l-9 -30l-52 -3q-32 -2 -51.5 -9.5t-42.5 -22.5l-396 -274l345 -419h-160
l-313 371l-91 -295q-8 -26 2.5 -33.5t34.5 -9.5l39 -3l-9 -30h-309z" />
    <glyph glyph-name="uni040C" unicode="&#x49a;" horiz-adv-x="843" 
d="M-17 30l41 3q25 2 40 9.5t23 33.5l185 606q8 26 -2.5 33.5t-33.5 9.5l-39 3l9 30h309l-9 -30l-42 -3q-25 -2 -39.5 -9.5t-22.5 -33.5l-93 -304l462 320q14 10 11.5 18t-25.5 9l-68 3l10 30h287l-9 -30l-52 -3q-32 -2 -51.5 -9.5t-42.5 -22.5l-396 -274l345 -419h-160
l-313 371l-91 -295q-8 -26 2.5 -33.5t34.5 -9.5l39 -3l-9 -30h-309z" />
    <glyph glyph-name="uni040C" unicode="&#x41a;" horiz-adv-x="843" 
d="M-17 30l41 3q25 2 40 9.5t23 33.5l185 606q8 26 -2.5 33.5t-33.5 9.5l-39 3l9 30h309l-9 -30l-42 -3q-25 -2 -39.5 -9.5t-22.5 -33.5l-93 -304l462 320q14 10 11.5 18t-25.5 9l-68 3l10 30h287l-9 -30l-52 -3q-32 -2 -51.5 -9.5t-42.5 -22.5l-396 -274l345 -419h-160
l-313 371l-91 -295q-8 -26 2.5 -33.5t34.5 -9.5l39 -3l-9 -30h-309z" />
    <glyph glyph-name="uni041B" unicode="&#x41b;" horiz-adv-x="801" 
d="M135 73q-37 -47 -67.5 -66t-59.5 -19q-23 0 -34 11t-11 28q0 42 45 72.5t120 39.5q37 51 67.5 108.5t58.5 123.5t54 143t54 168q8 26 0 33.5t-31 9.5l-44 3l9 30h611l-9 -30l-46 -3q-24 -2 -36.5 -9.5t-20.5 -33.5l-186 -606q-8 -26 0.5 -33.5t31.5 -9.5l44 -3l-9 -30
h-309l9 30l46 3q12 1 21 3t16 6.5t11.5 12.5t8.5 21l197 644h-254q-35 -113 -67.5 -207.5t-67 -174t-72 -145t-80.5 -120.5z" />
    <glyph glyph-name="uni041C" unicode="&#x41c;" horiz-adv-x="1037" 
d="M-17 30l41 3q25 2 40 9.5t23 33.5l185 606q8 26 -2.5 33.5t-33.5 9.5l-39 3l9 30h240l88 -454l361 454h248l-9 -30l-41 -3q-26 -2 -40.5 -9.5t-22.5 -33.5l-186 -606q-8 -26 2.5 -33.5t34.5 -9.5l39 -3l-9 -30h-309l9 30l41 3q25 2 40 9.5t23 33.5l192 631l-465 -588h-6
l-110 586l-192 -629q-8 -26 2.5 -33.5t33.5 -9.5l39 -3l-9 -30h-226z" />
    <glyph glyph-name="uni041D" unicode="&#x41d;" horiz-adv-x="904" 
d="M-17 30l41 3q25 2 40 9.5t23 33.5l185 606q8 26 -2.5 33.5t-33.5 9.5l-39 3l9 30h309l-9 -30l-42 -3q-25 -2 -39.5 -9.5t-22.5 -33.5l-79 -260h365l80 260q8 26 -3 33.5t-34 9.5l-39 3l9 30h309l-9 -30l-41 -3q-26 -2 -40.5 -9.5t-22.5 -33.5l-186 -606q-8 -26 3 -33.5
t34 -9.5l39 -3l-9 -30h-309l9 30l41 3q25 2 40 9.5t23 33.5l91 297h-365l-92 -297q-8 -26 2.5 -33.5t34.5 -9.5l39 -3l-9 -30h-309z" />
    <glyph glyph-name="uni041D" unicode="&#x4a2;" horiz-adv-x="904" 
d="M-17 30l41 3q25 2 40 9.5t23 33.5l185 606q8 26 -2.5 33.5t-33.5 9.5l-39 3l9 30h309l-9 -30l-42 -3q-25 -2 -39.5 -9.5t-22.5 -33.5l-79 -260h365l80 260q8 26 -3 33.5t-34 9.5l-39 3l9 30h309l-9 -30l-41 -3q-26 -2 -40.5 -9.5t-22.5 -33.5l-186 -606q-8 -26 3 -33.5
t34 -9.5l39 -3l-9 -30h-309l9 30l41 3q25 2 40 9.5t23 33.5l91 297h-365l-92 -297q-8 -26 2.5 -33.5t34.5 -9.5l39 -3l-9 -30h-309z" />
    <glyph glyph-name="uni041E" unicode="&#x41e;" 
d="M371 -12q-63 0 -118 18.5t-96 54t-64.5 88t-23.5 120.5q0 56 17.5 115.5t50 116t79 106.5t104.5 88t127 60t146 22q63 0 118 -18.5t96 -54.5t64.5 -88.5t23.5 -120.5q0 -56 -17.5 -115.5t-50 -115.5t-79 -106.5t-104.5 -88t-127 -59.5t-146 -22zM394 23q69 0 132.5 37.5
t112 101.5t77.5 149.5t29 181.5q0 55 -10.5 100.5t-32 78.5t-54.5 51t-78 18q-69 0 -132.5 -37.5t-112 -101.5t-77.5 -149.5t-29 -181.5q0 -55 10.5 -100.5t32 -78.5t54.5 -51t78 -18z" />
    <glyph glyph-name="uni041F" unicode="&#x41f;" horiz-adv-x="890" 
d="M996 758l-9 -30l-46 -3q-25 -2 -38 -10t-20 -33l-186 -606q-8 -26 0.5 -33.5t31.5 -9.5l44 -3l-9 -30h-309l9 30l46 3q12 1 21 3t16 6.5t11.5 12.5t8.5 21l198 644h-352l-197 -644q-8 -26 0.5 -33.5t31.5 -9.5l44 -3l-9 -30h-309l9 30l46 3q12 1 21.5 3t16 6.5t11.5 12.5
t9 21l185 606q8 26 0 33.5t-31 9.5l-44 3l9 30h790z" />
    <glyph glyph-name="uni0420" unicode="&#x420;" horiz-adv-x="732" 
d="M-17 30l41 3q25 2 40 9.5t23 33.5l185 606q8 26 -2.5 33.5t-33.5 9.5l-39 3l9 30h313q61 0 114 -7t91 -24.5t60 -47t22 -74.5q0 -54 -25.5 -101t-76 -82.5t-126.5 -56t-176 -20.5h-78l12 38h72q66 0 114 20t79 52t46 72.5t15 81.5q0 60 -39.5 86t-112.5 26h-97l-197 -645
q-8 -26 2.5 -32.5t34.5 -8.5l78 -4l-10 -31h-347z" />
    <glyph glyph-name="uni0421" unicode="&#x421;" horiz-adv-x="804" 
d="M409 -12q-67 0 -127 19.5t-105.5 58t-72.5 97t-27 136.5q0 65 20 126t55 114t83.5 97t106.5 75t122 48.5t131 17.5q34 0 69 -4t66.5 -11.5t58.5 -18t47 -22.5l-12 -223h-21l-62 163q-11 30 -22.5 42.5t-31.5 21.5q-16 7 -38.5 10t-48.5 3q-81 0 -149.5 -36t-118.5 -99
t-78.5 -150t-28.5 -189q0 -112 47 -175t145 -63q25 0 45.5 2t40.5 10t42 28l207 199h21l-137 -241q-20 -7 -46.5 -13.5t-56.5 -11.5t-62 -8t-62 -3z" />
    <glyph glyph-name="uni0422" unicode="&#x422;" horiz-adv-x="771" 
d="M145 31l61 4q24 2 39 8.5t23 32.5l198 647h-136q-14 0 -21 -2.5t-17 -14.5l-173 -200h-21l100 252h687l-54 -252h-21l-39 200q-2 11 -8 14t-20 3h-148l-197 -647q-8 -26 2.5 -32.5t34.5 -8.5l59 -4l-10 -31h-349z" />
    <glyph glyph-name="uni040E" unicode="&#x40e;" horiz-adv-x="768" 
d="M308 76q-41 -48 -71 -68t-60 -20q-22 0 -33 10.5t-11 28.5q0 38 40.5 68.5t134.5 41.5l45 55l-126 493q-6 23 -14 30.5t-32 9.5l-37 3l8 30h313l-9 -30l-47 -3q-22 -2 -34.5 -8t-12.5 -21q0 -7 1 -11l93 -366l303 366q12 13 12 24q0 13 -33 16l-46 3l9 30h230l-9 -30
l-40 -3q-14 -2 -24 -4.5t-18 -7t-15 -11.5t-15 -17z" />
    <glyph glyph-name="uni040E" unicode="&#x4ee;" horiz-adv-x="768" 
d="M308 76q-41 -48 -71 -68t-60 -20q-22 0 -33 10.5t-11 28.5q0 38 40.5 68.5t134.5 41.5l45 55l-126 493q-6 23 -14 30.5t-32 9.5l-37 3l8 30h313l-9 -30l-47 -3q-22 -2 -34.5 -8t-12.5 -21q0 -7 1 -11l93 -366l303 366q12 13 12 24q0 13 -33 16l-46 3l9 30h230l-9 -30
l-40 -3q-14 -2 -24 -4.5t-18 -7t-15 -11.5t-15 -17z" />
    <glyph glyph-name="uni040E" unicode="&#x423;" horiz-adv-x="768" 
d="M308 76q-41 -48 -71 -68t-60 -20q-22 0 -33 10.5t-11 28.5q0 38 40.5 68.5t134.5 41.5l45 55l-126 493q-6 23 -14 30.5t-32 9.5l-37 3l8 30h313l-9 -30l-47 -3q-22 -2 -34.5 -8t-12.5 -21q0 -7 1 -11l93 -366l303 366q12 13 12 24q0 13 -33 16l-46 3l9 30h230l-9 -30
l-40 -3q-14 -2 -24 -4.5t-18 -7t-15 -11.5t-15 -17z" />
    <glyph glyph-name="uni0424" unicode="&#x424;" horiz-adv-x="978" 
d="M259 10l46 3q12 1 21.5 3t16 6.5t11.5 12.5t9 21l12 40q-72 5 -131 22.5t-100 46t-63.5 68t-22.5 89.5q0 72 35 132.5t99.5 105.5t155.5 73t202 34l11 35q8 26 0 33.5t-31 9.5l-44 3l8 30h309l-8 -30l-46 -3q-26 -2 -38.5 -9.5t-19.5 -33.5l-11 -35q73 -5 132 -22.5
t100.5 -46t64 -68t22.5 -89.5q0 -72 -35.5 -132.5t-100.5 -105.5t-156 -73t-203 -34l-12 -40q-8 -26 0.5 -33.5t31.5 -9.5l44 -3l-9 -30h-309zM857 442q0 86 -47.5 130t-141.5 55l-151 -491q82 8 145 35.5t106.5 68.5t66 93t22.5 109zM200 321q0 -86 47 -130t141 -55
l150 491q-82 -8 -145 -35.5t-106 -68.5t-65 -93t-22 -109z" />
    <glyph glyph-name="uni0425" unicode="&#x425;" horiz-adv-x="845" 
d="M-94 30l39 3q26 2 49 11.5t46 28.5l378 302l-86 310q-5 20 -16 29t-33 11l-37 3l13 30h308l-13 -30l-48 -4q-26 -2 -36.5 -10.5t-5.5 -28.5l62 -223l279 223q24 20 25.5 28.5t-22.5 10.5l-45 4l13 30h245l-13 -30l-39 -3q-26 -2 -48.5 -11.5t-45.5 -28.5l-336 -269
l95 -343q6 -20 16.5 -29t33.5 -11l36 -3l-13 -30h-308l13 30l48 4q26 2 36.5 10.5t5.5 28.5l-71 257l-321 -257q-24 -20 -25.5 -28.5t21.5 -10.5l46 -4l-13 -30h-246z" />
    <glyph glyph-name="uni0425" unicode="&#x4b2;" horiz-adv-x="845" 
d="M-94 30l39 3q26 2 49 11.5t46 28.5l378 302l-86 310q-5 20 -16 29t-33 11l-37 3l13 30h308l-13 -30l-48 -4q-26 -2 -36.5 -10.5t-5.5 -28.5l62 -223l279 223q24 20 25.5 28.5t-22.5 10.5l-45 4l13 30h245l-13 -30l-39 -3q-26 -2 -48.5 -11.5t-45.5 -28.5l-336 -269
l95 -343q6 -20 16.5 -29t33.5 -11l36 -3l-13 -30h-308l13 30l48 4q26 2 36.5 10.5t5.5 28.5l-71 257l-321 -257q-24 -20 -25.5 -28.5t21.5 -10.5l46 -4l-13 -30h-246z" />
    <glyph glyph-name="uni0426" unicode="&#x426;" horiz-adv-x="899" 
d="M-26 0l9 30l46 3q24 2 37 9.5t21 33.5l185 606q8 26 -0.5 33.5t-31.5 9.5l-44 3l9 30h309l-9 -30l-46 -3q-25 -2 -37.5 -10t-19.5 -33l-197 -644h351l197 644q8 26 -0.5 33.5t-31.5 9.5l-44 3l9 30h309l-9 -30l-46 -3q-25 -2 -37.5 -10t-19.5 -33l-197 -644h104l-55 -207
h-20l-45 157q-2 7 -6 9.5t-15 2.5h-675z" />
    <glyph glyph-name="uni0427" unicode="&#x427;" horiz-adv-x="875" 
d="M253 682q8 26 0 33.5t-31 9.5l-44 3l9 30h309l-9 -30l-46 -3q-25 -2 -38 -10t-20 -33l-36 -115q-18 -60 -17.5 -99.5t18 -63.5t52 -34t83.5 -10q50 0 88 5.5t75 16.5l92 300q8 26 0 33.5t-32 9.5l-44 3l10 30h309l-10 -30l-46 -3q-24 -2 -37 -10t-20 -33l-186 -606
q-8 -26 0.5 -33.5t31.5 -9.5l44 -3l-9 -30h-309l9 30l46 3q12 1 21 3t16 6.5t11.5 12.5t8.5 21l80 260q-48 -11 -96.5 -17.5t-84.5 -6.5q-72 0 -125.5 13t-84 43.5t-37 81.5t16.5 127z" />
    <glyph glyph-name="uni0427" unicode="&#x4b6;" horiz-adv-x="875" 
d="M253 682q8 26 0 33.5t-31 9.5l-44 3l9 30h309l-9 -30l-46 -3q-25 -2 -38 -10t-20 -33l-36 -115q-18 -60 -17.5 -99.5t18 -63.5t52 -34t83.5 -10q50 0 88 5.5t75 16.5l92 300q8 26 0 33.5t-32 9.5l-44 3l10 30h309l-10 -30l-46 -3q-24 -2 -37 -10t-20 -33l-186 -606
q-8 -26 0.5 -33.5t31.5 -9.5l44 -3l-9 -30h-309l9 30l46 3q12 1 21 3t16 6.5t11.5 12.5t8.5 21l80 260q-48 -11 -96.5 -17.5t-84.5 -6.5q-72 0 -125.5 13t-84 43.5t-37 81.5t16.5 127z" />
    <glyph glyph-name="uni0428" unicode="&#x428;" horiz-adv-x="1223" 
d="M-26 0l9 30l46 3q12 1 21.5 3t16 6.5t11.5 12.5t9 21l185 606q8 26 0 33.5t-31 9.5l-44 3l9 30h309l-9 -30l-46 -3q-25 -2 -38 -10t-20 -33l-197 -644h278l197 644q8 26 0 33.5t-32 9.5l-44 3l9 30h309l-9 -30l-46 -3q-25 -2 -38 -10t-20 -33l-196 -644h277l197 644
q8 26 0 33.5t-32 9.5l-44 3l9 30h309l-9 -30l-46 -3q-25 -2 -38 -10t-20 -33l-185 -606q-8 -26 0 -33.5t31 -9.5l44 -3l-9 -30h-1123z" />
    <glyph glyph-name="uni0428" unicode="&#x429;" horiz-adv-x="1223" 
d="M-26 0l9 30l46 3q12 1 21.5 3t16 6.5t11.5 12.5t9 21l185 606q8 26 0 33.5t-31 9.5l-44 3l9 30h309l-9 -30l-46 -3q-25 -2 -38 -10t-20 -33l-197 -644h278l197 644q8 26 0 33.5t-32 9.5l-44 3l9 30h309l-9 -30l-46 -3q-25 -2 -38 -10t-20 -33l-196 -644h277l197 644
q8 26 0 33.5t-32 9.5l-44 3l9 30h309l-9 -30l-46 -3q-25 -2 -38 -10t-20 -33l-185 -606q-8 -26 0 -33.5t31 -9.5l44 -3l-9 -30h-1123z" />
    <glyph glyph-name="uni042A" unicode="&#x42a;" horiz-adv-x="843" 
d="M531 443q150 0 227 -44t77 -136q0 -60 -33.5 -109t-91 -83t-135 -52.5t-165.5 -18.5h-312l9 30l46 3q25 2 37.5 9.5t20.5 33.5l197 647h-76q-14 0 -20 -3t-16 -14l-175 -200h-20l100 252h458l-9 -30l-66 -3q-25 -2 -37.5 -9.5t-20.5 -33.5l-73 -239h78zM392 38
q69 0 124.5 15t94.5 44t59.5 71t20.5 95q0 76 -47 109t-139 33h-64l-112 -367h63z" />
    <glyph glyph-name="uni042B" unicode="&#x42b;" horiz-adv-x="1084" 
d="M407 443q150 0 227 -44t77 -136q0 -60 -33.5 -109t-91 -83t-135.5 -52.5t-166 -18.5h-311l9 30l46 3q12 1 21.5 3t16 6.5t11.5 12.5t9 21l185 606q8 26 0 33.5t-31 9.5l-44 3l9 30h329l-9 -30l-66 -3q-25 -2 -37.5 -9.5t-20.5 -33.5l-73 -239h78zM268 38q69 0 124.5 15
t94.5 44t59.5 70.5t20.5 95.5q0 76 -47 109t-139 33h-64l-113 -367h64zM668 30l41 3q25 2 40 9.5t23 33.5l185 606q8 26 -2.5 33.5t-33.5 9.5l-39 3l9 30h309l-9 -30l-42 -3q-25 -2 -39.5 -9.5t-22.5 -33.5l-186 -606q-8 -26 2.5 -33.5t34.5 -9.5l39 -3l-9 -30h-309z" />
    <glyph glyph-name="uni042C" unicode="&#x42c;" horiz-adv-x="719" 
d="M407 443q150 0 227 -44t77 -136q0 -60 -33.5 -109t-91 -83t-135.5 -52.5t-166 -18.5h-311l9 30l46 3q12 1 21.5 3t16 6.5t11.5 12.5t9 21l185 606q8 26 0 33.5t-31 9.5l-44 3l9 30h329l-9 -30l-66 -3q-25 -2 -37.5 -9.5t-20.5 -33.5l-73 -239h78zM268 38q69 0 124.5 15
t94.5 44t59.5 70.5t20.5 95.5q0 76 -47 109t-139 33h-64l-113 -367h64z" />
    <glyph glyph-name="uni042D" unicode="&#x42d;" horiz-adv-x="811" 
d="M519 777q63 0 118.5 -18t97 -54t65.5 -91t24 -128q0 -60 -18 -120.5t-51 -116t-80 -103t-104 -83t-123 -55.5t-138 -20q-66 0 -126.5 15.5t-104.5 40.5l12 223h20l66 -171q15 -39 45 -54.5t81 -15.5q67 0 125.5 25.5t104.5 71t78.5 108.5t48.5 138h-225q-11 0 -15 -2
t-9 -10l-81 -124h-20l96 316h20l6 -124q0 -7 3 -9.5t13 -2.5h219q6 43 6 89q0 109 -38 173t-120 64q-27 0 -47 -1.5t-36 -7t-30 -14.5t-30 -24l-201 -192h-20l137 241q22 7 49.5 14t58 11.5t62 7.5t61.5 3z" />
    <glyph glyph-name="uni042E" unicode="&#x42e;" horiz-adv-x="1211" 
d="M-17 30l41 3q25 2 40 9.5t23 33.5l185 606q8 26 -2.5 33.5t-33.5 9.5l-39 3l9 30h309l-9 -30l-42 -3q-25 -2 -39.5 -9.5t-22.5 -33.5l-79 -260h125q25 68 71 132t108.5 113.5t139.5 79.5t166 30q60 0 113 -18.5t92.5 -54.5t62.5 -88.5t23 -120.5q0 -56 -17 -115.5
t-49 -115.5t-77.5 -106.5t-102.5 -88t-124.5 -59.5t-143.5 -22q-60 0 -113.5 18.5t-93 54t-62.5 88t-23 120.5q0 50 14 104h-124l-92 -297q-8 -26 2.5 -33.5t34.5 -9.5l39 -3l-9 -30h-309zM734 23q67 0 128.5 37.5t108.5 101.5t75 149.5t28 181.5q0 55 -10 100.5t-30 78.5
t-51 51t-74 18q-67 0 -128.5 -37.5t-108.5 -101.5t-75 -149.5t-28 -181.5q0 -55 9.5 -100.5t30 -78.5t51.5 -51t74 -18z" />
    <glyph glyph-name="uni042F" unicode="&#x42f;" horiz-adv-x="806" 
d="M-55 0l417 355q-82 12 -126 52.5t-44 103.5q0 57 28.5 102.5t80.5 77.5t125 49.5t161 17.5h325l-9 -30l-46 -3q-25 -2 -38 -10t-20 -33l-185 -606q-8 -26 0 -33.5t31 -9.5l44 -3l-9 -30h-309l9 30l46 3q13 1 22 3t16 6.5t11.5 12.5t8.5 21l81 263h-63l-398 -339h-159z
M681 721h-69q-63 0 -114.5 -14t-88 -41t-56 -66t-19.5 -88q0 -69 45 -102.5t129 -33.5h68z" />
    <glyph glyph-name="uni0402" unicode="&#x402;" horiz-adv-x="892" 
d="M115 31l66 4q25 1 37 8t20 33l198 647h-126q-13 0 -19 -2.5t-15 -13.5l-155 -179h-20l92 230h662l-46 -220h-20l-45 169q-3 11 -7 13.5t-16 2.5h-155l-105 -343q45 34 105 54t126 20q48 0 84 -15t57 -44.5t25 -72.5t-11 -99l-9 -29q-11 -41 -27.5 -69.5t-39 -51t-51 -42
t-63.5 -42.5q-14 -9 -34.5 -21.5t-44 -26t-47.5 -27t-44 -25.5l-12 26q37 25 66 44.5t51 36.5t38 33t28.5 35t22 42.5t18.5 54.5l13 44q26 94 2.5 140.5t-101.5 46.5q-51 0 -92 -13.5t-72 -36.5l-81 -266q-8 -26 0.5 -32.5t31.5 -8.5l64 -4l-9 -31h-349z" />
    <glyph glyph-name="uni0404" unicode="&#x404;" horiz-adv-x="804" 
d="M409 -12q-67 0 -127 19.5t-105.5 58t-72.5 97t-27 136.5q0 65 20 126t55 114t83.5 97t106.5 75t122 48.5t131 17.5q34 0 69 -4t66.5 -11.5t58.5 -18t47 -22.5l-12 -223h-21l-62 163q-11 30 -22.5 42.5t-31.5 21.5q-16 7 -38.5 10t-48.5 3q-65 0 -122 -23.5t-103.5 -65.5
t-80 -101.5t-51.5 -131.5h249q11 0 15 2t9 10l82 124h20l-97 -316h-20l-5 124q0 8 -3 10t-13 2h-246q-9 -53 -9 -108q0 -112 47 -175t145 -63q25 0 45.5 2t40.5 10t42 28l207 199h21l-137 -241q-20 -7 -46.5 -13.5t-56.5 -11.5t-62 -8t-62 -3z" />
    <glyph glyph-name="uni0405" unicode="&#x405;" horiz-adv-x="617" 
d="M209 -12q-49 0 -107 12.5t-105 40.5l59 222h21l25 -177q3 -20 9.5 -29t15.5 -14q16 -8 41 -13t55 -5q36 0 71.5 9t64 27t46.5 44.5t18 61.5q0 39 -20.5 76t-65.5 87l-60 66q-32 35 -53 75t-21 86t23.5 86t63 70t92 47t110.5 17q54 0 102 -12t82 -35l-40 -206h-21l-43 161
q-5 18 -10.5 27t-14.5 14q-11 6 -27 9t-32 3q-33 0 -64 -7.5t-55 -22.5t-38.5 -37t-14.5 -51q0 -36 17.5 -66t44.5 -59l62 -68q26 -29 45 -52.5t31.5 -45.5t18.5 -44.5t6 -47.5q0 -52 -25.5 -97.5t-70.5 -79t-105.5 -53t-130.5 -19.5z" />
    <glyph glyph-name="uni0406" unicode="&#x406;" horiz-adv-x="409" 
d="M-17 30l41 3q25 2 40 9.5t23 33.5l185 606q8 26 -2.5 33.5t-33.5 9.5l-39 3l9 30h309l-9 -30l-42 -3q-25 -2 -39.5 -9.5t-22.5 -33.5l-186 -606q-8 -26 2.5 -33.5t34.5 -9.5l39 -3l-9 -30h-309z" />
    <glyph glyph-name="uni0406" unicode="&#x407;" horiz-adv-x="409" 
d="M-17 30l41 3q25 2 40 9.5t23 33.5l185 606q8 26 -2.5 33.5t-33.5 9.5l-39 3l9 30h309l-9 -30l-42 -3q-25 -2 -39.5 -9.5t-22.5 -33.5l-186 -606q-8 -26 2.5 -33.5t34.5 -9.5l39 -3l-9 -30h-309z" />
    <glyph glyph-name="uni0408" unicode="&#x408;" horiz-adv-x="407" 
d="M-104 -80q59 36 96.5 61t61.5 49.5t39 54.5t29 76l160 524q8 24 -2.5 30t-33.5 7l-47 2l11 34h319l-11 -34l-47 -2q-25 -1 -38 -7t-21 -30l-151 -491q-12 -41 -25 -69.5t-31 -51.5t-44 -43t-64 -43q-15 -9 -38 -21t-49 -25l-52 -26t-47 -24z" />
    <glyph glyph-name="uni0409" unicode="&#x409;" horiz-adv-x="1099" 
d="M915 758l-9 -30l-66 -3q-25 -2 -37.5 -9.5t-20.5 -33.5l-73 -239h78q151 0 228 -44t77 -136q0 -60 -33.5 -109t-91.5 -83t-135.5 -52.5t-165.5 -18.5h-311l8 30l46 3q25 2 37.5 9.5t20.5 33.5l197 644h-242q-35 -113 -67.5 -207.5t-67 -174t-72 -145t-80.5 -120.5
q-37 -47 -67.5 -66t-59.5 -19q-23 0 -34 11t-11 28q0 42 45 72.5t120 39.5q37 51 67.5 108.5t58.5 123.5t54 143t54 168q8 26 0 33.5t-31 9.5l-44 3l9 30h619zM648 38q69 0 124.5 15t94.5 44t59.5 71t20.5 95q0 76 -46.5 109t-138.5 33h-64l-113 -367h63z" />
    <glyph glyph-name="uni040A" unicode="&#x40a;" horiz-adv-x="1183" 
d="M-17 30l46 3q25 2 37.5 9.5t20.5 33.5l185 606q8 26 0 33.5t-31 9.5l-44 3l9 30h309l-9 -30l-46 -3q-25 -2 -38 -10t-20 -33l-76 -250h334l76 250q8 26 0 33.5t-31 9.5l-44 3l9 30h329l-9 -30l-66 -3q-25 -2 -37.5 -9.5t-20.5 -33.5l-77 -250h79q150 0 228.5 -40.5
t78.5 -130.5q0 -60 -33.5 -108.5t-91 -82t-135 -52t-165.5 -18.5h-312l9 30l46 3q12 1 21.5 3t16 6.5t11.5 12.5t9 21l94 307h-335l-94 -307q-8 -26 0.5 -33.5t31.5 -9.5l44 -3l-9 -30h-309zM732 38q69 0 124.5 15t94.5 43.5t59.5 70t20.5 94.5q0 75 -48 104t-141 29h-64
l-109 -356h63z" />
    <glyph glyph-name="uni040B" unicode="&#x40b;" horiz-adv-x="969" 
d="M115 31l66 4q25 1 37 8t20 33l198 647h-126q-13 0 -19 -2.5t-15 -13.5l-155 -179h-20l92 230h662l-46 -220h-20l-45 169q-3 11 -7 13.5t-16 2.5h-155l-105 -343q45 34 104 54t124 20q51 0 87.5 -14.5t56.5 -44t22 -75t-17 -107.5l-42 -137q-8 -26 -2.5 -33t31.5 -9l38 -4
l-9 -30h-211l66 213q55 179 -100 179q-49 0 -88.5 -12.5t-70.5 -35.5l-82 -268q-8 -26 0 -32.5t32 -8.5l64 -4l-9 -31h-349z" />
    <glyph glyph-name="uni040F" unicode="&#x40f;" horiz-adv-x="889" 
d="M305 -12q0 8 -6 10t-17 2h-308l9 30l46 3q24 2 37 9.5t21 33.5l185 606q8 26 -0.5 33.5t-31.5 9.5l-44 3l9 30h309l-9 -30l-46 -3q-25 -2 -37.5 -10t-19.5 -33l-197 -644h351l197 644q8 26 -0.5 33.5t-31.5 9.5l-44 3l9 30h309l-9 -30l-46 -3q-25 -2 -37.5 -10t-19.5 -33
l-186 -606q-8 -26 0 -33.5t32 -9.5l44 -3l-9 -30h-307q-11 0 -18 -2t-12 -10l-100 -157h-19z" />
    <glyph glyph-name="uni0490" unicode="&#x490;" horiz-adv-x="655" 
d="M413 719l-197 -643q-8 -26 0.5 -33t32.5 -8l82 -3l-10 -32h-347l9 30l46 3q12 1 21.5 3t16 6.5t11.5 12.5t9 21l185 606q8 26 0 33.5t-31 9.5l-44 3l9 30h443q11 0 17 2t12 9l139 157h20l-71 -207h-353z" />
    <glyph glyph-name="uni0462" unicode="&#x462;" horiz-adv-x="804" 
d="M504 363q140 0 216.5 -35.5t76.5 -116.5q0 -51 -31 -90t-85 -66t-128 -41t-160 -14h-321l8 30l46 3q12 1 21.5 3t16 6.5t11.5 12.5t9 21l159 517h-97q-14 0 -20.5 -3t-17.5 -14l-156 -160h-20l88 212h233l17 54q8 26 0 33.5t-31 9.5l-44 3l9 30h309l-9 -30l-46 -3
q-26 -2 -38.5 -10t-19.5 -33l-17 -54h233l-41 -212h-20l-59 160q-4 11 -8.5 14t-18.5 3h-97l-71 -230h103zM376 38q63 0 114 11.5t87 33t55 53t19 70.5q0 67 -45 93t-131 26h-85l-88 -287h74z" />
    <glyph glyph-name="uni0472" unicode="&#x472;" 
d="M371 -12q-63 0 -118 18.5t-96 54t-64.5 88t-23.5 120.5q0 56 17.5 115.5t50 116t79 106.5t104.5 88t127 60t146 22q63 0 118 -18.5t96 -54.5t64.5 -88.5t23.5 -120.5q0 -56 -17.5 -115.5t-50 -115.5t-79 -106.5t-104.5 -88t-127 -59.5t-146 -22zM394 23q56 0 108.5 24.5
t96.5 68.5t77 103.5t51 130.5q-68 -23 -116.5 -26.5t-86.5 3t-69.5 19t-64.5 21.5t-72 10.5t-92 -14.5q-4 -23 -5.5 -46t-1.5 -46q0 -55 10.5 -100.5t32 -78.5t54.5 -51t78 -18zM233 397q83 30 142.5 38.5t104 4.5t76.5 -15.5t60.5 -23t56 -17.5t62.5 1q5 26 7.5 53t2.5 55
q0 55 -10.5 100.5t-32 78.5t-54.5 51t-78 18q-58 0 -111.5 -26t-98.5 -72t-78 -109t-49 -137z" />
    <glyph glyph-name="uni0474" unicode="&#x474;" horiz-adv-x="855" 
d="M97 -27l162 709q5 26 -4 33.5t-32 9.5l-40 3l9 30h309l-9 -30l-41 -3q-25 -2 -40.5 -9.5t-21.5 -33.5l-123 -515l540 493q34 31 60 53t46.5 36.5t37.5 21t33 6.5q25 0 37 -11.5t12 -30.5t-11.5 -37.5t-36 -34t-62 -25.5t-89.5 -12l-717 -653h-19z" />
    <glyph glyph-name="uni04AE" unicode="&#x4ae;" horiz-adv-x="781" 
d="M151 31l60 4q24 2 39 8.5t23 32.5l82 266l-130 343q-8 22 -15.5 30t-31.5 10l-37 3l9 30h310l-10 -30l-47 -3q-26 -2 -39 -10.5t-5 -29.5l108 -295l293 295q21 21 17 29.5t-28 10.5l-62 3l9 30h256l-9 -30l-39 -3q-26 -2 -43 -10.5t-37 -29.5l-340 -343l-82 -266
q-8 -26 3 -32.5t35 -8.5l59 -4l-10 -31h-348z" />
    <glyph glyph-name="uni04AE" unicode="&#x4b0;" horiz-adv-x="781" 
d="M151 31l60 4q24 2 39 8.5t23 32.5l82 266l-130 343q-8 22 -15.5 30t-31.5 10l-37 3l9 30h310l-10 -30l-47 -3q-26 -2 -39 -10.5t-5 -29.5l108 -295l293 295q21 21 17 29.5t-28 10.5l-62 3l9 30h256l-9 -30l-39 -3q-26 -2 -43 -10.5t-37 -29.5l-340 -343l-82 -266
q-8 -26 3 -32.5t35 -8.5l59 -4l-10 -31h-348z" />
    <glyph glyph-name="uni04BA" unicode="&#x4ba;" horiz-adv-x="878" 
d="M701.957 75.9951q-7.99902 -25.998 0 -33.498q8 -7.49902 30.998 -9.49902l43.9971 -3l-8.99902 -29.998h-308.981l9 29.998l45.9971 3q24.998 2 37.998 9.99902q12.999 8 19.998 32.998l35.998 114.993q17.999 59.9961 17.499 99.4941q-0.5 39.4971 -17.999 63.4961
q-17.499 23.998 -51.9971 33.998q-34.498 9.99902 -83.4951 9.99902q-49.9961 0 -87.9941 -5.5q-37.998 -5.49902 -74.9951 -16.499l-91.9951 -299.981q-7.99902 -25.998 0 -33.498q8 -7.49902 31.998 -9.49902l43.998 -3l-10 -29.998h-308.98l9.99902 29.998l45.9971 3
q23.999 2 36.998 9.99902q12.999 8 19.999 32.998l185.988 605.963q7.99902 25.999 -0.5 33.498q-8.49902 7.5 -31.498 9.5l-43.9971 2.99902l8.99902 29.999h308.981l-9 -29.999l-45.9971 -2.99902q-11.999 -1 -20.998 -3q-9 -2 -15.999 -6.5q-7 -4.49902 -11.5 -12.499
q-4.49902 -7.99902 -8.49902 -20.999l-79.9951 -259.983q47.9971 10.999 96.4941 17.499q48.4971 6.49902 84.4941 6.49902q71.9961 0 125.493 -12.999q53.4961 -12.999 83.9941 -43.4971q30.499 -30.498 36.998 -81.4951q6.5 -50.9971 -16.499 -126.992z" />
    <glyph glyph-name="uni04C0" unicode="&#x4c0;" horiz-adv-x="409" 
d="M-17 30l41 3q25 2 40 9.5t23 33.5l185 606q8 26 -2.5 33.5t-33.5 9.5l-39 3l9 30h309l-9 -30l-42 -3q-25 -2 -39.5 -9.5t-22.5 -33.5l-186 -606q-8 -26 2.5 -33.5t34.5 -9.5l39 -3l-9 -30h-309z" />
    <glyph glyph-name="uni04D8" unicode="&#x4d8;" horiz-adv-x="809" 
d="M362 -12q-76 0 -132.5 23t-92 64t-49.5 98t-5 125h591q18 61 18 131q0 67 -19 117t-53 83t-79.5 49t-99.5 16q-55 0 -102.5 -17t-87 -48.5t-70 -75.5t-52.5 -99h-28q23 83 65 144t95.5 101t115.5 59t126 19q69 0 127.5 -20.5t101 -59t66.5 -94.5t24 -127
q0 -87 -34.5 -174.5t-95.5 -157t-145.5 -113t-184.5 -43.5zM376 24q45 0 86.5 16.5t78 45.5t66 70t49.5 90h-444q-24 -222 164 -222z" />
    <glyph glyph-name="uni04E8" unicode="&#x4e8;" 
d="M371 -12q-63 0 -118 18.5t-96 54t-64.5 88t-23.5 120.5q0 56 17.5 115.5t50 116t79 106.5t104.5 88t127 60t146 22q63 0 118 -18.5t96 -54.5t64.5 -88.5t23.5 -120.5q0 -56 -17.5 -115.5t-50 -115.5t-79 -106.5t-104.5 -88t-127 -59.5t-146 -22zM394 23q58 0 112 26
t99 72.5t78 110t49 137.5h-505q-5 -24 -6.5 -48.5t-1.5 -49.5q0 -55 10.5 -100.5t32 -78.5t54.5 -51t78 -18zM570 741q-56 0 -108 -24.5t-96 -67.5t-77.5 -102t-51.5 -129h503q2 18 3.5 36.5t1.5 38.5q0 55 -10.5 100.5t-32 78.5t-54.5 51t-78 18z" />
    <glyph glyph-name="uni0430" unicode="&#x430;" horiz-adv-x="576" 
d="M97 -12q-45 0 -68 29t-23 76q0 45 16 94t42.5 96.5t62 90t74.5 75t79 51.5t77 19q31 0 47 -18t18 -41h1l21 56h113l-152 -413q-14 -39 -13.5 -54t14.5 -15q22 0 61 32.5t79 109.5l24 -11q-42 -83 -97.5 -130t-134.5 -47q-28 0 -41.5 8t-17.5 23t1 35.5t15 46.5l31 80h-2
q-59 -98 -111.5 -145.5t-115.5 -47.5zM166 52q21 0 49 25t57 64t55.5 87t43.5 94q34 91 27.5 131t-41.5 40q-26 0 -53 -19t-51.5 -50.5t-46 -72t-37 -83.5t-24.5 -84.5t-9 -75.5q0 -56 30 -56z" />
    <glyph glyph-name="uni0431" unicode="&#x431;" horiz-adv-x="539" 
d="M518 364q0 -64 -25.5 -131t-70.5 -121.5t-106.5 -89t-133.5 -34.5q-78 0 -117 44.5t-39 123.5q0 61 16 126.5t47 129t75.5 121.5t101 105t125 80t146.5 46q45 7 77 20t48 45h28q-14 -39 -30.5 -70.5t-40 -54.5t-57 -36t-81.5 -15q-35 -1 -58.5 0.5t-40 2.5t-29 0
t-24.5 -8q-17 -10 -33.5 -31.5t-32 -51.5t-30.5 -67.5t-27 -78.5q29 40 73.5 69.5t98.5 29.5q35 0 61.5 -12.5t44 -33.5t26 -49t8.5 -59zM211 22q37 0 69 30.5t55 78t36 106t13 115.5q0 49 -16.5 78.5t-50.5 29.5q-56 0 -122 -81q-17 -64 -26.5 -128.5t-9.5 -119.5
q0 -57 14 -83t38 -26z" />
    <glyph glyph-name="uni0432" unicode="&#x432;" horiz-adv-x="502" 
d="M440 166q0 -38 -19.5 -70.5t-52.5 -56.5t-76 -37.5t-90 -13.5q-90 0 -135 40.5t-45 110.5q0 69 32 137t84 122t116.5 88t130.5 34t95.5 -23.5t29.5 -60.5q0 -52 -58.5 -94.5t-170.5 -68.5q84 1 121.5 -29t37.5 -78zM339 484q-32 0 -58.5 -19t-48.5 -49.5t-38 -70.5
t-26 -82q14 4 32 9.5t23 7.5q77 26 118 62t41 87q0 26 -11 40.5t-32 14.5zM152 136q0 -60 15 -89.5t50 -29.5q22 0 39.5 11t30 29t19 41.5t6.5 49.5q0 30 -8 49t-21.5 29.5t-31.5 14.5t-39 4q-16 0 -28.5 -2.5t-21.5 -6.5q-5 -26 -7.5 -51.5t-2.5 -48.5z" />
    <glyph glyph-name="uni0433" unicode="&#x433;" horiz-adv-x="501" 
d="M210 -12q-83 0 -128 32t-45 89q0 36 13 62.5t37 46.5t58.5 35.5t77.5 28.5l29 8q61 19 95.5 49t34.5 86q0 33 -17.5 48.5t-43.5 15.5q-18 0 -34 -6q-17 -7 -32 -22l-123 -124h-20l68 161q40 12 75.5 16.5t70.5 4.5q69 0 112 -32t43 -91q0 -38 -13.5 -65.5t-39 -48.5
t-61 -36.5t-79.5 -29.5l-33 -11q-53 -17 -84 -44t-31 -75q0 -37 22 -52.5t51 -15.5q28 0 45 8q8 4 17 10t22 21l120 133h20l-76 -181q-71 -21 -151 -21z" />
    <glyph glyph-name="uni0433" unicode="&#x493;" horiz-adv-x="501" 
d="M210 -12q-83 0 -128 32t-45 89q0 36 13 62.5t37 46.5t58.5 35.5t77.5 28.5l29 8q61 19 95.5 49t34.5 86q0 33 -17.5 48.5t-43.5 15.5q-18 0 -34 -6q-17 -7 -32 -22l-123 -124h-20l68 161q40 12 75.5 16.5t70.5 4.5q69 0 112 -32t43 -91q0 -38 -13.5 -65.5t-39 -48.5
t-61 -36.5t-79.5 -29.5l-33 -11q-53 -17 -84 -44t-31 -75q0 -37 22 -52.5t51 -15.5q28 0 45 8q8 4 17 10t22 21l120 133h20l-76 -181q-71 -21 -151 -21z" />
    <glyph glyph-name="uni0433" unicode="&#x453;" horiz-adv-x="501" 
d="M210 -12q-83 0 -128 32t-45 89q0 36 13 62.5t37 46.5t58.5 35.5t77.5 28.5l29 8q61 19 95.5 49t34.5 86q0 33 -17.5 48.5t-43.5 15.5q-18 0 -34 -6q-17 -7 -32 -22l-123 -124h-20l68 161q40 12 75.5 16.5t70.5 4.5q69 0 112 -32t43 -91q0 -38 -13.5 -65.5t-39 -48.5
t-61 -36.5t-79.5 -29.5l-33 -11q-53 -17 -84 -44t-31 -75q0 -37 22 -52.5t51 -15.5q28 0 45 8q8 4 17 10t22 21l120 133h20l-76 -181q-71 -21 -151 -21z" />
    <glyph glyph-name="uni0434" unicode="&#x434;" horiz-adv-x="535" 
d="M169 -12q-70 0 -108.5 38.5t-38.5 110.5q0 68 29 136.5t76.5 123t107.5 88.5t123 34q13 0 24 -2t20 -4v22q0 49 -6 90.5t-18.5 72t-33 47.5t-49.5 17q-26 0 -45.5 -9t-39.5 -27l-15 19q25 26 55 40.5t74 14.5q49 0 87 -22.5t63 -61t38 -90.5t13 -112q0 -107 -27 -202.5
t-75 -167.5t-113 -114t-141 -42zM153 118q0 -44 10.5 -70.5t37.5 -26.5q35 0 68.5 35t60.5 95.5t46 142t24 174.5q-7 9 -19.5 15t-29.5 6q-44 0 -80.5 -34t-62.5 -87.5t-40.5 -119.5t-14.5 -130z" />
    <glyph glyph-name="uni0435" unicode="&#x435;" horiz-adv-x="473" 
d="M165 -12q-68 0 -106.5 38.5t-38.5 110.5q0 48 15.5 95t41.5 89.5t61 78.5t74 62.5t79 41.5t78 15q58 0 85 -27t27 -67q0 -29 -16.5 -60.5t-48.5 -53.5l-237 -2q-28 -68 -28 -145q0 -63 22 -91t57 -28q83 0 159 148l25 -9q-47 -99 -106 -147.5t-143 -48.5zM369 493
q-24 0 -49 -12t-49 -33t-45 -50.5t-37 -64.5h39q42 0 76.5 11t59 28t38 38.5t13.5 42.5q0 40 -46 40z" />
    <glyph glyph-name="uni0435" unicode="&#x451;" horiz-adv-x="473" 
d="M165 -12q-68 0 -106.5 38.5t-38.5 110.5q0 48 15.5 95t41.5 89.5t61 78.5t74 62.5t79 41.5t78 15q58 0 85 -27t27 -67q0 -29 -16.5 -60.5t-48.5 -53.5l-237 -2q-28 -68 -28 -145q0 -63 22 -91t57 -28q83 0 159 148l25 -9q-47 -99 -106 -147.5t-143 -48.5zM369 493
q-24 0 -49 -12t-49 -33t-45 -50.5t-37 -64.5h39q42 0 76.5 11t59 28t38 38.5t13.5 42.5q0 40 -46 40z" />
    <glyph glyph-name="uni0436" unicode="&#x436;" horiz-adv-x="979" 
d="M331 -12l95 248l-97 -14q-23 -47 -54 -89.5t-65.5 -74.5t-71.5 -51.5t-72 -19.5t-57.5 20.5t-22.5 58.5q0 46 32.5 68t83.5 14q-17 -57 -15.5 -86t24.5 -29t47 28t43.5 72.5t33 98.5t15.5 105q6 116 -40 116q-26 0 -53.5 -32t-57.5 -102l-25 9q17 42 38 77t46.5 60.5
t55.5 40t65 14.5q48 0 73.5 -36t22.5 -102q-2 -30 -9.5 -61.5t-20.5 -63.5l95 14l86 225l130 23l-87 -228l102 15q23 43 53 82t63.5 68t68.5 46.5t68 17.5q35 0 57.5 -20.5t22.5 -58.5q0 -46 -33 -68t-84 -14q35 115 -9 115q-23 0 -46.5 -28t-43.5 -72.5t-33 -98.5t-15 -105
q-7 -116 39 -116q26 0 54 32t58 102l25 -9q-17 -42 -38.5 -77.5t-47 -61t-55.5 -39.5t-65 -14q-48 0 -73 36t-22 102q2 35 11.5 71.5t26.5 72.5l-97 -14l-93 -245z" />
    <glyph glyph-name="uni0436" unicode="&#x497;" horiz-adv-x="979" 
d="M331 -12l95 248l-97 -14q-23 -47 -54 -89.5t-65.5 -74.5t-71.5 -51.5t-72 -19.5t-57.5 20.5t-22.5 58.5q0 46 32.5 68t83.5 14q-17 -57 -15.5 -86t24.5 -29t47 28t43.5 72.5t33 98.5t15.5 105q6 116 -40 116q-26 0 -53.5 -32t-57.5 -102l-25 9q17 42 38 77t46.5 60.5
t55.5 40t65 14.5q48 0 73.5 -36t22.5 -102q-2 -30 -9.5 -61.5t-20.5 -63.5l95 14l86 225l130 23l-87 -228l102 15q23 43 53 82t63.5 68t68.5 46.5t68 17.5q35 0 57.5 -20.5t22.5 -58.5q0 -46 -33 -68t-84 -14q35 115 -9 115q-23 0 -46.5 -28t-43.5 -72.5t-33 -98.5t-15 -105
q-7 -116 39 -116q26 0 54 32t58 102l25 -9q-17 -42 -38.5 -77.5t-47 -61t-55.5 -39.5t-65 -14q-48 0 -73 36t-22 102q2 35 11.5 71.5t26.5 72.5l-97 -14l-93 -245z" />
    <glyph glyph-name="uni0437" unicode="&#x437;" horiz-adv-x="477" 
d="M166 -12q-78 0 -115.5 24.5t-37.5 67.5q0 37 30.5 58t85.5 13q-46 -136 42 -136q49 0 78.5 40t29.5 102q0 49 -22.5 66t-56.5 17q-15 0 -29 -3.5t-21 -6.5l8 29l42 13q77 26 111.5 68t34.5 86q0 43 -41 43t-90 -30t-94 -96l-22 13q54 83 117.5 123t145.5 40q57 0 85 -25
t28 -65q0 -52 -54.5 -93.5t-158.5 -67.5q77 0 112.5 -26.5t35.5 -75.5q0 -39 -20.5 -72t-54 -56.5t-77.5 -36.5t-92 -13z" />
    <glyph glyph-name="uni0438" unicode="&#x438;" horiz-adv-x="618" 
d="M187 183q-33 -75 -38.5 -105t16.5 -30q24 0 57 36t74 93q24 34 49 74t48.5 82t44.5 83.5t37 78.5l126 20l-159 -412q-15 -39 -15 -54t16 -15q10 0 26 7.5t34.5 24.5t38.5 44t40 66l25 -11q-42 -83 -98 -130t-135 -47q-28 0 -43.5 7.5t-21.5 22t-2.5 34.5t13.5 45l88 219
h-1q-26 -51 -56 -97.5t-54 -81.5q-54 -79 -99 -114t-97 -35q-60 0 -69.5 49t32.5 145l118 271l-93 2l10 26l237 42z" />
    <glyph glyph-name="uni0438" unicode="&#x4e3;" horiz-adv-x="618" 
d="M187 183q-33 -75 -38.5 -105t16.5 -30q24 0 57 36t74 93q24 34 49 74t48.5 82t44.5 83.5t37 78.5l126 20l-159 -412q-15 -39 -15 -54t16 -15q10 0 26 7.5t34.5 24.5t38.5 44t40 66l25 -11q-42 -83 -98 -130t-135 -47q-28 0 -43.5 7.5t-21.5 22t-2.5 34.5t13.5 45l88 219
h-1q-26 -51 -56 -97.5t-54 -81.5q-54 -79 -99 -114t-97 -35q-60 0 -69.5 49t32.5 145l118 271l-93 2l10 26l237 42z" />
    <glyph glyph-name="uni0438" unicode="&#x439;" horiz-adv-x="618" 
d="M187 183q-33 -75 -38.5 -105t16.5 -30q24 0 57 36t74 93q24 34 49 74t48.5 82t44.5 83.5t37 78.5l126 20l-159 -412q-15 -39 -15 -54t16 -15q10 0 26 7.5t34.5 24.5t38.5 44t40 66l25 -11q-42 -83 -98 -130t-135 -47q-28 0 -43.5 7.5t-21.5 22t-2.5 34.5t13.5 45l88 219
h-1q-26 -51 -56 -97.5t-54 -81.5q-54 -79 -99 -114t-97 -35q-60 0 -69.5 49t32.5 145l118 271l-93 2l10 26l237 42z" />
    <glyph glyph-name="uni043A" unicode="&#x43a;" horiz-adv-x="607" 
d="M2 -10l178 463l-92 2l10 26l229 42l-196 -512zM416 -33q-52 0 -81.5 30.5t-52.5 90.5l-61 154l134 141q36 39 63 65t48.5 41.5t40 22.5t38.5 7q32 0 49 -19.5t17 -44.5q0 -17 -6.5 -33t-18.5 -28.5t-28.5 -20.5t-36.5 -9q-10 52 -17 74t-19 22q-17 0 -43 -26.5t-64 -66.5
l-50 -52l91 -249q14 -38 24 -48.5t21 -10.5q6 0 14.5 4t18 15.5t20 32.5t21.5 55l25 -7q-14 -42 -28.5 -69.5t-32.5 -43t-39 -21.5t-47 -6z" />
    <glyph glyph-name="uni043A" unicode="&#x49b;" horiz-adv-x="607" 
d="M2 -10l178 463l-92 2l10 26l229 42l-196 -512zM416 -33q-52 0 -81.5 30.5t-52.5 90.5l-61 154l134 141q36 39 63 65t48.5 41.5t40 22.5t38.5 7q32 0 49 -19.5t17 -44.5q0 -17 -6.5 -33t-18.5 -28.5t-28.5 -20.5t-36.5 -9q-10 52 -17 74t-19 22q-17 0 -43 -26.5t-64 -66.5
l-50 -52l91 -249q14 -38 24 -48.5t21 -10.5q6 0 14.5 4t18 15.5t20 32.5t21.5 55l25 -7q-14 -42 -28.5 -69.5t-32.5 -43t-39 -21.5t-47 -6z" />
    <glyph glyph-name="uni043A" unicode="&#x45c;" horiz-adv-x="607" 
d="M2 -10l178 463l-92 2l10 26l229 42l-196 -512zM416 -33q-52 0 -81.5 30.5t-52.5 90.5l-61 154l134 141q36 39 63 65t48.5 41.5t40 22.5t38.5 7q32 0 49 -19.5t17 -44.5q0 -17 -6.5 -33t-18.5 -28.5t-28.5 -20.5t-36.5 -9q-10 52 -17 74t-19 22q-17 0 -43 -26.5t-64 -66.5
l-50 -52l91 -249q14 -38 24 -48.5t21 -10.5q6 0 14.5 4t18 15.5t20 32.5t21.5 55l25 -7q-14 -42 -28.5 -69.5t-32.5 -43t-39 -21.5t-47 -6z" />
    <glyph glyph-name="uni043B" unicode="&#x43b;" horiz-adv-x="589" 
d="M117 52q-27 -32 -49.5 -48t-47.5 -16q-23 0 -37.5 13.5t-14.5 33.5q0 11 2.5 22.5t10.5 22.5l138 22q42 63 81 151.5t81 195.5h-88l22 53h351l-153 -399q-15 -39 -15 -54t15 -15q22 0 61 32.5t78 109.5l25 -11q-42 -83 -97.5 -130t-134.5 -47q-53 0 -63 30.5t11 83.5
l134 347h-111q-32 -80 -59.5 -142.5t-52 -111t-46 -84t-41.5 -59.5z" />
    <glyph glyph-name="uni043C" unicode="&#x43c;" horiz-adv-x="796" 
d="M11 -10q-25 0 -39 13t-14 36q0 11 3 21.5t10 19.5l127 21q4 8 16 31.5t28 56t34 70.5t35 74.5t30 68t20 51.5l-89 2l9 26l196 42l2 -356l264 326l136 22l-159 -412q-15 -39 -15 -54t15 -15q22 0 61 32.5t79 109.5l24 -11q-42 -83 -97.5 -130t-134.5 -47q-53 0 -63 30.5
t11 83.5l125 323l-339 -419h-14l-4 386q-14 -35 -34.5 -81t-41 -89.5t-36.5 -78t-22 -44.5q-26 -52 -55.5 -80.5t-67.5 -28.5z" />
    <glyph glyph-name="uni043D" unicode="&#x43d;" horiz-adv-x="613" 
d="M2 -10l178 463l-92 2l10 26l229 42l-100 -262l162 25l81 209l126 20l-159 -412q-15 -39 -15 -54t16 -15q10 0 26 7.5t34.5 24.5t38.5 44t40 66l25 -11q-42 -83 -98 -130t-135 -47q-53 0 -63 30.5t11 83.5l59 152l-162 -26l-83 -217z" />
    <glyph glyph-name="uni043D" unicode="&#x4a3;" horiz-adv-x="613" 
d="M2 -10l178 463l-92 2l10 26l229 42l-100 -262l162 25l81 209l126 20l-159 -412q-15 -39 -15 -54t16 -15q10 0 26 7.5t34.5 24.5t38.5 44t40 66l25 -11q-42 -83 -98 -130t-135 -47q-53 0 -63 30.5t11 83.5l59 152l-162 -26l-83 -217z" />
    <glyph glyph-name="uni043E" unicode="&#x43e;" horiz-adv-x="534" 
d="M173 -12q-36 0 -64 11.5t-47.5 31.5t-29.5 47.5t-10 59.5q0 68 28.5 136t75.5 122.5t109 88.5t128 34q36 0 64 -11.5t47.5 -32t29.5 -48t10 -58.5q0 -69 -28.5 -137t-75.5 -122t-108.5 -88t-128.5 -34zM217 22q27 0 56 25.5t53 72.5t39.5 112t15.5 145q0 107 -60 107
q-28 0 -57.5 -25.5t-53.5 -72t-39 -112t-15 -144.5q0 -108 61 -108z" />
    <glyph glyph-name="uni043F" unicode="&#x43f;" horiz-adv-x="620" 
d="M368 -12q-57 0 -69 30t11 79l108 227q35 74 40 104.5t-18 30.5q-24 0 -57 -35.5t-73 -92.5q-25 -35 -51 -75.5t-50 -83t-44.5 -84t-33.5 -77.5l-129 -21l178 463l-92 2l10 26l229 42l-140 -347h1q31 59 62 108.5t57 86.5q55 79 100.5 113.5t96.5 34.5q61 0 71 -51.5
t-34 -142.5l-106 -222q-18 -38 -16 -53.5t17 -15.5q22 0 61 32.5t79 109.5l24 -11q-42 -83 -97.5 -130t-134.5 -47z" />
    <glyph glyph-name="uni0440" unicode="&#x440;" horiz-adv-x="578" 
d="M174 453l-92 2l9 26l228 42l-28 -81q30 34 71 55.5t83 21.5q58 0 91 -34t33 -92q0 -48 -16 -97.5t-45 -95t-69.5 -85.5t-88.5 -68.5t-102.5 -44t-112.5 -12.5l-82 -238h-120zM363 450q-44 0 -81 -34l-138 -400q40 -2 76.5 13.5t69 42.5t59.5 62t46.5 73.5t30 77.5
t10.5 72q0 51 -20.5 72t-52.5 21z" />
    <glyph glyph-name="uni0441" unicode="&#x441;" horiz-adv-x="458" 
d="M162 -12q-67 0 -104 38.5t-37 110.5q0 69 29.5 137t77.5 122.5t108.5 88.5t123.5 34q49 0 78.5 -22t29.5 -62q0 -38 -31.5 -61.5t-85.5 -15.5q17 66 15.5 100t-28.5 34q-30 0 -62.5 -28t-59.5 -74.5t-45 -105.5t-18 -120q0 -63 21.5 -91t56.5 -28q37 0 74.5 32t73.5 111
l24 -9q-44 -104 -104.5 -147.5t-136.5 -43.5z" />
    <glyph glyph-name="uni0442" unicode="&#x442;" horiz-adv-x="902" 
d="M650 -12q-57 0 -69 30t11 79l108 227q35 74 40 104.5t-18 30.5q-24 0 -57.5 -36t-73.5 -93q-24 -34 -50 -74.5t-50 -83t-44.5 -84t-34.5 -77.5l-125 -21l131 334q29 75 37 105t-15 30q-24 0 -57 -35.5t-73 -92.5q-25 -35 -51 -75.5t-50 -83t-44.5 -84t-33.5 -77.5
l-129 -21l178 463l-92 2l10 26l229 42l-140 -347h1q31 59 62 108.5t57 86.5q55 79 100.5 113.5t96.5 34.5q61 0 64.5 -51.5t-35.5 -142.5l-64 -149h1q31 59 62 108.5t57 86.5q55 79 100.5 113.5t96.5 34.5q61 0 70 -51.5t-34 -142.5l-105 -222q-18 -38 -16 -53.5t17 -15.5
q22 0 61 32.5t79 109.5l24 -11q-42 -83 -97.5 -130t-134.5 -47z" />
    <glyph glyph-name="uni0443" unicode="&#x443;" horiz-adv-x="572" 
d="M-91 -260q-35 0 -54 15.5t-19 43.5q0 16 8.5 32.5t25.5 25.5q22 -15 42.5 -23t46.5 -8q18 0 37 5.5t42.5 20.5t51 42t62.5 71l-2 482l-85 -2v26l205 52l-2 -400l151 207q37 51 63.5 86.5t47.5 58.5t38 33.5t36 10.5q24 0 37 -14t13 -35q0 -19 -7 -31.5t-16 -19.5
q-33 -9 -58.5 -17.5t-47.5 -20t-40.5 -28.5t-37.5 -42l-234 -318q-34 -46 -73 -91.5t-79 -81.5t-79 -58t-73 -22z" />
    <glyph glyph-name="uni0443" unicode="&#x4ef;" horiz-adv-x="572" 
d="M-91 -260q-35 0 -54 15.5t-19 43.5q0 16 8.5 32.5t25.5 25.5q22 -15 42.5 -23t46.5 -8q18 0 37 5.5t42.5 20.5t51 42t62.5 71l-2 482l-85 -2v26l205 52l-2 -400l151 207q37 51 63.5 86.5t47.5 58.5t38 33.5t36 10.5q24 0 37 -14t13 -35q0 -19 -7 -31.5t-16 -19.5
q-33 -9 -58.5 -17.5t-47.5 -20t-40.5 -28.5t-37.5 -42l-234 -318q-34 -46 -73 -91.5t-79 -81.5t-79 -58t-73 -22z" />
    <glyph glyph-name="uni0443" unicode="&#x45e;" horiz-adv-x="572" 
d="M-91 -260q-35 0 -54 15.5t-19 43.5q0 16 8.5 32.5t25.5 25.5q22 -15 42.5 -23t46.5 -8q18 0 37 5.5t42.5 20.5t51 42t62.5 71l-2 482l-85 -2v26l205 52l-2 -400l151 207q37 51 63.5 86.5t47.5 58.5t38 33.5t36 10.5q24 0 37 -14t13 -35q0 -19 -7 -31.5t-16 -19.5
q-33 -9 -58.5 -17.5t-47.5 -20t-40.5 -28.5t-37.5 -42l-234 -318q-34 -46 -73 -91.5t-79 -81.5t-79 -58t-73 -22z" />
    <glyph glyph-name="uni0444" unicode="&#x444;" horiz-adv-x="764" 
d="M534 518q105 -5 158 -53.5t53 -135.5q0 -63 -29.5 -122.5t-82 -107t-124 -77.5t-155.5 -33l-81 -237h-122l81 237q-105 5 -157.5 53.5t-52.5 135.5q0 63 29.5 122.5t82 106.5t124 77t155.5 34l56 163l-74 48l2 6l231 58zM150 177q0 -58 22.5 -102t70.5 -54l159 465
q-61 -4 -108 -34.5t-79 -75t-48.5 -97.5t-16.5 -102zM617 329q0 59 -23 103t-71 54l-159 -466q61 4 108 34.5t79.5 75t49 97.5t16.5 102z" />
    <glyph glyph-name="uni0445" unicode="&#x445;" horiz-adv-x="608" 
d="M35 -12q-32 0 -49 19t-17 44q0 35 24 62t66 29q9 -52 16 -73.5t20 -21.5q12 0 29 12.5t37 34.5t43 52t46 65l-22 180q-4 33 -10.5 55t-23.5 22q-23 0 -56 -32.5t-65 -83.5l-21 16q22 33 43.5 60.5t45 48t50 31.5t56.5 11q17 0 32.5 -3.5t29 -16.5t23.5 -37t15 -65l9 -68
q37 57 68.5 93.5t59 58t51.5 30t45 8.5q31 0 48 -19.5t17 -44.5q0 -35 -24 -62t-66 -29q-9 52 -16 74t-19 22t-29.5 -13.5t-38.5 -36.5t-44 -54.5t-47 -67.5l21 -172q4 -33 10.5 -55t23.5 -22q23 0 55.5 32t65.5 83l20 -15q-21 -33 -43 -60.5t-45.5 -48t-49.5 -31.5t-56 -11
q-17 0 -33 3.5t-29.5 16.5t-23.5 37t-15 65l-7 61q-36 -55 -67.5 -90.5t-58.5 -56t-50 -28.5t-44 -8z" />
    <glyph glyph-name="uni0445" unicode="&#x4b3;" horiz-adv-x="608" 
d="M35 -12q-32 0 -49 19t-17 44q0 35 24 62t66 29q9 -52 16 -73.5t20 -21.5q12 0 29 12.5t37 34.5t43 52t46 65l-22 180q-4 33 -10.5 55t-23.5 22q-23 0 -56 -32.5t-65 -83.5l-21 16q22 33 43.5 60.5t45 48t50 31.5t56.5 11q17 0 32.5 -3.5t29 -16.5t23.5 -37t15 -65l9 -68
q37 57 68.5 93.5t59 58t51.5 30t45 8.5q31 0 48 -19.5t17 -44.5q0 -35 -24 -62t-66 -29q-9 52 -16 74t-19 22t-29.5 -13.5t-38.5 -36.5t-44 -54.5t-47 -67.5l21 -172q4 -33 10.5 -55t23.5 -22q23 0 55.5 32t65.5 83l20 -15q-21 -33 -43 -60.5t-45.5 -48t-49.5 -31.5t-56 -11
q-17 0 -33 3.5t-29.5 16.5t-23.5 37t-15 65l-7 61q-36 -55 -67.5 -90.5t-58.5 -56t-50 -28.5t-44 -8z" />
    <glyph glyph-name="uni0446" unicode="&#x446;" horiz-adv-x="633" 
d="M187 183q-33 -75 -38.5 -105t16.5 -30q24 0 57 36t74 93q24 34 49 74t48.5 82t44.5 83.5t37 78.5l126 20l-159 -412q-15 -39 -15 -54t16 -15q10 0 26 7.5t34.5 24.5t38.5 44t40 66l25 -11l-11 -22q-13 -27 -20 -45t-9 -32t-1 -26.5t3 -27.5t3.5 -34.5t0.5 -48.5
q-2 -62 -44.5 -90.5t-119.5 -36.5l5 22q30 4 43 25t14 47q2 49 13.5 81t31.5 64q-30 -26 -65 -39.5t-77 -13.5q-28 0 -43.5 7.5t-21.5 22t-2.5 34.5t13.5 45l88 219h-1q-26 -51 -56 -97.5t-54 -81.5q-54 -79 -99 -114t-97 -35q-60 0 -69.5 49t32.5 145l118 271l-93 2l10 26
l237 42z" />
    <glyph glyph-name="uni0447" unicode="&#x447;" horiz-adv-x="603" 
d="M261 354q-30 -68 -35 -97t17 -29q19 0 48 26t60.5 65.5t61 86.5t47.5 89l126 20l-159 -412q-15 -39 -15 -54t16 -15q10 0 26 7.5t34.5 24.5t38.5 44t40 66l25 -11q-42 -83 -98 -130t-135 -47q-28 0 -43.5 7.5t-21.5 22t-2.5 34.5t13.5 45l102 258h-1q-54 -87 -112 -137
t-115 -50q-60 0 -70 48t31 141l42 96l-93 2l10 26l237 42z" />
    <glyph glyph-name="uni0447" unicode="&#x4b7;" horiz-adv-x="603" 
d="M261 354q-30 -68 -35 -97t17 -29q19 0 48 26t60.5 65.5t61 86.5t47.5 89l126 20l-159 -412q-15 -39 -15 -54t16 -15q10 0 26 7.5t34.5 24.5t38.5 44t40 66l25 -11q-42 -83 -98 -130t-135 -47q-28 0 -43.5 7.5t-21.5 22t-2.5 34.5t13.5 45l102 258h-1q-54 -87 -112 -137
t-115 -50q-60 0 -70 48t31 141l42 96l-93 2l10 26l237 42z" />
    <glyph glyph-name="uni0448" unicode="&#x448;" horiz-adv-x="899" 
d="M408 316h-1q-26 -51 -56 -97.5t-54 -81.5q-54 -79 -99 -114t-97 -35q-60 0 -69.5 49t32.5 145l118 271l-93 2l10 26l237 42l-149 -340q-33 -75 -38.5 -105t16.5 -30q24 0 57 37t74 94q24 34 49 74t48.5 81t44.5 82.5t37 78.5l126 20l-129 -332q-29 -76 -34.5 -105.5
t14.5 -29.5q23 0 54.5 37t71.5 94q24 34 49 74t48 81t44 82.5t37 78.5l126 20l-159 -412q-15 -39 -15 -54t16 -15q10 0 26 7.5t34.5 24.5t38.5 44t40 66l25 -11q-42 -83 -98 -130t-135 -47q-28 0 -43.5 7.5t-21.5 22t-2.5 34.5t13.5 45l88 219h-1q-26 -51 -55 -97.5
t-54 -81.5q-27 -39 -50.5 -67.5t-46 -46.5t-45.5 -26.5t-49 -8.5q-118 0 -36 194z" />
    <glyph glyph-name="uni0448" unicode="&#x449;" horiz-adv-x="899" 
d="M408 316h-1q-26 -51 -56 -97.5t-54 -81.5q-54 -79 -99 -114t-97 -35q-60 0 -69.5 49t32.5 145l118 271l-93 2l10 26l237 42l-149 -340q-33 -75 -38.5 -105t16.5 -30q24 0 57 37t74 94q24 34 49 74t48.5 81t44.5 82.5t37 78.5l126 20l-129 -332q-29 -76 -34.5 -105.5
t14.5 -29.5q23 0 54.5 37t71.5 94q24 34 49 74t48 81t44 82.5t37 78.5l126 20l-159 -412q-15 -39 -15 -54t16 -15q10 0 26 7.5t34.5 24.5t38.5 44t40 66l25 -11q-42 -83 -98 -130t-135 -47q-28 0 -43.5 7.5t-21.5 22t-2.5 34.5t13.5 45l88 219h-1q-26 -51 -55 -97.5
t-54 -81.5q-27 -39 -50.5 -67.5t-46 -46.5t-45.5 -26.5t-49 -8.5q-118 0 -36 194z" />
    <glyph glyph-name="uni044A" unicode="&#x44a;" horiz-adv-x="513" 
d="M212 -13q-79 0 -117 33t-38 89q0 76 66.5 148t178.5 144h-205l-45 -81h-27l82 182h316q-51 -49 -97.5 -100.5t-80.5 -108.5q18 9 42 16t51 7q63 0 93.5 -30.5t30.5 -83.5q0 -36 -18 -74t-51 -69.5t-79 -51.5t-102 -20zM181 87q0 -33 12 -51t34 -18q23 0 43 15t34.5 40.5
t23 59t8.5 69.5q0 35 -12 55t-39 20q-18 0 -32.5 -5t-25.5 -10q-22 -42 -34 -85.5t-12 -89.5z" />
    <glyph glyph-name="uni044B" unicode="&#x44b;" horiz-adv-x="758" 
d="M741 515l-159 -412q-15 -39 -15 -54t15 -15q22 0 61 32.5t79 109.5l24 -11q-42 -83 -97.5 -130t-134.5 -47q-53 0 -63 30.5t11 83.5l153 393zM435 207q0 -37 -18.5 -76t-52.5 -71t-81 -52.5t-104 -20.5q-97 0 -128.5 57t10.5 152l111 257l-92 2l9 26l238 42l-95 -218
q17 7 37.5 11.5t45.5 4.5q59 0 89.5 -30.5t30.5 -83.5zM164 150q-26 -60 -21.5 -96t45.5 -36q25 0 46.5 15.5t38 41.5t26 60t9.5 72q0 35 -12 55t-38 20q-20 0 -39 -7z" />
    <glyph glyph-name="uni044C" unicode="&#x44c;" horiz-adv-x="485" 
d="M435 207q0 -37 -18.5 -76t-52.5 -71t-81 -52.5t-104 -20.5q-97 0 -128.5 57t10.5 152l111 257l-92 2l9 26l238 42l-95 -218q17 7 37.5 11.5t45.5 4.5q59 0 89.5 -30.5t30.5 -83.5zM164 150q-26 -60 -21.5 -96t45.5 -36q25 0 46.5 15.5t38 41.5t26 60t9.5 72q0 35 -12 55
t-38 20q-20 0 -39 -7z" />
    <glyph glyph-name="uni044D" unicode="&#x44d;" horiz-adv-x="480" 
d="M319 519q67 0 104 -39t37 -111q0 -68 -29.5 -136t-77.5 -122.5t-108.5 -88.5t-123.5 -34q-49 0 -78.5 22t-29.5 62q0 38 31.5 61.5t85.5 15.5q-17 -66 -15.5 -100t29.5 -34q24 0 50.5 19t50.5 51.5t43.5 76t30.5 91.5l-174 -28l13 33l167 27q2 14 3 28.5t1 28.5
q0 64 -22 92t-57 28t-70.5 -29.5t-70.5 -102.5l-25 11q44 97 102 137.5t133 40.5z" />
    <glyph glyph-name="uni044E" unicode="&#x44e;" horiz-adv-x="778" 
d="M2 -10l178 463l-92 2l10 26l229 42l-100 -261l78 13q20 49 52.5 93.5t73 78t87 53t95.5 19.5q34 0 61 -11.5t46 -32t28.5 -48t9.5 -58.5q0 -69 -28 -137t-74.5 -122t-107 -88t-126.5 -34q-35 0 -61.5 11.5t-45.5 31.5t-28.5 47.5t-9.5 59.5q0 51 17 104l-79 -13l-84 -218
zM466 22q26 0 54.5 25.5t51.5 72.5t38 112t15 145q0 107 -54 107q-27 0 -56 -25.5t-52 -72t-38 -112t-15 -144.5q0 -108 56 -108z" />
    <glyph glyph-name="uni044F" unicode="&#x44f;" horiz-adv-x="571" 
d="M541 516l-152 -413q-14 -39 -14.5 -54t14.5 -15q22 0 61 32.5t78 109.5l25 -11q-42 -83 -97.5 -130t-134.5 -47q-53 0 -63 30.5t11 83.5l63 165h-2l-169 -180q-23 -25 -40.5 -43.5t-33 -31t-30 -18.5t-31.5 -6q-29 0 -41.5 16t-12.5 36q0 15 6.5 29.5t19.5 23.5l129 4
l126 129q-13 -7 -36 -14.5t-50 -7.5q-35 0 -56 18.5t-21 55.5q0 38 23 80.5t59 78t80 59t85 23.5q58 0 71 -44h2l15 41h116zM209 297q0 -18 8.5 -30t27.5 -12q42 0 74 32t49 79l10 26q10 26 11 45t-4 31.5t-15.5 18.5t-23.5 6q-27 0 -51.5 -20t-43.5 -49.5t-30.5 -63.5
t-11.5 -63z" />
    <glyph glyph-name="uni0452" unicode="&#x452;" horiz-adv-x="560" 
d="M194 577h-80l16 43h79l21 60l-72 49l2 6l229 58l-60 -173h104l-16 -43h-103l-50 -146l-95 -255h1q31 59 61.5 108.5t56.5 86.5q55 79 101 113.5t97 34.5q61 0 70 -51t-34 -143l-142 -308q-17 -36 -30 -61.5t-28.5 -46t-37.5 -37t-58 -34.5l-196 -99l-11 22q48 31 82 56
t62 54.5t52 68t51 96.5l134 288q34 74 39.5 104.5t-17.5 30.5q-25 0 -58 -36.5t-73 -93.5q-25 -35 -51 -75.5t-50 -82.5t-44.5 -84t-33.5 -78l-121 -19z" />
    <glyph glyph-name="uni0454" unicode="&#x454;" horiz-adv-x="458" 
d="M162 -12q-67 0 -104 38.5t-37 110.5q0 69 29.5 137t77.5 122.5t108.5 88.5t123.5 34q49 0 78.5 -22t29.5 -62q0 -38 -31.5 -61.5t-85.5 -15.5q17 66 15.5 100t-28.5 34q-24 0 -49.5 -18t-49 -49t-43 -72t-30.5 -87l170 27l-15 -38l-163 -26q-3 -16 -4 -32t-1 -33
q0 -63 21.5 -91t56.5 -28q37 0 74.5 32t73.5 111l24 -9q-44 -104 -104.5 -147.5t-136.5 -43.5z" />
    <glyph glyph-name="uni0455" unicode="&#x455;" horiz-adv-x="401" 
d="M113 -12q-57 0 -90 26.5t-33 62.5q0 34 27 51.5t62 15.5q12 -44 19.5 -69t13.5 -37.5t11 -16t12 -3.5q13 0 29.5 5t30 15t23 24t9.5 32q0 22 -13 44t-35 51l-38 50q-46 61 -46 113q0 36 18.5 66.5t48.5 53t67.5 35t75.5 12.5q48 0 76.5 -20.5t28.5 -54.5q0 -14 -5.5 -27
t-16 -23t-26.5 -15t-37 -3q-11 38 -17 60.5t-11 34t-9.5 15t-11.5 3.5q-14 0 -30 -4.5t-29.5 -13t-22.5 -20.5t-9 -27q0 -17 10.5 -40t34.5 -54l40 -52q23 -29 34.5 -55.5t11.5 -58.5q0 -41 -19 -73.5t-48 -55.5t-65.5 -35t-70.5 -12z" />
    <glyph glyph-name="uni0456" unicode="&#x456;" horiz-adv-x="342" 
d="M249 716q0 31 23.5 54.5t54.5 23.5q32 0 55 -23.5t23 -54.5q0 -32 -23 -55.5t-55 -23.5q-31 0 -54.5 23.5t-23.5 55.5zM97 -12q-28 0 -43.5 7.5t-21 22t-2.5 34.5t13 45l137 356l-92 2l9 26l230 42l-162 -420q-15 -39 -15 -54t16 -15q22 0 61 32.5t78 109.5l25 -11
q-42 -83 -97.5 -130t-135.5 -47z" />
    <glyph glyph-name="uni0456" unicode="&#x457;" horiz-adv-x="342" 
d="M249 716q0 31 23.5 54.5t54.5 23.5q32 0 55 -23.5t23 -54.5q0 -32 -23 -55.5t-55 -23.5q-31 0 -54.5 23.5t-23.5 55.5zM97 -12q-28 0 -43.5 7.5t-21 22t-2.5 34.5t13 45l137 356l-92 2l9 26l230 42l-162 -420q-15 -39 -15 -54t16 -15q22 0 61 32.5t78 109.5l25 -11
q-42 -83 -97.5 -130t-135.5 -47z" />
    <glyph glyph-name="uni0458" unicode="&#x458;" horiz-adv-x="316" 
d="M-233 -239q48 31 83.5 55.5t64 54t52 68t47.5 97.5l169 417l-92 2l9 26l231 42l-205 -506q-15 -36 -27 -62t-28 -46t-39 -36.5t-58 -34.5l-197 -99zM260 716q0 31 23.5 54.5t54.5 23.5q32 0 55 -23.5t23 -54.5q0 -32 -23 -55.5t-55 -23.5q-31 0 -54.5 23.5t-23.5 55.5z
" />
    <glyph glyph-name="uni0459" unicode="&#x459;" horiz-adv-x="748" 
d="M316 449q-51 -125 -90 -212t-73 -142q-35 -57 -66.5 -82t-66.5 -25q-23 0 -37.5 14t-14.5 34q0 11 2.5 22t10.5 22l138 22q42 63 81 151.5t81 195.5h-88l22 53h347l-79 -204q46 23 95 23q59 0 89.5 -30.5t30.5 -83.5q0 -37 -18.5 -76t-52.5 -71t-81 -52.5t-104 -20.5
q-97 0 -126 56t8 153l99 253h-107zM427 150q-23 -61 -20 -96.5t44 -35.5q25 0 46.5 15.5t38 41.5t26 60t9.5 72q0 35 -12 55t-38 20q-23 0 -48 -10z" />
    <glyph glyph-name="uni045A" unicode="&#x45a;" horiz-adv-x="767" 
d="M2 -10l178 463l-92 2l10 26l229 42l-100 -262l151 24l82 210l126 20l-82 -214q18 8 41.5 14t51.5 6q59 0 89.5 -30.5t30.5 -83.5q0 -37 -18.5 -76t-52 -71t-80.5 -52.5t-104 -20.5q-98 0 -127 56.5t9 152.5l22 56l-152 -24l-83 -217zM446 150q-23 -61 -20 -96.5t44 -35.5
q25 0 46.5 15.5t38 41.5t26 60t9.5 72q0 35 -11.5 55t-38.5 20q-14 0 -25.5 -2.5t-21.5 -7.5z" />
    <glyph glyph-name="uni045B" unicode="&#x45b;" horiz-adv-x="604" 
d="M174 176q31 59 62 108.5t57 86.5q54 80 100 114t97 34q61 0 70.5 -51.5t-33.5 -142.5l-106 -222q-17 -38 -15.5 -53.5t16.5 -15.5q22 0 61 32.5t79 109.5l24 -11q-42 -83 -97.5 -130t-134.5 -47q-57 0 -69 30t11 79l108 227q35 74 40 104.5t-18 30.5q-24 0 -57 -36.5
t-73 -93.5q-25 -35 -51 -75.5t-50 -82.5t-44.5 -83.5t-33.5 -77.5l-126 -20l203 587h-80l16 43h79l21 60l-72 49l2 6l229 58l-60 -173h104l-16 -43h-103l-50 -146l-91 -255h1z" />
    <glyph glyph-name="uni045F" unicode="&#x45f;" horiz-adv-x="618" 
d="M269 0q-22 -44 -31.5 -74t-9.5 -62q0 -40 37 -43l-5 -19q-63 0 -94 14t-31 49q0 21 8.5 38t23 32.5t34.5 31t43 33.5h25zM187 183q-33 -75 -38.5 -105t16.5 -30q24 0 57 36t74 93q24 34 49 74t48.5 82t44.5 83.5t37 78.5l126 20l-159 -412q-15 -39 -15 -54t16 -15
q10 0 26 7.5t34.5 24.5t38.5 44t40 66l25 -11q-42 -83 -98 -130t-135 -47q-28 0 -43.5 7.5t-21.5 22t-2.5 34.5t13.5 45l88 219h-1q-26 -51 -56 -97.5t-54 -81.5q-54 -79 -99 -114t-97 -35q-60 0 -69.5 49t32.5 145l118 271l-93 2l10 26l237 42z" />
    <glyph glyph-name="uni0491" unicode="&#x491;" horiz-adv-x="473" 
d="M305 467l-180 -467h-120l167 436q10 24 5 29.5t-29 7.5l-31 2l11 27h272q9 0 14 2.5t12 10.5l120 134h19l-66 -182h-194z" />
    <glyph glyph-name="uni0463" unicode="&#x463;" horiz-adv-x="781" 
d="M2 -10l178 463l-92 2l10 26l229 42l-140 -347h1q31 59 62 108.5t57 86.5q55 79 100.5 113.5t96.5 34.5q61 0 70 -51t-33 -143l-9 -18q17 6 36.5 10t42.5 4q60 0 90 -30.5t30 -83.5q0 -37 -18.5 -76t-52 -71t-80.5 -52.5t-104 -20.5q-48 0 -81 15t-48.5 43t-13 66t24.5 85
l60 128q35 74 40 104.5t-18 30.5q-24 0 -57 -36.5t-73 -93.5q-25 -35 -51 -75.5t-50 -82.5t-44.5 -83t-33.5 -77zM459 150q-27 -60 -22 -96t47 -36q25 0 46.5 15.5t38 41.5t26 60t9.5 72q0 35 -11.5 55t-38.5 20q-20 0 -36 -6z" />
    <glyph glyph-name="uni0473" unicode="&#x473;" horiz-adv-x="534" 
d="M173 -12q-36 0 -64 11.5t-47.5 31.5t-29.5 47.5t-10 59.5q0 68 28.5 136t75.5 122.5t109 88.5t128 34q36 0 64 -11.5t47.5 -32t29.5 -48t10 -58.5q0 -69 -28.5 -137t-75.5 -122t-108.5 -88t-128.5 -34zM169 264q35 20 60 26.5t43 4.5t30.5 -9.5t23.5 -15t21.5 -12
t23.5 -0.5q5 28 7.5 57.5t2.5 61.5q0 107 -60 107q-22 0 -44.5 -15.5t-43 -44t-37.5 -69t-27 -91.5zM217 22q20 0 41.5 14.5t41.5 41.5t37 66t28 88q-30 -20 -52 -26t-38.5 -3.5t-29.5 10.5t-25 15.5t-25.5 12t-30.5 -0.5q-4 -26 -6 -53.5t-2 -56.5q0 -108 61 -108z" />
    <glyph glyph-name="uni0475" unicode="&#x475;" horiz-adv-x="589" 
d="M474 419q15 19 31.5 37t34 32t35 22.5t34.5 8.5q44 0 44 -37q0 -40 -41 -68.5t-129 -36.5l-303 -388h-33l-2 458l-85 -2v26l205 52l-5 -384z" />
    <glyph glyph-name="uni04AF" unicode="&#x4af;" horiz-adv-x="569" 
d="M32 -248l94 242l24 453l-85 -2v26l205 52l-30 -473l179 280q33 52 59 88.5t48 58.5t40.5 32t37.5 10q24 0 37 -14t13 -35q0 -19 -7 -31.5t-16 -19.5q-33 -9 -59.5 -17.5t-49.5 -21.5t-43.5 -32.5t-41.5 -50.5l-190 -301l-95 -244h-120z" />
    <glyph glyph-name="uni04AF" unicode="&#x4b1;" horiz-adv-x="569" 
d="M32 -248l94 242l24 453l-85 -2v26l205 52l-30 -473l179 280q33 52 59 88.5t48 58.5t40.5 32t37.5 10q24 0 37 -14t13 -35q0 -19 -7 -31.5t-16 -19.5q-33 -9 -59.5 -17.5t-49.5 -21.5t-43.5 -32.5t-41.5 -50.5l-190 -301l-95 -244h-120z" />
    <glyph glyph-name="uni04BB" unicode="&#x4bb;" horiz-adv-x="604" 
d="M174 176q31 59 62 108.5t57 86.5q54 80 100 114t97 34q61 0 70.5 -51.5t-33.5 -142.5l-106 -222q-17 -38 -15.5 -53.5t16.5 -15.5q22 0 61 32.5t79 109.5l24 -11q-42 -83 -97.5 -130t-134.5 -47q-57 0 -69 30t11 79l108 227q35 74 40 104.5t-18 30.5q-24 0 -57 -36.5
t-73 -93.5q-25 -35 -51 -75.5t-50 -82.5t-44.5 -83.5t-33.5 -77.5l-126 -20l239 690l-72 49l2 6l229 58l-125 -362l-91 -255h1z" />
    <glyph glyph-name="uni04CF" unicode="&#x4cf;" horiz-adv-x="333" 
d="M273 692q9 24 4.5 29.5t-29.5 7.5l-30 2l10 27h260l-10 -27l-31 -2q-14 -1 -22 -2.5t-14 -5t-10 -10.5t-8 -19l-232 -626q-8 -24 -4 -29.5t30 -7.5l30 -2l-11 -27h-260l10 27l33 2q25 2 34.5 7.5t17.5 29.5z" />
    <glyph glyph-name="uni04D9" unicode="&#x4d9;" horiz-adv-x="486" 
d="M321.98 518.969q67.9961 0 106.493 -38.498q38.498 -38.498 38.498 -110.493q0 -47.9971 -15.499 -94.9941t-41.498 -89.4951q-25.998 -42.4971 -60.9961 -78.4951q-34.998 -35.9971 -73.9951 -62.4961q-38.998 -26.498 -78.9951 -41.4971
q-39.998 -14.999 -77.9951 -14.999q-57.9971 0 -84.9951 26.998t-26.998 66.9961q0 28.998 16.499 60.4961t48.4971 53.4971l236.985 2q27.998 67.9951 27.998 144.991q0 62.9961 -21.999 90.9941q-21.998 27.998 -56.9961 27.998q-82.9951 0 -158.99 -147.991l-24.999 9
q46.9971 98.9941 105.994 147.491q58.9961 48.4971 142.991 48.4971zM117.993 13.999q23.998 0 48.9971 11.999q24.998 12 48.9961 32.998q23.999 20.999 44.998 50.4971q20.998 29.498 36.9971 64.4961h-38.9971q-41.998 0 -76.4951 -10.999q-34.498 -11 -58.9971 -27.998
q-24.498 -16.999 -37.9971 -38.498t-13.499 -42.4971q0 -39.998 45.9971 -39.998z" />
    <glyph glyph-name="uni04E9" unicode="&#x4e9;" horiz-adv-x="534" 
d="M173 -12q-36 0 -64 11.5t-47.5 31.5t-29.5 47.5t-10 59.5q0 68 28.5 136t75.5 122.5t109 88.5t128 34q36 0 64 -11.5t47.5 -32t29.5 -48t10 -58.5q0 -69 -28.5 -137t-75.5 -122t-108.5 -88t-128.5 -34zM217 22q21 0 43.5 15.5t43 44.5t37.5 70t27 93l-205 -15
q-4 -23 -5.5 -48.5t-1.5 -51.5q0 -108 61 -108zM321 484q-21 0 -43.5 -15t-43 -43t-38 -68t-27.5 -90l205 14q3 23 5 46t2 49q0 107 -60 107z" />
    <glyph glyph-name="quoteright" unicode="&#x2019;" horiz-adv-x="275" 
d="M128 480q62 35 98 79t36 81q0 52 -69 67q8 45 35 63.5t59 18.5q34 0 58 -22t24 -62q0 -27 -14.5 -59.5t-43 -66.5t-71 -67t-99.5 -60z" />
    <glyph glyph-name="bullet" unicode="&#x2022;" horiz-adv-x="407" 
d="M241 258q-26 0 -49 10t-40 27t-27 40.5t-10 49.5t10 49t27 40t40 27t49 10t49 -10t40.5 -27t27.5 -40t10 -49t-10 -49.5t-27.5 -40.5t-40.5 -27t-49 -10z" />
    <glyph glyph-name="glyph166" horiz-adv-x="678" 
d="M465 438h-208l-52 -232q-32 -145 -75 -235.5t-88 -141.5t-88 -69.5t-76 -18.5q-34 0 -51.5 17.5t-17.5 42.5q0 22 16 39t39 19q25 -21 49 -39t46 -18q12 0 22 6.5t19.5 25.5t20 54.5t22.5 92.5l99 457h-81l9 28q28 2 47.5 6t36 15.5t32 34t35.5 62.5q25 52 53.5 86.5
t57 54t56 27.5t50.5 8q35 0 50.5 -15.5t15.5 -38.5q0 -19 -10 -38t-27 -28q-26 11 -50 15.5t-44 4.5q-31 0 -55 -9t-40 -23.5t-24.5 -33.5t-8.5 -40q0 -25 12.5 -38.5t43.5 -13.5h140q24 0 39.5 8.5t27 22t19.5 31.5t17 36q26 52 54.5 87t57 56t55.5 29.5t50 8.5
q35 0 50.5 -15.5t15.5 -38.5q0 -19 -10 -38t-27 -28q-26 11 -50 15.5t-44 4.5q-31 0 -55 -9.5t-40 -26t-24.5 -38t-8.5 -45.5t12.5 -42t43.5 -18h140l-40 -64h-144l-42 -188q-32 -145 -75 -236t-88 -142t-88 -69t-76 -18q-34 0 -52 17.5t-18 42.5q0 23 16.5 39.5t39.5 18.5
q25 -21 49 -39t46 -18q12 0 21.5 6.5t19.5 26t20.5 55t22.5 92.5z" />
    <glyph glyph-name="glyph168" horiz-adv-x="626" 
d="M533 716q0 31 23 54.5t54 23.5q32 0 55.5 -23.5t23.5 -54.5q0 -32 -23.5 -55.5t-55.5 -23.5q-31 0 -54 23.5t-23 55.5zM-122 -259q-34 0 -51.5 17.5t-17.5 42.5q0 22 16 39t39 19q25 -21 49 -39t46 -18q12 0 22 6.5t19.5 25.5t20 54.5t22.5 92.5l99 457h-81l9 28
q28 2 48 8t36.5 21t31.5 40t35 65q26 52 53.5 87t55 56t53 29.5t48.5 8.5q35 0 50.5 -15.5t15.5 -38.5q0 -19 -10 -38t-27 -28q-26 11 -50 15.5t-44 4.5q-30 0 -52.5 -9.5t-38 -26t-23 -38t-7.5 -45.5t12.5 -42t43.5 -18h301l-153 -399q-15 -39 -15 -54t15 -15
q11 0 27.5 7.5t35.5 24.5t39.5 44t40.5 66l25 -11q-42 -83 -99.5 -130t-136.5 -47q-56 0 -65.5 29.5t10.5 79.5l132 341h-201l-52 -232q-32 -145 -75 -235.5t-88 -141.5t-88 -69.5t-76 -18.5z" />
    <glyph glyph-name="glyph170" horiz-adv-x="949" 
d="M856 716q0 15 6.5 29.5t17 25t24.5 17t29 6.5q32 0 55.5 -23.5t23.5 -54.5q0 -32 -23.5 -55.5t-55.5 -23.5q-15 0 -29 6.5t-24.5 17.5t-17 25t-6.5 30zM-122 -259q-34 0 -51.5 17.5t-17.5 42.5q0 22 16 39t39 19q25 -21 49 -39t46 -18q12 0 22 6.5t19.5 25.5t20 54.5
t22.5 92.5l99 457h-81l9 28q28 3 48 7t36 15t31.5 33.5t35.5 62.5q25 52 53.5 86.5t57 54t56 27.5t50.5 8q35 0 50.5 -15.5t15.5 -38.5q0 -19 -10 -38t-27 -28q-26 11 -50 15.5t-44 4.5q-31 0 -55 -9t-40 -23.5t-24.5 -33.5t-8.5 -40q0 -25 12.5 -38.5t43.5 -13.5h140
q24 0 39.5 8.5t27 22t19.5 31.5t17 36q26 52 53.5 87t54.5 56t52.5 29.5t48.5 8.5q35 0 50.5 -15.5t15.5 -38.5q0 -19 -9.5 -38t-27.5 -28q-25 11 -49 15.5t-45 4.5q-30 0 -52.5 -9.5t-37.5 -26t-22.5 -38t-7.5 -45.5t12.5 -42t43.5 -18h302l-154 -399q-15 -39 -15 -54
t16 -15q10 0 26.5 7.5t35.5 24.5t39.5 44t40.5 66l25 -11q-42 -83 -99.5 -130t-136.5 -47q-28 0 -43.5 7.5t-21 22t-2.5 34.5t13 45l131 341h-201l-42 -188q-32 -145 -75 -236t-88 -142t-88 -69t-76 -18q-34 0 -52 17.5t-18 42.5q0 23 16.5 39.5t39.5 18.5q25 -21 49 -39
t46 -18q12 0 21.5 6.5t19.5 26t20.5 55t22.5 92.5l89 412h-208l-52 -232q-32 -145 -75 -235.5t-88 -141.5t-88 -69.5t-76 -18.5z" />
    <glyph glyph-name="glyph172" horiz-adv-x="645" 
d="M-122 -259q-34 0 -51.5 17.5t-17.5 42.5q0 22 16 39t39 19q25 -21 49 -39t46 -18q12 0 22 6.5t19.5 25.5t20 54.5t22.5 92.5l99 457h-81l9 28q28 2 48 8t36 21t31.5 40t35.5 65q25 52 53.5 87t57 56t56 29.5t50.5 8.5q29 0 44.5 -11.5t19.5 -28.5l208 52l-237 -690
q-14 -40 -14.5 -54.5t15.5 -14.5q10 0 26.5 7.5t35.5 24.5t39.5 44t40.5 66l25 -11q-42 -83 -99.5 -130t-136.5 -47q-28 0 -43 7.5t-20.5 21.5t-2.5 34t12 46l200 584l-49 31q-3 -16 -12 -29.5t-23 -21.5q-26 11 -50 15.5t-44 4.5q-31 0 -55 -9.5t-40 -26t-24.5 -38
t-8.5 -45.5t12.5 -42t43.5 -18h135l-40 -64h-139l-52 -232q-32 -145 -75 -235.5t-88 -141.5t-88 -69.5t-76 -18.5z" />
    <glyph glyph-name="glyph174" horiz-adv-x="968" 
d="M-122 -259q-34 0 -51.5 17.5t-17.5 42.5q0 22 16 39t39 19q25 -21 49 -39t46 -18q12 0 22 6.5t19.5 25.5t20 54.5t22.5 92.5l99 457h-81l9 28q28 3 48 7t36 15t31.5 33.5t35.5 62.5q25 52 53.5 86.5t57 54t56 27.5t50.5 8q35 0 50.5 -15.5t15.5 -38.5q0 -19 -10 -38
t-27 -28q-26 11 -50 15.5t-44 4.5q-31 0 -55 -9t-40 -23.5t-24.5 -33.5t-8.5 -40q0 -25 12.5 -38.5t43.5 -13.5h140q24 0 39.5 8.5t27 22t19.5 31.5t17 36q26 52 54.5 87t57 56t55.5 29.5t50 8.5q29 0 44.5 -11.5t19.5 -28.5l208 52l-237 -690q-14 -40 -14.5 -54.5
t15.5 -14.5q10 0 26.5 7.5t35.5 24.5t39.5 44t40.5 66l25 -11q-42 -83 -99.5 -130t-136.5 -47q-28 0 -43 7.5t-20.5 21.5t-3 34t11.5 46l201 584l-49 31q-3 -16 -12 -29.5t-23 -21.5q-26 11 -50 15.5t-44 4.5q-31 0 -55 -9.5t-40 -26t-24.5 -38t-8.5 -45.5t12.5 -42
t43.5 -18h140l-40 -64h-144l-42 -188q-32 -145 -75 -236t-88 -142t-88 -69t-76 -18q-34 0 -52 17.5t-18 42.5q0 23 16.5 39.5t39.5 18.5q25 -21 49 -39t46 -18q12 0 21.5 6.5t19.5 26t20.5 55t22.5 92.5l89 412h-208l-52 -232q-32 -145 -75 -235.5t-88 -141.5t-88 -69.5
t-76 -18.5z" />
    <glyph glyph-name="glyph176" horiz-adv-x="0" 
d="M-78 716q0 31 23.5 54.5t54.5 23.5q32 0 55 -23.5t23 -54.5q0 -32 -23 -55.5t-55 -23.5q-31 0 -54.5 23.5t-23.5 55.5z" />
    </font>
</defs>
</svg>
